<?xml version="1.0" encoding="UTF-8" standalone="no"?>
<svg
   width="32"
   height="32"
   version="1.1"
   id="svg8"
   xml:space="preserve"
   sodipodi:docname="emblem-shared.svg"
   inkscape:version="1.2.1 (9c6d41e410, 2022-07-14)"
   xmlns:inkscape="http://www.inkscape.org/namespaces/inkscape"
   xmlns:sodipodi="http://sodipodi.sourceforge.net/DTD/sodipodi-0.dtd"
   xmlns="http://www.w3.org/2000/svg"
   xmlns:svg="http://www.w3.org/2000/svg"><sodipodi:namedview
     id="namedview7"
     pagecolor="#505050"
     bordercolor="#ffffff"
     borderopacity="1"
     inkscape:showpageshadow="0"
     inkscape:pageopacity="0"
     inkscape:pagecheckerboard="1"
     inkscape:deskcolor="#505050"
     showgrid="false"
     inkscape:zoom="33.84375"
     inkscape:cx="16.029548"
     inkscape:cy="16.014774"
     inkscape:window-width="2560"
     inkscape:window-height="1358"
     inkscape:window-x="0"
     inkscape:window-y="0"
     inkscape:window-maximized="1"
     inkscape:current-layer="svg8" /><defs
     id="defs12" /><rect
     style="fill:#ffffff;fill-opacity:1.0;stroke-width:1.91045"
     id="rect303"
     width="30"
     height="30"
     x="1"
     y="1"
     rx="5"
     ry="5" /><g
     style="fill:#333333;enable-background:new;fill-opacity:1.0"
     transform="matrix(1.5,0,0,1.5,-931.99993,-788)"
     id="g6"><path
       style="fill:#333333;fill-opacity:1.0"
       d="m 636,528 c -1.6568,0 -3,1.3432 -3,3 0,0.23127 0.0442,0.44001 0.0937,0.65625 l -3.2188,2 C 629.36149,533.24498 628.709,533 627.9999,533 c -1.6568,0 -3,1.3432 -3,3 0,1.6568 1.3432,3 3,3 0.70904,0 1.3615,-0.24498 1.875,-0.65625 l 3.2188,2 C 633.0442,540.55999 633,540.76873 633,541 c 0,1.6568 1.3432,3 3,3 1.6568,0 3,-1.3432 3,-3 0,-1.6568 -1.3432,-3 -3,-3 -0.70904,0 -1.3615,0.24498 -1.875,0.65625 l -3.2188,-2 c 0.0495,-0.21624 0.0937,-0.42498 0.0937,-0.65625 0,-0.23127 -0.0442,-0.44001 -0.0937,-0.65625 l 3.2188,-2 C 634.63841,533.75502 635.2909,534 636,534 c 1.6568,0 3,-1.3432 3,-3 0,-1.6568 -1.3432,-3 -3,-3 z"
       id="path4" /></g></svg>
