<?xml version="1.0" encoding="UTF-8" standalone="no"?>
<svg
   width="32"
   height="32"
   version="1.1"
   id="svg8"
   sodipodi:docname="vcs-locally-modified.svg"
   xml:space="preserve"
   inkscape:version="1.2.1 (9c6d41e410, 2022-07-14)"
   xmlns:inkscape="http://www.inkscape.org/namespaces/inkscape"
   xmlns:sodipodi="http://sodipodi.sourceforge.net/DTD/sodipodi-0.dtd"
   xmlns="http://www.w3.org/2000/svg"
   xmlns:svg="http://www.w3.org/2000/svg"><defs
     id="defs12" /><sodipodi:namedview
     id="namedview10"
     pagecolor="#505050"
     bordercolor="#ffffff"
     borderopacity="1"
     inkscape:showpageshadow="0"
     inkscape:pageopacity="0"
     inkscape:pagecheckerboard="1"
     inkscape:deskcolor="#505050"
     showgrid="false"
     inkscape:zoom="8.4609375"
     inkscape:cx="-16.132964"
     inkscape:cy="16.66482"
     inkscape:window-width="2560"
     inkscape:window-height="1358"
     inkscape:window-x="0"
     inkscape:window-y="0"
     inkscape:window-maximized="1"
     inkscape:current-layer="svg8" /><rect
     style="fill:#c579be;fill-opacity:1;stroke-width:1.91045"
     id="rect303"
     width="30"
     height="30"
     x="1"
     y="1"
     rx="5"
     ry="5" /><g
     id="g168"
     transform="matrix(-0.04546741,0.04545261,0.04546741,0.04545261,16.474784,-6.9129448)"
     style="fill:#ffffff;fill-opacity:1"><g
       id="g114"
       style="fill:#ffffff;fill-opacity:1">
	<path
   d="m 487.267,225.981 c 0,-17.365 -13.999,-31.518 -31.518,-31.518 H 194.501 L 305.35,83.615 c 12.24,-12.24 12.24,-32.207 0,-44.676 L 275.592,9.18 c -12.24,-12.24 -32.207,-12.24 -44.676,0 L 15.568,224.527 c -6.12,6.12 -9.256,14.153 -9.256,22.262 0,8.032 3.136,16.142 9.256,22.262 l 215.348,215.348 c 12.24,12.239 32.207,12.239 44.676,0 L 305.35,454.64 c 12.24,-12.24 12.24,-32.207 0,-44.676 L 194.501,299.498 h 261.094 c 17.366,0 31.519,-14.153 31.519,-31.519 z"
   id="path112"
   style="fill:#ffffff;fill-opacity:1" />
</g><g
       id="g116"
       style="fill:#ffffff;fill-opacity:1">
</g><g
       id="g118"
       style="fill:#ffffff;fill-opacity:1">
</g><g
       id="g120"
       style="fill:#ffffff;fill-opacity:1">
</g><g
       id="g122"
       style="fill:#ffffff;fill-opacity:1">
</g><g
       id="g124"
       style="fill:#ffffff;fill-opacity:1">
</g><g
       id="g126"
       style="fill:#ffffff;fill-opacity:1">
</g><g
       id="g128"
       style="fill:#ffffff;fill-opacity:1">
</g><g
       id="g130"
       style="fill:#ffffff;fill-opacity:1">
</g><g
       id="g132"
       style="fill:#ffffff;fill-opacity:1">
</g><g
       id="g134"
       style="fill:#ffffff;fill-opacity:1">
</g><g
       id="g136"
       style="fill:#ffffff;fill-opacity:1">
</g><g
       id="g138"
       style="fill:#ffffff;fill-opacity:1">
</g><g
       id="g140"
       style="fill:#ffffff;fill-opacity:1">
</g><g
       id="g142"
       style="fill:#ffffff;fill-opacity:1">
</g><g
       id="g144"
       style="fill:#ffffff;fill-opacity:1">
</g></g></svg>
