<?xml version="1.0" encoding="UTF-8" standalone="no"?>
<svg
   width="32"
   height="32"
   version="1.1"
   id="svg266"
   sodipodi:docname="emblem-system.svg"
   xml:space="preserve"
   inkscape:version="1.2.1 (9c6d41e410, 2022-07-14)"
   xmlns:inkscape="http://www.inkscape.org/namespaces/inkscape"
   xmlns:sodipodi="http://sodipodi.sourceforge.net/DTD/sodipodi-0.dtd"
   xmlns="http://www.w3.org/2000/svg"
   xmlns:svg="http://www.w3.org/2000/svg"><defs
     id="defs270" /><sodipodi:namedview
     id="namedview268"
     pagecolor="#505050"
     bordercolor="#ffffff"
     borderopacity="1"
     inkscape:showpageshadow="0"
     inkscape:pageopacity="0"
     inkscape:pagecheckerboard="1"
     inkscape:deskcolor="#505050"
     showgrid="false"
     inkscape:zoom="8.4609375"
     inkscape:cx="-26.060942"
     inkscape:cy="9.5734072"
     inkscape:window-width="2560"
     inkscape:window-height="1358"
     inkscape:window-x="0"
     inkscape:window-y="0"
     inkscape:window-maximized="1"
     inkscape:current-layer="svg266" /><rect
     style="fill:#ffffff;fill-opacity:1.0;stroke-width:1.91045"
     id="rect303"
     width="30"
     height="30"
     x="1"
     y="1"
     rx="5"
     ry="5" /><path
     d="m 27.189016,13.960004 -1.323983,-0.255 c -0.593016,-0.11301 -1.058016,-0.501 -1.278986,-1.061016 -0.221014,-0.563015 -0.14301,-1.164 0.215016,-1.650984 l 0.831,-1.133999 c 0.291984,-0.396984 0.249,-0.948984 -0.09999,-1.296984 L 23.737096,6.767037 C 23.39908,6.428037 22.86508,6.378021 22.47011,6.646047 l -1.116983,0.755015 c -0.498,0.339 -1.100016,0.393984 -1.655016,0.153984 -0.552984,-0.242015 -0.924,-0.722016 -1.014984,-1.319015 L 18.469143,4.848016 C 18.394013,4.36 17.974003,4 17.479987,4 h -2.538 c -0.479014,0 -0.891,0.339984 -0.981983,0.810984 l -0.329016,1.709999 c -0.111,0.579 -0.486984,1.041 -1.032,1.266 -0.545015,0.227016 -1.139014,0.165984 -1.626984,-0.165 L 9.529989,6.645999 C 9.134974,6.378015 8.602989,6.427983 8.263005,6.766989 L 6.468021,8.562021 c -0.348985,0.348 -0.392016,0.9 -0.09999,1.296984 l 0.831,1.134983 c 0.357984,0.486 0.435984,1.086985 0.215015,1.65 -0.221015,0.560016 -0.686015,0.948 -1.280015,1.061016 l -1.323001,0.255 C 4.339984,14.050994 4,14.463019 4,14.941987 v 2.538 c 0,0.494016 0.36,0.914015 0.848016,0.989015 l 1.388015,0.213984 c 0.597,0.09099 1.077,0.462 1.319015,1.014986 0.240985,0.552983 0.185016,1.155983 -0.153984,1.655998 l -0.755016,1.115999 c -0.269015,0.396 -0.218015,0.927986 0.12099,1.266986 l 1.794983,1.794983 c 0.348986,0.350016 0.900002,0.39 1.296986,0.09999 l 1.134983,-0.831 c 0.486,-0.357 1.086,-0.434016 1.65,-0.215016 0.560016,0.221016 0.948,0.686016 1.061016,1.280016 l 0.255,1.323 C 14.050994,27.660016 14.463019,28 14.941987,28 h 2.538 c 0.494016,0 0.914015,-0.36 0.989015,-0.848016 l 0.15,-0.975984 c 0.09399,-0.611015 0.474984,-1.095983 1.044984,-1.331015 0.566016,-0.236016 1.181016,-0.162984 1.68,0.203016 l 0.797015,0.584016 c 0.395016,0.290014 0.948,0.249984 1.296984,-0.09999 l 1.794984,-1.794984 c 0.339001,-0.339 0.39,-0.870984 0.12099,-1.266984 l -0.755016,-1.116983 c -0.339,-0.498986 -0.395016,-1.101986 -0.153984,-1.655016 0.242014,-0.552984 0.722014,-0.924 1.319014,-1.014984 l 1.388011,-0.213981 C 27.64,18.394095 28,17.974096 28,17.480081 v -2.537999 c 0,-0.479063 -0.339984,-0.891095 -0.810984,-0.982078 z m -11.189013,7.040014 c -2.756999,0 -5.000015,-2.243016 -5.000015,-5.000015 0,-2.756999 2.243016,-5.000015 5.000015,-5.000015 2.756999,0 5.000015,2.243016 5.000015,5.000015 0,2.756999 -2.243016,5.000015 -5.000015,5.000015 z"
     id="path235"
     style="fill:#333333;fill-opacity:1.0;stroke-width:0.046875" /></svg>
