<?xml version="1.0" encoding="UTF-8" standalone="no"?>
<svg
   width="32"
   height="32"
   version="1.1"
   id="svg242"
   sodipodi:docname="emblem-synchronizing.svg"
   xml:space="preserve"
   inkscape:version="1.2.1 (9c6d41e410, 2022-07-14)"
   xmlns:inkscape="http://www.inkscape.org/namespaces/inkscape"
   xmlns:sodipodi="http://sodipodi.sourceforge.net/DTD/sodipodi-0.dtd"
   xmlns="http://www.w3.org/2000/svg"
   xmlns:svg="http://www.w3.org/2000/svg"><defs
     id="defs246" /><sodipodi:namedview
     id="namedview244"
     pagecolor="#505050"
     bordercolor="#ffffff"
     borderopacity="1"
     inkscape:showpageshadow="0"
     inkscape:pageopacity="0"
     inkscape:pagecheckerboard="1"
     inkscape:deskcolor="#505050"
     showgrid="false"
     inkscape:zoom="16.921875"
     inkscape:cx="0.56140351"
     inkscape:cy="11.700831"
     inkscape:window-width="2560"
     inkscape:window-height="1358"
     inkscape:window-x="0"
     inkscape:window-y="0"
     inkscape:window-maximized="1"
     inkscape:current-layer="svg242" /><rect
     style="fill:#ffffff;fill-opacity:1.0;stroke-width:1.91045"
     id="rect303"
     width="30"
     height="30"
     x="1"
     y="1"
     rx="5"
     ry="5" /><path
     d="m 15.794923,5.5010686 c -0.404294,0.0058 -0.80273,0.04099 -1.201174,0.09375 -3.16406,0.427733 -6.035154,2.291013 -7.6875,5.1562494 -0.416011,0.714845 -0.169939,1.634763 0.550787,2.044923 0.714839,0.416014 1.634763,0.16991 2.04492,-0.544923 1.582032,-2.736328 4.693361,-4.1835934 7.798828,-3.6386734 2.519529,0.445315 4.587892,2.1210974 5.572266,4.3886734 h -2.373048 c -0.826171,0 -1.499999,0.673829 -1.499999,1.500003 0,0.826165 0.673831,1.499996 1.499999,1.499996 h 5.999999 C 27.326176,16.001067 28,15.327236 28,14.501071 V 8.5010686 c 0,-0.826172 -0.673824,-1.5 -1.499999,-1.5 -0.826169,0 -1.499999,0.673828 -1.499999,1.5 V 10.598726 C 23.464847,8.0440316 20.875001,6.1983316 17.822267,5.6592686 17.142581,5.5420846 16.462891,5.4893296 15.794923,5.5010916 Z M 5.500003,16.001064 C 4.673832,16.001064 4,16.674899 4,17.501067 v 6.000002 c 0,0.826174 0.673832,1.500006 1.500003,1.500006 0.826174,0 1.499999,-0.673832 1.499999,-1.500006 v -2.091796 c 1.710935,2.841796 4.699216,4.751952 8.085936,5.050785 4.060547,0.357423 7.968749,-1.675787 10.007812,-5.208992 0.416022,-0.714844 0.169928,-1.634763 -0.550779,-2.044919 -0.33984,-0.20508 -0.75,-0.257835 -1.136716,-0.152297 -0.38672,0.09957 -0.714848,0.351565 -0.914067,0.697266 -1.458984,2.52539 -4.236327,3.972658 -7.148433,3.720702 -2.748049,-0.240221 -5.121097,-1.962894 -6.216797,-4.470702 h 2.373041 c 0.826177,0 1.500009,-0.673829 1.500009,-1.500003 0,-0.826174 -0.673832,-1.500002 -1.500009,-1.500002 z m 0,0"
     fill="#2e3436"
     id="path297"
     style="fill:#333333;fill-opacity:1.0;stroke-width:1.5" /></svg>
