<?xml version="1.0" encoding="UTF-8" standalone="no"?>
<svg
   width="24"
   height="24"
   version="1.1"
   id="svg7"
   sodipodi:docname="network-wired-secure.svg"
   xml:space="preserve"
   inkscape:version="1.2.2 (b0a8486541, 2022-12-01)"
   xmlns:inkscape="http://www.inkscape.org/namespaces/inkscape"
   xmlns:sodipodi="http://sodipodi.sourceforge.net/DTD/sodipodi-0.dtd"
   xmlns="http://www.w3.org/2000/svg"
   xmlns:svg="http://www.w3.org/2000/svg"><sodipodi:namedview
     id="namedview9"
     pagecolor="#ffffff"
     bordercolor="#000000"
     borderopacity="0.25"
     inkscape:showpageshadow="2"
     inkscape:pageopacity="0.0"
     inkscape:pagecheckerboard="0"
     inkscape:deskcolor="#d1d1d1"
     showgrid="false"
     inkscape:zoom="21.395833"
     inkscape:cx="-8.5764362"
     inkscape:cy="8.8568646"
     inkscape:window-width="2560"
     inkscape:window-height="1359"
     inkscape:window-x="0"
     inkscape:window-y="0"
     inkscape:window-maximized="1"
     inkscape:current-layer="svg7" /><defs
     id="defs3"><style
       id="current-color-scheme"
       type="text/css">
   .ColorScheme-Text { color:#dfdfdf; } .ColorScheme-Highlight { color:#4285f4; } .ColorScheme-NeutralText { color:#ff9800; } .ColorScheme-PositiveText { color:#4caf50; } .ColorScheme-NegativeText { color:#f44336; }
  </style><style
       id="current-color-scheme-535"
       type="text/css">
   .ColorScheme-Text { color:#dfdfdf; } .ColorScheme-Highlight { color:#4285f4; } .ColorScheme-NeutralText { color:#ff9800; } .ColorScheme-PositiveText { color:#4caf50; } .ColorScheme-NegativeText { color:#f44336; }
  </style><style
       id="current-color-scheme-6"
       type="text/css">
   .ColorScheme-Text { color:#dfdfdf; } .ColorScheme-Highlight { color:#4285f4; } .ColorScheme-NeutralText { color:#ff9800; } .ColorScheme-PositiveText { color:#4caf50; } .ColorScheme-NegativeText { color:#f44336; }
  </style><style
       id="current-color-scheme-53"
       type="text/css">
   .ColorScheme-Text { color:#dfdfdf; } .ColorScheme-Highlight { color:#4285f4; }
  </style><style
       id="current-color-scheme-5"
       type="text/css">
   .ColorScheme-Text { color:#dfdfdf; } .ColorScheme-Highlight { color:#4285f4; }
  </style><style
       id="current-color-scheme-6-5"
       type="text/css">
   .ColorScheme-Text { color:#dfdfdf; } .ColorScheme-Highlight { color:#4285f4; }
  </style></defs><g
     id="g1431"
     transform="translate(3.9833332,3.4498329)"><path
       style="opacity:0.3;fill:#dfdfdf;fill-opacity:1;stroke-width:1.06667"
       d="m 1.5999996,1.6000002 c 0,0 -1.06666598,0 -1.06666598,1.0666667 v 9.6000001 c 0,1.066667 1.06666598,1.066667 1.06666598,1.066667 H 3.7333337 L 4.8000006,14.4 H 9.4 V 12.266667 H 5.8666666 L 4.8000006,11.2 H 2.6666666 V 3.7333336 H 13.333333 V 8.4 h 2.133333 V 2.6666669 C 15.466666,1.6000002 14.4,1.6000002 14.4,1.6000002 Z"
       id="path2"
       sodipodi:nodetypes="cssccccccccccccscc" /><path
       style="display:inline;fill:#dfdfdf;fill-opacity:1;stroke-width:0.416667"
       d="m 13,9.667 c -0.923333,0 -1.666667,0.743334 -1.666667,1.666668 v 0.833333 h -0.416666 c -0.230834,0 -0.416667,0.185833 -0.416667,0.416667 v 2.5 c 0,0.230833 0.185833,0.416666 0.416667,0.416666 h 4.166666 c 0.230834,0 0.416667,-0.185833 0.416667,-0.416666 v -2.5 c 0,-0.230834 -0.185833,-0.416667 -0.416667,-0.416667 H 14.666667 V 11.333668 C 14.666667,10.410334 13.923333,9.667 13,9.667 Z m 0,0.833334 c 0.461667,0 0.833333,0.371667 0.833333,0.833334 v 0.833333 h -1.666666 v -0.833333 c 0,-0.461667 0.371666,-0.833334 0.833333,-0.833334 z"
       id="path240" /></g></svg>
