<?xml version="1.0" encoding="UTF-8" standalone="no"?>
<svg
   height="16px"
   viewBox="0 0 16 16"
   width="16px"
   version="1.1"
   id="svg4"
   sodipodi:docname="auth-fingerprint-symbolic.svg"
   xml:space="preserve"
   inkscape:version="1.2.1 (9c6d41e410, 2022-07-14, custom)"
   xmlns:inkscape="http://www.inkscape.org/namespaces/inkscape"
   xmlns:sodipodi="http://sodipodi.sourceforge.net/DTD/sodipodi-0.dtd"
   xmlns="http://www.w3.org/2000/svg"
   xmlns:svg="http://www.w3.org/2000/svg"><defs
     id="defs8" /><sodipodi:namedview
     id="namedview6"
     pagecolor="#505050"
     bordercolor="#ffffff"
     borderopacity="1"
     inkscape:showpageshadow="0"
     inkscape:pageopacity="0"
     inkscape:pagecheckerboard="1"
     inkscape:deskcolor="#505050"
     showgrid="false"
     inkscape:zoom="11.965573"
     inkscape:cx="-45.045901"
     inkscape:cy="3.8861492"
     inkscape:window-width="2560"
     inkscape:window-height="1357"
     inkscape:window-x="0"
     inkscape:window-y="0"
     inkscape:window-maximized="1"
     inkscape:current-layer="svg4" /><path
     d="m 12.582372,8.1068747 a 17.843784,17.843784 0 0 1 -1.34112,6.8184093 0.85442854,0.85442854 0 1 1 -1.5805198,-0.64973 16.143606,16.143606 0 0 0 1.2127598,-6.1686793 0.85443941,0.85443941 0 0 1 1.70887,0 z M 8.3101719,5.5435567 a 2.567532,2.567532 0 0 1 1.9106701,0.85451 0.85447295,0.85447295 0 1 0 1.27331,-1.139809 4.272274,4.272274 0 0 0 -7.4561801,2.848617 9.4051115,9.4051115 0 0 1 -1.17304,4.5507523 0.85441456,0.85441456 0 1 0 1.49443,0.828711 11.117467,11.117467 0 0 0 1.38749,-5.3794633 2.5662105,2.5662105 0 0 1 2.56332,-2.563318 z m 0,-5.12663999 a 7.6711485,7.6711485 0 0 0 -2.56332,0.43779003 0.85446576,0.85446576 0 1 0 0.56949,1.61124996 5.9857902,5.9857902 0 0 1 7.9749101,5.640918 19.767407,19.767407 0 0 1 -0.48695,4.3678763 0.85441235,0.85441235 0 1 0 1.66646,0.378129 21.474995,21.474995 0 0 0 0.52936,-4.7460053 7.6986315,7.6986315 0 0 0 -7.6899501,-7.68995799 z m -3.98718,3.23161699 a 0.85442659,0.85442659 0 1 0 -1.13966,-1.273317 7.7015608,7.7015608 0 0 0 -2.56311003,5.731658 5.9316138,5.9316138 0 0 1 -0.54195,2.4917673 0.85442517,0.85442517 0 1 0 1.55312003,0.712728 7.6285262,7.6285262 0 0 0 0.69771,-3.2044953 5.9908734,5.9908734 0 0 1 1.99389,-4.458341 z m 3.10319,9.3780423 a 0.85442588,0.85442588 0 0 0 -1.133,0.420127 c -0.1342,0.292323 -0.28161,0.583742 -0.4382,0.866121 a 0.8544753,0.8544753 0 1 0 1.49457,0.828711 c 0.17745,-0.320066 0.34454,-0.650424 0.49675,-0.981964 a 0.85444724,0.85444724 0 0 0 -0.42012,-1.132995 z m 0.88315,-5.7742113 a 0.85448213,0.85448213 0 0 0 -0.85444,0.854439 12.865523,12.865523 0 0 1 -0.40371,3.2047743 0.85443108,0.85443108 0 1 0 1.65492,0.425968 14.575277,14.575277 0 0 0 0.45767,-3.6307423 0.85448142,0.85448142 0 0 0 -0.85443,-0.854438 z"
     id="path114"
     style="stroke-width:0.0712033;fill:#444444;fill-opacity:1.0" /></svg>
