<?xml version="1.0" encoding="UTF-8" standalone="no"?>
<svg
   version="1.1"
   width="24px"
   height="24px"
   id="svg9"
   sodipodi:docname="application-rss+xml.svg"
   xml:space="preserve"
   inkscape:version="1.2.1 (9c6d41e410, 2022-07-14, custom)"
   xmlns:inkscape="http://www.inkscape.org/namespaces/inkscape"
   xmlns:sodipodi="http://sodipodi.sourceforge.net/DTD/sodipodi-0.dtd"
   xmlns="http://www.w3.org/2000/svg"
   xmlns:svg="http://www.w3.org/2000/svg"><defs
     id="defs13"><style
       id="current-color-scheme-3"
       type="text/css">
   .ColorScheme-Text { color:#444444; } .ColorScheme-Highlight { color:#4285f4; }
  </style></defs><sodipodi:namedview
     id="namedview11"
     pagecolor="#ffffff"
     bordercolor="#000000"
     borderopacity="0.25"
     inkscape:showpageshadow="2"
     inkscape:pageopacity="0.0"
     inkscape:pagecheckerboard="0"
     inkscape:deskcolor="#d1d1d1"
     showgrid="false"
     inkscape:zoom="30.958333"
     inkscape:cx="12"
     inkscape:cy="11.983849"
     inkscape:window-width="1920"
     inkscape:window-height="1007"
     inkscape:window-x="0"
     inkscape:window-y="0"
     inkscape:window-maximized="1"
     inkscape:current-layer="svg9" /><g
     transform="translate(4.0, 4.0) scale(1 1) "
     id="g7"
     style="fill:#dfdfdf;fill-opacity:1"><defs
       id="defs3"><style
         id="current-color-scheme"
         type="text/css">
   .ColorScheme-Text { color:#444444; } .ColorScheme-Highlight { color:#4285f4; }
  </style></defs><path
       style="fill:#dfdfdf;fill-opacity:1"
       class="ColorScheme-Text"
       d="M 1 0.99804688 L 1 3.1796875 C 7.5264 3.1796875 12.818359 8.4690468 12.818359 14.998047 L 14.998047 14.998047 C 14.998047 7.2654045 8.7303937 0.9991127 1 0.99804688 z M 1 5.359375 L 1 7.5429688 C 5.1174 7.5429688 8.4550781 10.880347 8.4550781 14.998047 L 10.636719 14.998047 C 10.636719 9.6762468 6.3216 5.359375 1 5.359375 z M 3.0898438 10.820312 C 1.9352436 10.820312 1 11.756879 1 12.912109 C 1 14.065009 1.9352037 15.003906 3.0898438 15.003906 C 4.2444836 15.003906 5.1816406 14.065019 5.1816406 12.912109 C 5.1816406 11.756809 4.2444836 10.820313 3.0898438 10.820312 z"
       id="path5" /></g></svg>
