<?xml version="1.0" encoding="UTF-8" standalone="no"?>
<svg
   width="16"
   height="16"
   version="1.1"
   id="svg4"
   sodipodi:docname="camera-photo-symbolic-new.svg"
   xml:space="preserve"
   inkscape:version="1.2.1 (9c6d41e410, 2022-07-14)"
   xmlns:inkscape="http://www.inkscape.org/namespaces/inkscape"
   xmlns:sodipodi="http://sodipodi.sourceforge.net/DTD/sodipodi-0.dtd"
   xmlns="http://www.w3.org/2000/svg"
   xmlns:svg="http://www.w3.org/2000/svg"><defs
     id="defs8" /><sodipodi:namedview
     id="namedview6"
     pagecolor="#ffffff"
     bordercolor="#000000"
     borderopacity="0.25"
     inkscape:showpageshadow="2"
     inkscape:pageopacity="0.0"
     inkscape:pagecheckerboard="0"
     inkscape:deskcolor="#d1d1d1"
     showgrid="false"
     inkscape:zoom="32.09375"
     inkscape:cx="10.391431"
     inkscape:cy="10.90555"
     inkscape:current-layer="svg4"
     inkscape:window-width="2560"
     inkscape:window-height="1358"
     inkscape:window-x="0"
     inkscape:window-y="0"
     inkscape:window-maximized="1" /><g
     style="fill:#444444;fill-opacity:1"
     id="g246"
     transform="matrix(0.7,0,0,0.7,-0.4,-0.2259905)"><path
       id="path237"
       style="fill:#444444;fill-opacity:1"
       d="M 10.12221 2.501973 C 9.3400706 2.501973 8.6146067 2.9096925 8.2053571 3.5761918 L 7.3292411 4.9991829 L 5.250558 4.9991829 C 3.4556298 4.9991829 2 6.4548227 2 8.2497409 L 2 17.750299 C 2 19.545197 3.4556298 21.000857 5.250558 21.000857 L 18.749442 21.000857 C 20.54434 21.000857 22 19.545197 22 17.750299 L 22 8.2497409 C 22 6.4548227 20.54434 4.9991829 18.749442 4.9991829 L 16.679129 4.9991829 L 15.864397 3.6124641 C 15.460398 2.9245648 14.723022 2.501973 13.925223 2.501973 L 10.12221 2.501973 z M 12 9.0784239 A 3.9426119 3.9426119 0 0 1 15.942522 13.020946 A 3.9426119 3.9426119 0 0 1 12 16.966259 A 3.9426119 3.9426119 0 0 1 8.0574777 13.020946 A 3.9426119 3.9426119 0 0 1 12 9.0784239 z " /></g></svg>
