<?xml version="1.0" encoding="UTF-8" standalone="no"?>
<svg
   height="16px"
   viewBox="0 0 16 16"
   width="16px"
   version="1.1"
   id="svg4"
   sodipodi:docname="video-joined-displays-symbolic.svg"
   xml:space="preserve"
   inkscape:version="1.2.1 (9c6d41e410, 2022-07-14, custom)"
   xmlns:inkscape="http://www.inkscape.org/namespaces/inkscape"
   xmlns:sodipodi="http://sodipodi.sourceforge.net/DTD/sodipodi-0.dtd"
   xmlns="http://www.w3.org/2000/svg"
   xmlns:svg="http://www.w3.org/2000/svg"><defs
     id="defs8" /><sodipodi:namedview
     id="namedview6"
     pagecolor="#505050"
     bordercolor="#ffffff"
     borderopacity="1"
     inkscape:showpageshadow="0"
     inkscape:pageopacity="0"
     inkscape:pagecheckerboard="1"
     inkscape:deskcolor="#505050"
     showgrid="false"
     inkscape:zoom="11.313709"
     inkscape:cx="-17.854446"
     inkscape:cy="-6.8500969"
     inkscape:window-width="2560"
     inkscape:window-height="1357"
     inkscape:window-x="0"
     inkscape:window-y="0"
     inkscape:window-maximized="1"
     inkscape:current-layer="svg4" /><g
     id="g214"
     transform="matrix(0.57891931,0,0,0.57891931,17.826083,3.329567)"><path
       style="fill:#444444"
       d="m -28.792,1.5350052 c -2,0 -2,2.0000001 -2,2.0000001 v 8.9999997 c 0,0 0,2 2,2 h 12 c 0,0 2,0 2,-2 V 3.5350053 c 0,0 0,-2.0000001 -2,-2.0000001 z m 0,2.0000001 h 12 v 8.9999997 h -12 z m 1,12.9999997 v 1 h 10 v -1 c 0,-1 -1,-1 -1,-1 h -8 c 0,0 -1,0 -1,1 z"
       id="path10" /><path
       style="fill:#444444"
       d="m -14.654326,16.433804 v 1 h 10.0000008 v -1 c 0,-1 -1.0000004,-1 -1.0000004,-1 h -8.0000004 c 0,0 -1,0 -1,1 z"
       id="path208" /><path
       id="path10-3"
       style="fill:#444444"
       d="m -3.1542969,0.6 c 0,-1.999998 -2,-2 -2,-2 h -9.0000001 c 0,0 -2,2e-6 -2,2 v 12 c 0,0 2e-6,2 2,2 h 9.0000001 c 0,0 2.0000001,-2e-6 2,-2 z m -2,0 v 12 h -9.0000001 v -12 z" /></g></svg>
