<?xml version="1.0" encoding="UTF-8" standalone="no"?>
<svg
   height="16px"
   viewBox="0 0 16 16"
   width="16px"
   version="1.1"
   id="svg4"
   sodipodi:docname="video-single-display-symbolic.svg"
   xml:space="preserve"
   inkscape:version="1.2.1 (9c6d41e410, 2022-07-14, custom)"
   xmlns:inkscape="http://www.inkscape.org/namespaces/inkscape"
   xmlns:sodipodi="http://sodipodi.sourceforge.net/DTD/sodipodi-0.dtd"
   xmlns="http://www.w3.org/2000/svg"
   xmlns:svg="http://www.w3.org/2000/svg"><defs
     id="defs8" /><sodipodi:namedview
     id="namedview6"
     pagecolor="#505050"
     bordercolor="#ffffff"
     borderopacity="1"
     inkscape:showpageshadow="0"
     inkscape:pageopacity="0"
     inkscape:pagecheckerboard="1"
     inkscape:deskcolor="#505050"
     showgrid="false"
     inkscape:zoom="23.931145"
     inkscape:cx="-11.198795"
     inkscape:cy="3.8234694"
     inkscape:window-width="2560"
     inkscape:window-height="1357"
     inkscape:window-x="0"
     inkscape:window-y="0"
     inkscape:window-maximized="1"
     inkscape:current-layer="svg4" /><path
     d="M 7,3 C 7,4.105469 6.105469,5 5,5 v 1 h 2 v 4 H 9 V 3 Z"
     id="path181"
     style="fill:#444444;fill-opacity:1.0" /><path
     style="fill:#444444"
     d="M 1.9999994,-4.9999999e-8 C 4e-7,-4.9999999e-8 4e-7,2 4e-7,2 v 9 c 0,0 0,2 1.999999,2 H 14 c 0,0 2,0 2,-2 V 2 C 16,2 16,-4.9999999e-8 14,-4.9999999e-8 Z M 1.9999994,2 H 14 v 9 H 1.9999994 Z m 1,13 v 1 H 13 v -1 c 0,-1 -1,-1 -1,-1 H 3.9999994 c 0,0 -1,0 -1,1 z"
     id="path10" /></svg>
