<?xml version="1.0" encoding="UTF-8" standalone="no"?>
<svg
   width="32"
   height="32"
   version="1.1"
   id="svg14"
   sodipodi:docname="emblem-syncthing-active.svg"
   xml:space="preserve"
   inkscape:version="1.2.1 (9c6d41e410, 2022-07-14)"
   xmlns:inkscape="http://www.inkscape.org/namespaces/inkscape"
   xmlns:sodipodi="http://sodipodi.sourceforge.net/DTD/sodipodi-0.dtd"
   xmlns="http://www.w3.org/2000/svg"
   xmlns:svg="http://www.w3.org/2000/svg"><defs
     id="defs18" /><sodipodi:namedview
     id="namedview16"
     pagecolor="#505050"
     bordercolor="#ffffff"
     borderopacity="1"
     inkscape:showpageshadow="0"
     inkscape:pageopacity="0"
     inkscape:pagecheckerboard="1"
     inkscape:deskcolor="#505050"
     showgrid="false"
     inkscape:zoom="8.4609375"
     inkscape:cx="-47.21699"
     inkscape:cy="15.128347"
     inkscape:window-width="2560"
     inkscape:window-height="1358"
     inkscape:window-x="0"
     inkscape:window-y="0"
     inkscape:window-maximized="1"
     inkscape:current-layer="svg14" /><rect
     style="fill:#35be50;fill-opacity:1;stroke-width:1.91045"
     id="rect303"
     width="30"
     height="30"
     x="1"
     y="1"
     rx="5"
     ry="5" /><g
     id="g317"
     transform="matrix(1.0909091,0,0,1.0909091,-1.4545456,-1.4545456)"><path
       style="fill:#ffffff"
       d="M 16,6 A 10,10 0 0 0 6,16 10,10 0 0 0 16,26 10,10 0 0 0 26,16 10,10 0 0 0 25.385,12.586 L 25.406,12.57 25.354,12.496 A 10,10 0 0 0 16,6 Z m 0,1 a 9,9 0 0 1 7.988,4.861 L 17.748,16.32 7.102,17.287 A 9,9 0 0 1 7,16 9,9 0 0 1 16,7 Z m 8.539,6.189 A 9,9 0 0 1 25,16 9,9 0 0 1 22.393,22.326 l -3.434,-5.15 z m -6.891,4.545 3.674,5.51 A 9,9 0 0 1 16,25 9,9 0 0 1 7.4141,18.666 Z"
       id="path4-5" /><circle
       style="fill:#ffffff"
       cx="7"
       cy="18"
       r="2"
       id="circle6-3" /><circle
       style="fill:#ffffff"
       cx="22"
       cy="23"
       r="2"
       id="circle8-5" /><circle
       style="fill:#ffffff"
       cx="25"
       cy="12"
       r="2"
       id="circle10-6" /><circle
       style="fill:#ffffff"
       cx="18"
       cy="17"
       r="2"
       id="circle12-2" /></g></svg>
