<?xml version="1.0" encoding="UTF-8" standalone="no"?>
<svg
   height="16px"
   viewBox="0 0 16 16"
   width="16px"
   version="1.1"
   id="svg4"
   sodipodi:docname="auth-smartcard-symbolic.svg"
   inkscape:version="1.2.1 (9c6d41e410, 2022-07-14, custom)"
   xmlns:inkscape="http://www.inkscape.org/namespaces/inkscape"
   xmlns:sodipodi="http://sodipodi.sourceforge.net/DTD/sodipodi-0.dtd"
   xmlns="http://www.w3.org/2000/svg"
   xmlns:svg="http://www.w3.org/2000/svg">
  <defs
     id="defs8" />
  <sodipodi:namedview
     id="namedview6"
     pagecolor="#505050"
     bordercolor="#ffffff"
     borderopacity="1"
     inkscape:showpageshadow="0"
     inkscape:pageopacity="0"
     inkscape:pagecheckerboard="1"
     inkscape:deskcolor="#505050"
     showgrid="false"
     inkscape:zoom="67.6875"
     inkscape:cx="8.0073869"
     inkscape:cy="8.0147738"
     inkscape:window-width="2560"
     inkscape:window-height="1357"
     inkscape:window-x="0"
     inkscape:window-y="0"
     inkscape:window-maximized="1"
     inkscape:current-layer="svg4" />
  <path
     d="m 4 0 c -2 0 -2 2 -2 2 v 12 c 0 2 2 2 2 2 h 8 s 2 0 2 -2 v -12 c 0 -2 -2 -2 -2 -2 z m 1.507812 2.976562 c 0.28125 -0.003906 0.511719 0.226563 0.507813 0.507813 v 3.53125 h 1 v -4.03125 h 3 v 4.03125 h 0.511719 c 0.675781 -0.011719 0.675781 1.007813 0 1 h -1.511719 v -4.03125 h -1 v 4.03125 h -3 v -4.53125 c -0.003906 -0.277344 0.214844 -0.503906 0.492187 -0.507813 z m 0 0"
     id="path2"
     style="fill:#444444;fill-opacity:1.0" />
</svg>
