<?xml version="1.0" encoding="UTF-8" standalone="no"?>
<svg
   width="16"
   height="16"
   version="1.1"
   id="svg4"
   sodipodi:docname="bluetooth-disabled-symbolic.svg"
   xml:space="preserve"
   inkscape:version="1.2.1 (9c6d41e410, 2022-07-14)"
   xmlns:inkscape="http://www.inkscape.org/namespaces/inkscape"
   xmlns:sodipodi="http://sodipodi.sourceforge.net/DTD/sodipodi-0.dtd"
   xmlns="http://www.w3.org/2000/svg"
   xmlns:svg="http://www.w3.org/2000/svg"><defs
     id="defs8" /><sodipodi:namedview
     id="namedview6"
     pagecolor="#505050"
     bordercolor="#ffffff"
     borderopacity="1"
     inkscape:showpageshadow="0"
     inkscape:pageopacity="0"
     inkscape:pagecheckerboard="1"
     inkscape:deskcolor="#505050"
     showgrid="false"
     inkscape:zoom="33.84375"
     inkscape:cx="-5.0083102"
     inkscape:cy="9.3370268"
     inkscape:window-width="2560"
     inkscape:window-height="1358"
     inkscape:window-x="0"
     inkscape:window-y="0"
     inkscape:window-maximized="1"
     inkscape:current-layer="svg4" /><path
     id="path2"
     style="fill:#444444"
     d="M 6.9257812 0.00390625 A 1.0001 1.0001 0 0 0 6.5664062 0.099609375 A 1.0001 1.0001 0 0 0 6 1 L 6 5.0664062 L 3.6132812 3.2109375 A 1 1 0 0 0 2.453125 3.1777344 L 3.96875 4.6933594 L 7.0820312 7.8046875 L 9.9375 10.662109 L 10.384766 11.009766 L 10.330078 11.054688 L 11.080078 11.804688 L 11.753906 12.478516 L 12.625 11.78125 A 1.0001 1.0001 0 0 0 12.613281 10.210938 L 9.7714844 8 L 12.613281 5.7890625 A 1.0001 1.0001 0 0 0 12.625 4.21875 L 7.625 0.21875 A 1.0001 1.0001 0 0 0 6.9257812 0.00390625 z M 8 3.0820312 L 10.384766 4.9902344 L 8.1425781 6.734375 L 8 6.6230469 L 8 3.0820312 z M 5.8027344 8.5527344 L 2.3867188 11.210938 A 1 1 0 0 0 2.2109375 12.613281 A 1 1 0 0 0 3.6132812 12.789062 L 6 10.933594 L 6 15 A 1.0001 1.0001 0 0 0 7.625 15.78125 L 10.628906 13.378906 L 9.2050781 11.955078 L 8 12.917969 L 8 10.75 L 5.8027344 8.5527344 z " /><path
     id="path2-5"
     style="fill:#444444;fill-opacity:1"
     d="M 0.61084322,1.3378704 14.610727,15.337757 15.672769,14.275715 15.141057,13.744004 12.141378,10.744325 11.141485,9.7444314 8.1418072,6.7447514 5.0288792,3.6318244 1.6728842,0.27582937 Z" /></svg>
