<?xml version="1.0" encoding="UTF-8" standalone="no"?>
<svg
   width="16"
   height="16"
   version="1.1"
   id="svg4"
   sodipodi:docname="camera-disabled-symbolic.svg"
   xml:space="preserve"
   inkscape:version="1.2.1 (9c6d41e410, 2022-07-14)"
   xmlns:inkscape="http://www.inkscape.org/namespaces/inkscape"
   xmlns:sodipodi="http://sodipodi.sourceforge.net/DTD/sodipodi-0.dtd"
   xmlns="http://www.w3.org/2000/svg"
   xmlns:svg="http://www.w3.org/2000/svg"><defs
     id="defs8" /><sodipodi:namedview
     id="namedview6"
     pagecolor="#ffffff"
     bordercolor="#000000"
     borderopacity="0.25"
     inkscape:showpageshadow="2"
     inkscape:pageopacity="0.0"
     inkscape:pagecheckerboard="0"
     inkscape:deskcolor="#d1d1d1"
     showgrid="false"
     inkscape:zoom="22.627417"
     inkscape:cx="-6.3860581"
     inkscape:cy="11.313708"
     inkscape:current-layer="svg4"
     inkscape:window-width="2560"
     inkscape:window-height="1358"
     inkscape:window-x="0"
     inkscape:window-y="0"
     inkscape:window-maximized="1" /><path
     id="path237"
     style="fill:#444444;fill-opacity:1;stroke-width:0.8"
     d="M 6.4980469 0.59960938 C 5.8723367 0.59960938 5.2922434 0.92578556 4.9648438 1.4589844 L 4.2636719 2.5976562 L 2.5996094 2.5976562 C 2.3106412 2.5976562 2.0350955 2.6473342 1.7753906 2.734375 L 4.2949219 5.2539062 L 5.8125 6.7695312 A 3.1540893 3.1540893 0 0 1 8 5.8613281 A 3.1540893 3.1540893 0 0 1 11.154297 9.015625 A 3.1540893 3.1540893 0 0 1 10.257812 11.21875 L 10.40625 11.367188 L 11.40625 12.365234 L 14.283203 15.242188 C 15.2834 14.879929 16 13.923886 16 12.798828 L 16 5.1992188 C 16 3.7632858 14.836309 2.5976562 13.400391 2.5976562 L 11.744141 2.5976562 L 11.091797 1.4882812 C 10.768598 0.93796245 10.179255 0.59960937 9.5410156 0.59960938 L 6.4980469 0.59960938 z M 0.58007812 3.5644531 C 0.218134 4.0112483 -3.8327908e-16 4.5795644 0 5.1992188 L 0 12.798828 C 0 14.234744 1.163668 15.400391 2.5996094 15.400391 L 12.416016 15.400391 L 9.015625 12 A 3.1540893 3.1540893 0 0 1 8 12.171875 A 3.1540893 3.1540893 0 0 1 4.8457031 9.015625 A 3.1540893 3.1540893 0 0 1 5.0292969 8.0136719 L 0.58007812 3.5644531 z " /><path
     id="path2-5-5"
     style="fill:#444444;fill-opacity:1"
     d="M 0.93717618,1.8989665 14.93706,15.898853 15.999102,14.836811 15.46739,14.3051 12.467711,11.305421 11.467818,10.305527 8.4681401,7.3058475 5.3552121,4.1929205 1.9992171,0.83692544 Z" /></svg>
