<?xml version="1.0" encoding="UTF-8" standalone="no"?>
<svg
   height="16px"
   viewBox="0 0 16 16"
   width="16px"
   version="1.1"
   id="svg8"
   sodipodi:docname="camera-hardware-disabled-symbolic.svg"
   xml:space="preserve"
   inkscape:version="1.2.1 (9c6d41e410, 2022-07-14)"
   xmlns:inkscape="http://www.inkscape.org/namespaces/inkscape"
   xmlns:sodipodi="http://sodipodi.sourceforge.net/DTD/sodipodi-0.dtd"
   xmlns="http://www.w3.org/2000/svg"
   xmlns:svg="http://www.w3.org/2000/svg"><defs
     id="defs12" /><sodipodi:namedview
     id="namedview10"
     pagecolor="#ffffff"
     bordercolor="#000000"
     borderopacity="0.25"
     inkscape:showpageshadow="2"
     inkscape:pageopacity="0.0"
     inkscape:pagecheckerboard="0"
     inkscape:deskcolor="#d1d1d1"
     showgrid="false"
     inkscape:zoom="16"
     inkscape:cx="-14.34375"
     inkscape:cy="11.875"
     inkscape:current-layer="svg8"
     inkscape:window-width="2560"
     inkscape:window-height="1358"
     inkscape:window-x="0"
     inkscape:window-y="0"
     inkscape:window-maximized="1" /><g
     style="fill:#444444;fill-opacity:1;opacity:0.35"
     id="g302"
     transform="matrix(0.79,0,0,0.79,-1.48,-1.4773147)"><path
       id="path293"
       style="fill:#444444;fill-opacity:1"
       d="M 10.123517 2.50293 C 9.3413774 2.50293 8.6142535 2.9094133 8.205004 3.5759126 L 7.3298062 4.9999632 L 5.2505934 4.9999632 C 3.4556651 4.9999632 1.9995055 6.4561328 1.9995055 8.251051 L 1.9995055 8.6960669 L 9.6018592 8.6960669 C 10.296472 8.2572897 11.117671 7.9988754 12 7.9988754 C 12.882336 7.9988754 13.703529 8.2572897 14.398141 8.6960669 L 22.000494 8.6960669 L 22.000494 8.251051 C 22.000494 6.4561328 20.544305 4.9999632 18.749407 4.9999632 L 16.680083 4.9999632 L 15.864221 3.6129972 C 15.460221 2.9250979 14.723729 2.50293 13.92593 2.50293 L 10.123517 2.50293 z M 1.9995055 16.291004 L 1.9995055 17.749667 C 1.9995055 19.544565 3.4556651 21.000754 5.2505934 21.000754 L 18.749407 21.000754 C 20.544305 21.000754 22.000494 19.544565 22.000494 17.749667 L 22.000494 16.291004 L 14.417919 16.291004 C 13.719193 16.737457 12.890687 17.000557 12 17.000557 C 11.10932 17.000557 10.280808 16.737457 9.5820807 16.291004 L 1.9995055 16.291004 z " /></g><path
     d="M -1.375e-7,6.3926647 H 16 V 10.392665 H -1.375e-7 Z m 0,0"
     id="path4"
     style="display:inline;fill:#444444;fill-opacity:1" /></svg>
