<?xml version="1.0" encoding="UTF-8" standalone="no"?>
<svg
   width="16"
   height="16"
   version="1.1"
   id="svg6"
   sodipodi:docname="semi-starred-symbolic.svg"
   xml:space="preserve"
   inkscape:version="1.2.1 (9c6d41e410, 2022-07-14, custom)"
   xmlns:inkscape="http://www.inkscape.org/namespaces/inkscape"
   xmlns:sodipodi="http://sodipodi.sourceforge.net/DTD/sodipodi-0.dtd"
   xmlns="http://www.w3.org/2000/svg"
   xmlns:svg="http://www.w3.org/2000/svg"><defs
     id="defs10"><style
       id="current-color-scheme"
       type="text/css">
   .ColorScheme-Text { color:#6e6e6e; } .ColorScheme-Highlight { color:#4285f4; }
  </style></defs><sodipodi:namedview
     id="namedview8"
     pagecolor="#c7c7c7"
     bordercolor="#ffffff"
     borderopacity="1"
     inkscape:showpageshadow="0"
     inkscape:pageopacity="0"
     inkscape:pagecheckerboard="1"
     inkscape:deskcolor="#505050"
     showgrid="false"
     inkscape:zoom="33.84375"
     inkscape:cx="4.8162512"
     inkscape:cy="8.7017544"
     inkscape:window-width="2560"
     inkscape:window-height="1357"
     inkscape:window-x="0"
     inkscape:window-y="0"
     inkscape:window-maximized="1"
     inkscape:current-layer="svg6" /><path
     id="path5"
     style="fill:#444444;fill-opacity:1;opacity:0.35"
     class="ColorScheme-Text"
     d="M 8 0 L 8 13.556641 L 11.082031 15.724609 C 11.093181 15.732509 11.105628 15.738804 11.117188 15.746094 C 11.725303 16.131877 12.481047 16.073502 13.019531 15.607422 C 13.022831 15.604522 13.02803 15.602609 13.03125 15.599609 C 13.479358 15.198041 13.646898 14.610807 13.46875 14.041016 C 13.46755 14.037116 13.466144 14.031294 13.464844 14.027344 L 12.298828 10.042969 L 15.302734 7.9042969 C 16.098889 7.3817117 16.232435 6.2788399 15.605469 5.578125 C 15.315568 5.2344883 14.903593 5.0280735 14.447266 5.0136719 C 14.438966 5.0135417 14.430175 5.0135417 14.421875 5.0136719 L 10.601562 5.0136719 L 9.4765625 1.1328125 C 9.2351857 0.43260153 8.7211854 0.010036087 8 0 z " /><path
     id="path5-3"
     style="color:#6e6e6e;fill:#444444;fill-opacity:1"
     class="ColorScheme-Text"
     d="M 8 0 C 7.2788157 0.010035992 6.7648093 0.43264353 6.5234375 1.1328125 L 5.3984375 5.0136719 L 1.578125 5.0136719 C 1.569825 5.0135418 1.5610644 5.0135418 1.5527344 5.0136719 C 1.0964048 5.0280719 0.68443196 5.2344885 0.39453125 5.578125 C -0.23243612 6.2788399 -0.098889579 7.3817116 0.69726562 7.9042969 L 3.7011719 10.042969 L 2.5351562 14.027344 C 2.5338563 14.031244 2.53245 14.035113 2.53125 14.039062 C 2.3531022 14.608854 2.5206464 15.198051 2.96875 15.599609 C 2.97195 15.602609 2.9771488 15.604522 2.9804688 15.607422 C 3.5189532 16.073502 4.2746971 16.131877 4.8828125 15.746094 C 4.8943825 15.738794 4.9068188 15.732499 4.9179688 15.724609 L 8 13.556641 L 8 0 z " /></svg>
