<?xml version="1.0" encoding="UTF-8" standalone="no"?>
<svg
   width="16"
   height="16"
   version="1.1"
   id="svg6"
   xml:space="preserve"
   xmlns="http://www.w3.org/2000/svg"
   xmlns:svg="http://www.w3.org/2000/svg"><defs
     id="defs10" /><g
     id="g604"><path
       id="path234"
       style="fill:#444444"
       d="M 1.2246094 1.5 L 1.1386719 1.5859375 L 3.0527344 3.5 L 14 3.5 L 14 9.5 L 9.0527344 9.5 L 10.052734 10.5 L 14 10.5 L 14 12.5 L 12.052734 12.5 L 14.052734 14.5 L 15 14.5 C 15 14.5 16 14.499999 16 13.5 L 16 2.5 C 16 1.500002 15 1.5 15 1.5 L 1.2246094 1.5 z M 0.001953125 2.4746094 C 0.0018865366 2.4777619 6.0715261e-18 2.5 0 2.5 L 0 13.5 C 0 13.5 1.999999e-06 14.5 1 14.5 L 12.027344 14.5 L 10.027344 12.5 L 9 12.5 L 9 11.472656 L 7.0273438 9.5 L 2 9.5 L 2 4.4726562 L 0.001953125 2.4746094 z M 2 10.5 L 7 10.5 L 7 12.5 L 2 12.5 L 2 10.5 z " /><path
       id="path2-5"
       style="fill:#444444;fill-opacity:1"
       d="M 1.075,1.625041 14.874979,15.425021 15.937021,14.362979 15.605214,14.031174 12.605535,11.031495 11.605642,10.031602 8.6059639,7.031922 5.4930359,3.918995 2.1370409,0.563 Z" /></g></svg>
