<?xml version="1.0" encoding="UTF-8" standalone="no"?>
<svg
   width="16"
   height="16"
   version="1.1"
   id="svg4"
   sodipodi:docname="touch-disabled-symbolic.svg"
   xml:space="preserve"
   inkscape:version="1.2.1 (9c6d41e410, 2022-07-14)"
   xmlns:inkscape="http://www.inkscape.org/namespaces/inkscape"
   xmlns:sodipodi="http://sodipodi.sourceforge.net/DTD/sodipodi-0.dtd"
   xmlns="http://www.w3.org/2000/svg"
   xmlns:svg="http://www.w3.org/2000/svg"><defs
     id="defs8" /><sodipodi:namedview
     id="namedview6"
     pagecolor="#ffffff"
     bordercolor="#ffffff"
     borderopacity="1"
     inkscape:showpageshadow="0"
     inkscape:pageopacity="0"
     inkscape:pagecheckerboard="1"
     inkscape:deskcolor="#505050"
     showgrid="false"
     inkscape:zoom="23.931145"
     inkscape:cx="-0.5014386"
     inkscape:cy="4.9308129"
     inkscape:window-width="2560"
     inkscape:window-height="1358"
     inkscape:window-x="0"
     inkscape:window-y="0"
     inkscape:window-maximized="1"
     inkscape:current-layer="svg4" /><g
     id="g662"><path
       id="path287"
       style="stroke-width:0.0712021;fill:#444444;fill-opacity:1"
       d="M 8.3105469 0.41796875 A 7.6710131 7.6710131 0 0 0 5.7460938 0.85546875 A 0.8546395 0.8546395 0 1 0 6.3164062 2.4667969 A 5.9856849 5.9856849 0 0 1 14.291016 8.1074219 A 19.767059 19.767059 0 0 1 13.804688 12.474609 A 0.85439897 0.85439897 0 1 0 15.470703 12.853516 A 21.474616 21.474616 0 0 0 16 8.1074219 A 7.698496 7.698496 0 0 0 8.3105469 0.41796875 z M 3.8964844 2.1699219 A 0.85441251 0.85441251 0 0 0 3.1835938 2.3769531 A 7.7014253 7.7014253 0 0 0 2.6738281 2.9023438 L 3.8847656 4.1132812 A 5.990768 5.990768 0 0 1 4.3222656 3.6484375 A 0.85441251 0.85441251 0 0 0 3.8964844 2.1699219 z M 8.46875 3.8378906 A 4.2721988 4.2721988 0 0 0 5.0957031 5.3242188 L 6.3105469 6.5390625 A 2.5661653 2.5661653 0 0 1 8.3105469 5.5449219 A 2.5674869 2.5674869 0 0 1 10.220703 6.3984375 A 0.85445791 0.85445791 0 1 0 11.494141 5.2597656 A 4.2721988 4.2721988 0 0 0 8.46875 3.8378906 z M 1.7871094 4.0429688 A 7.7014253 7.7014253 0 0 0 0.62109375 8.1074219 A 5.9315094 5.9315094 0 0 1 0.078125 10.599609 A 0.85441011 0.85441011 0 1 0 1.6308594 11.3125 A 7.6283919 7.6283919 0 0 0 2.3300781 8.1074219 A 5.990768 5.990768 0 0 1 3.0410156 5.296875 L 1.7871094 4.0429688 z M 4.3320312 6.5878906 A 4.2721988 4.2721988 0 0 0 4.0371094 8.1074219 A 9.404946 9.404946 0 0 1 2.8652344 12.658203 A 0.85439958 0.85439958 0 1 0 4.359375 13.486328 A 11.117271 11.117271 0 0 0 5.7460938 8.1074219 A 2.5661653 2.5661653 0 0 1 5.7578125 8.0136719 L 4.3320312 6.5878906 z M 8.3085938 7.2539062 A 0.85446711 0.85446711 0 0 0 7.5332031 7.7617188 L 9.1113281 9.3398438 A 14.575021 14.575021 0 0 0 9.1640625 8.1074219 A 0.85446638 0.85446638 0 0 0 8.3085938 7.2539062 z M 11.537109 7.2773438 A 0.85442438 0.85442438 0 0 0 10.873047 8.1074219 A 16.143321 16.143321 0 0 1 10.640625 10.869141 L 11.525391 11.753906 L 12.085938 12.314453 A 17.84347 17.84347 0 0 0 12.582031 8.1074219 A 0.85442438 0.85442438 0 0 0 11.537109 7.2773438 z M 7.3671875 9.6230469 A 12.865296 12.865296 0 0 1 7.0507812 11.3125 A 0.85505171 0.85505171 0 1 0 8.7070312 11.738281 A 14.575021 14.575021 0 0 0 8.8535156 11.109375 L 7.3671875 9.6230469 z M 10.265625 12.521484 A 16.143321 16.143321 0 0 1 9.6601562 14.275391 A 0.85525301 0.85525301 0 1 0 11.242188 14.925781 A 17.84347 17.84347 0 0 0 11.630859 13.886719 L 10.265625 12.521484 z M 7.1015625 12.949219 A 0.85441084 0.85441084 0 0 0 6.2929688 13.447266 C 6.1587719 13.739583 6.0120596 14.030126 5.8554688 14.3125 A 0.85461774 0.85461774 0 1 0 7.3496094 15.142578 C 7.5270602 14.822517 7.6934993 14.491689 7.8457031 14.160156 A 0.85443218 0.85443218 0 0 0 7.4257812 13.027344 A 0.85441084 0.85441084 0 0 0 7.1015625 12.949219 z " /><path
       id="path2-5"
       style="fill:#444444;fill-opacity:1"
       d="M 1.0552025,1.2865773 15.055087,15.286464 16.117129,14.224422 15.585417,13.692711 12.585738,10.693032 11.585845,9.6931383 8.5861665,6.6934583 5.4732385,3.5805313 2.1172435,0.22453628 Z" /></g></svg>
