<?xml version="1.0" encoding="UTF-8" standalone="no"?>
<svg
   width="32"
   height="32"
   version="1.1"
   id="svg10"
   sodipodi:docname="emblem-unreadable.svg"
   xml:space="preserve"
   inkscape:version="1.2.1 (9c6d41e410, 2022-07-14)"
   xmlns:inkscape="http://www.inkscape.org/namespaces/inkscape"
   xmlns:sodipodi="http://sodipodi.sourceforge.net/DTD/sodipodi-0.dtd"
   xmlns="http://www.w3.org/2000/svg"
   xmlns:svg="http://www.w3.org/2000/svg"><defs
     id="defs14" /><sodipodi:namedview
     id="namedview12"
     pagecolor="#505050"
     bordercolor="#ffffff"
     borderopacity="1"
     inkscape:showpageshadow="0"
     inkscape:pageopacity="0"
     inkscape:pagecheckerboard="1"
     inkscape:deskcolor="#505050"
     showgrid="false"
     inkscape:zoom="4.2304688"
     inkscape:cx="-57.558633"
     inkscape:cy="8.5096953"
     inkscape:window-width="2560"
     inkscape:window-height="1358"
     inkscape:window-x="0"
     inkscape:window-y="0"
     inkscape:window-maximized="1"
     inkscape:current-layer="svg10" /><rect
     style="fill:#1e1e1e;fill-opacity:1;stroke-width:1.91045"
     id="rect303"
     width="30"
     height="30"
     x="1"
     y="1"
     rx="5"
     ry="5" /><path
     d="m 8,4.0000106 c -1.06247,0 -2.07811,0.421876 -2.82811,1.171875 -1.56252,1.562499 -1.56252,4.093745 0,5.6562434 L 10.34376,16 5.17189,21.171872 c -1.56252,1.562498 -1.56252,4.093744 0,5.656243 1.56248,1.562499 4.09375,1.562499 5.65623,0 L 16,21.656243 l 5.17187,5.171872 c 1.56248,1.562499 4.09376,1.562499 5.65624,0 1.56252,-1.562499 1.56252,-4.093745 0,-5.656243 L 21.65623,16 26.82811,10.828129 c 1.56252,-1.5624984 1.56252,-4.0937444 0,-5.6562434 -0.75,-0.749999 -1.7656,-1.171875 -2.82812,-1.171875 -1.06248,0 -2.07812,0.421876 -2.82812,1.171875 L 16,10.343758 10.82812,5.1718856 C 10.07812,4.4218866 9.06252,4.0000106 8,4.0000106 Z m 0,0"
     id="path2"
     style="fill:#cccccc;fill-opacity:1;stroke-width:4" /></svg>
