<?xml version="1.0" encoding="UTF-8" standalone="no"?>
<svg
   width="32"
   height="32"
   version="1.1"
   id="svg6"
   sodipodi:docname="emblem-photos.svg"
   xml:space="preserve"
   inkscape:version="1.2.1 (9c6d41e410, 2022-07-14)"
   xmlns:inkscape="http://www.inkscape.org/namespaces/inkscape"
   xmlns:sodipodi="http://sodipodi.sourceforge.net/DTD/sodipodi-0.dtd"
   xmlns="http://www.w3.org/2000/svg"
   xmlns:svg="http://www.w3.org/2000/svg"><defs
     id="defs10" /><sodipodi:namedview
     id="namedview8"
     pagecolor="#505050"
     bordercolor="#ffffff"
     borderopacity="1"
     inkscape:showpageshadow="0"
     inkscape:pageopacity="0"
     inkscape:pagecheckerboard="1"
     inkscape:deskcolor="#505050"
     showgrid="false"
     inkscape:zoom="5.9827863"
     inkscape:cx="-58.417597"
     inkscape:cy="21.896152"
     inkscape:window-width="2560"
     inkscape:window-height="1358"
     inkscape:window-x="0"
     inkscape:window-y="0"
     inkscape:window-maximized="1"
     inkscape:current-layer="svg6" /><rect
     style="fill:#1e1e1e;fill-opacity:1;stroke-width:1.91045"
     id="rect303"
     width="30"
     height="30"
     x="1"
     y="1"
     rx="5"
     ry="5" /><path
     id="path237"
     style="fill:#cccccc;fill-opacity:1;stroke-width:1.2"
     d="m 13.748047,4.9013671 c -0.938553,0 -1.809673,0.487311 -2.300781,1.28711 l -1.050782,1.708984 H 7.90039 C 5.746479,7.8974611 4,9.6439501 4,11.797852 v 11.40039 c 0,2.153876 1.746479,3.900391 3.90039,3.900391 H 24.101562 C 26.25544,27.098633 28,25.352118 28,23.198242 V 11.797852 C 28,9.6439501 26.25544,7.8974611 24.101562,7.8974611 h -2.486328 l -0.976562,-1.664062 c -0.4848,-0.82548 -1.370766,-1.332032 -2.328125,-1.332032 z M 16,11.497071 c 2.982357,0 5.40039,2.418033 5.40039,5.40039 10e-7,2.982357 -2.418033,5.400391 -5.40039,5.400391 -2.982323,0 -5.398438,-2.418034 -5.398438,-5.400391 0,-2.982357 2.416115,-5.40039 5.398438,-5.40039 z" /></svg>
