<?xml version="1.0" encoding="UTF-8" standalone="no"?>
<svg
   width="32"
   height="32"
   version="1.1"
   id="svg6"
   xml:space="preserve"
   xmlns="http://www.w3.org/2000/svg"
   xmlns:svg="http://www.w3.org/2000/svg"><defs
     id="defs10" /><rect
     style="fill:#1e1e1e;fill-opacity:1;stroke-width:1.91045"
     id="rect303"
     width="30"
     height="30"
     x="1"
     y="1"
     rx="5"
     ry="5" /><g
     id="g298"
     transform="matrix(0.52515262,0,0,0.52515262,4.0000001,4.0002626)"
     style="fill:#cccccc"><g
       id="g243"
       style="fill:#cccccc">
	<g
   id="g241"
   style="fill:#cccccc">
		<path
   d="m 20.687,38.332 c -2.072,2.072 -5.434,2.072 -7.505,0 L 1.554,26.704 c -2.072,-2.071 -2.072,-5.433 0,-7.504 2.071,-2.072 5.433,-2.072 7.505,0 l 6.928,6.927 c 0.523,0.522 1.372,0.522 1.896,0 L 36.642,7.368 c 2.071,-2.072 5.433,-2.072 7.505,0 0.995,0.995 1.554,2.345 1.554,3.752 0,1.407 -0.559,2.757 -1.554,3.752 z"
   id="path239"
   style="fill:#cccccc" />
	</g>
</g><g
       id="g245"
       style="fill:#cccccc">
</g><g
       id="g247"
       style="fill:#cccccc">
</g><g
       id="g249"
       style="fill:#cccccc">
</g><g
       id="g251"
       style="fill:#cccccc">
</g><g
       id="g253"
       style="fill:#cccccc">
</g><g
       id="g255"
       style="fill:#cccccc">
</g><g
       id="g257"
       style="fill:#cccccc">
</g><g
       id="g259"
       style="fill:#cccccc">
</g><g
       id="g261"
       style="fill:#cccccc">
</g><g
       id="g263"
       style="fill:#cccccc">
</g><g
       id="g265"
       style="fill:#cccccc">
</g><g
       id="g267"
       style="fill:#cccccc">
</g><g
       id="g269"
       style="fill:#cccccc">
</g><g
       id="g271"
       style="fill:#cccccc">
</g><g
       id="g273"
       style="fill:#cccccc">
</g></g></svg>
