<?xml version="1.0" encoding="UTF-8" standalone="no"?>
<svg
   width="32"
   height="32"
   version="1.1"
   id="svg6"
   sodipodi:docname="emblem-mail.svg"
   xml:space="preserve"
   inkscape:version="1.2.1 (9c6d41e410, 2022-07-14)"
   xmlns:inkscape="http://www.inkscape.org/namespaces/inkscape"
   xmlns:sodipodi="http://sodipodi.sourceforge.net/DTD/sodipodi-0.dtd"
   xmlns="http://www.w3.org/2000/svg"
   xmlns:svg="http://www.w3.org/2000/svg"><defs
     id="defs10" /><sodipodi:namedview
     id="namedview8"
     pagecolor="#505050"
     bordercolor="#ffffff"
     borderopacity="1"
     inkscape:showpageshadow="0"
     inkscape:pageopacity="0"
     inkscape:pagecheckerboard="1"
     inkscape:deskcolor="#505050"
     showgrid="false"
     inkscape:zoom="8.4609375"
     inkscape:cx="-49.344414"
     inkscape:cy="19.383195"
     inkscape:window-width="2560"
     inkscape:window-height="1358"
     inkscape:window-x="0"
     inkscape:window-y="0"
     inkscape:window-maximized="1"
     inkscape:current-layer="svg6" /><rect
     style="fill:#1e1e1e;fill-opacity:1;stroke-width:1.91045"
     id="rect303"
     width="30"
     height="30"
     x="1"
     y="1"
     rx="5"
     ry="5" /><path
     style="fill:#cccccc;stroke-width:1.49996"
     d="M 15.999924,4.0006002 C 9.3726405,4.0006002 4.0002245,9.373016 4.0002245,16.0003 4.0002245,22.627585 9.3726405,28 15.999925,28 h 7.499813 c 0,0 1.406215,0 1.499963,-1.499962 0,-1.499963 -1.499963,-1.499963 -1.499963,-1.499963 h -7.499813 c -4.970426,0 -8.9997755,-4.029349 -8.9997755,-8.999775 0,-4.970425 4.0293495,-8.9997747 8.9997755,-8.9997747 4.970426,0 8.999776,4.0293497 8.999776,8.9997747 v 1.499963 c 0,0.828399 -0.671564,1.499962 -1.499963,1.499962 -0.828399,0 -1.499962,-0.671563 -1.499962,-1.499962 V 16.0003 c 0,-3.313567 -2.686283,-5.999849 -5.999851,-5.999849 -3.313567,0 -5.99985,2.686282 -5.99985,5.999849 0,3.313567 2.686283,5.99985 5.99985,5.99985 1.569261,0 2.985376,-0.616334 4.054549,-1.60256 0.854979,1.015475 2.116447,1.60196 3.445414,1.60196 2.485138,0 4.499888,-2.014749 4.499888,-4.499887 V 15.9997 c 0,-6.6268339 -5.372866,-11.9996997 -11.999701,-11.9996997 z m 0,8.9997748 c 1.656859,0 2.999925,1.343111 2.999925,2.999925 0,1.656814 -1.343111,2.999925 -2.999925,2.999925 C 14.343111,19.000225 13,17.657114 13,16.0003 c 0,-1.656814 1.343112,-2.999925 2.999924,-2.999925 z"
     id="path4" /></svg>
