<?xml version="1.0" encoding="UTF-8" standalone="no"?>
<svg
   id="svg6"
   version="1.1"
   height="32"
   width="32"
   xml:space="preserve"
   xmlns="http://www.w3.org/2000/svg"
   xmlns:svg="http://www.w3.org/2000/svg"
   xmlns:rdf="http://www.w3.org/1999/02/22-rdf-syntax-ns#"
   xmlns:cc="http://creativecommons.org/ns#"
   xmlns:dc="http://purl.org/dc/elements/1.1/"><metadata
     id="metadata12"><rdf:RDF><cc:Work
         rdf:about=""><dc:format>image/svg+xml</dc:format><dc:type
           rdf:resource="http://purl.org/dc/dcmitype/StillImage" /></cc:Work></rdf:RDF></metadata><defs
     id="defs10" /><rect
     style="fill:#1e1e1e;fill-opacity:1;stroke-width:1.91045"
     id="rect303"
     width="30"
     height="30"
     x="1"
     y="1"
     rx="5"
     ry="5" /><g
     id="g168"
     transform="matrix(-0.04546741,0.04545261,0.04546741,0.04545261,16.474784,-6.9129448)"
     style="fill:#cccccc;fill-opacity:1"><g
       id="g114"
       style="fill:#cccccc;fill-opacity:1">
	<path
   d="m 487.267,225.981 c 0,-17.365 -13.999,-31.518 -31.518,-31.518 H 194.501 L 305.35,83.615 c 12.24,-12.24 12.24,-32.207 0,-44.676 L 275.592,9.18 c -12.24,-12.24 -32.207,-12.24 -44.676,0 L 15.568,224.527 c -6.12,6.12 -9.256,14.153 -9.256,22.262 0,8.032 3.136,16.142 9.256,22.262 l 215.348,215.348 c 12.24,12.239 32.207,12.239 44.676,0 L 305.35,454.64 c 12.24,-12.24 12.24,-32.207 0,-44.676 L 194.501,299.498 h 261.094 c 17.366,0 31.519,-14.153 31.519,-31.519 z"
   id="path112"
   style="fill:#cccccc;fill-opacity:1" />
</g><g
       id="g116"
       style="fill:#cccccc;fill-opacity:1">
</g><g
       id="g118"
       style="fill:#cccccc;fill-opacity:1">
</g><g
       id="g120"
       style="fill:#cccccc;fill-opacity:1">
</g><g
       id="g122"
       style="fill:#cccccc;fill-opacity:1">
</g><g
       id="g124"
       style="fill:#cccccc;fill-opacity:1">
</g><g
       id="g126"
       style="fill:#cccccc;fill-opacity:1">
</g><g
       id="g128"
       style="fill:#cccccc;fill-opacity:1">
</g><g
       id="g130"
       style="fill:#cccccc;fill-opacity:1">
</g><g
       id="g132"
       style="fill:#cccccc;fill-opacity:1">
</g><g
       id="g134"
       style="fill:#cccccc;fill-opacity:1">
</g><g
       id="g136"
       style="fill:#cccccc;fill-opacity:1">
</g><g
       id="g138"
       style="fill:#cccccc;fill-opacity:1">
</g><g
       id="g140"
       style="fill:#cccccc;fill-opacity:1">
</g><g
       id="g142"
       style="fill:#cccccc;fill-opacity:1">
</g><g
       id="g144"
       style="fill:#cccccc;fill-opacity:1">
</g></g></svg>
