<?xml version="1.0" encoding="UTF-8" standalone="no"?>
<svg
   width="32"
   height="32"
   version="1.1"
   id="svg6"
   sodipodi:docname="emblem-readonly.svg"
   xml:space="preserve"
   inkscape:version="1.2.1 (9c6d41e410, 2022-07-14)"
   xmlns:inkscape="http://www.inkscape.org/namespaces/inkscape"
   xmlns:sodipodi="http://sodipodi.sourceforge.net/DTD/sodipodi-0.dtd"
   xmlns="http://www.w3.org/2000/svg"
   xmlns:svg="http://www.w3.org/2000/svg"><defs
     id="defs10" /><sodipodi:namedview
     id="namedview8"
     pagecolor="#505050"
     bordercolor="#ffffff"
     borderopacity="1"
     inkscape:showpageshadow="0"
     inkscape:pageopacity="0"
     inkscape:pagecheckerboard="1"
     inkscape:deskcolor="#505050"
     showgrid="false"
     inkscape:zoom="8.4609375"
     inkscape:cx="-29.015697"
     inkscape:cy="9.5734072"
     inkscape:window-width="2560"
     inkscape:window-height="1358"
     inkscape:window-x="0"
     inkscape:window-y="0"
     inkscape:window-maximized="1"
     inkscape:current-layer="svg6" /><g
     id="g247"
     transform="matrix(0.56279899,0,0,0.56279899,-175.70355,-0.257938)">
</g><g
     id="g249"
     transform="matrix(0.56279899,0,0,0.56279899,-175.70355,-0.257938)">
</g><g
     id="g251"
     transform="matrix(0.56279899,0,0,0.56279899,-175.70355,-0.257938)">
</g><g
     id="g253"
     transform="matrix(0.56279899,0,0,0.56279899,-175.70355,-0.257938)">
</g><g
     id="g255"
     transform="matrix(0.56279899,0,0,0.56279899,-175.70355,-0.257938)">
</g><g
     id="g257"
     transform="matrix(0.56279899,0,0,0.56279899,-175.70355,-0.257938)">
</g><g
     id="g259"
     transform="matrix(0.56279899,0,0,0.56279899,-175.70355,-0.257938)">
</g><g
     id="g261"
     transform="matrix(0.56279899,0,0,0.56279899,-175.70355,-0.257938)">
</g><g
     id="g263"
     transform="matrix(0.56279899,0,0,0.56279899,-175.70355,-0.257938)">
</g><g
     id="g265"
     transform="matrix(0.56279899,0,0,0.56279899,-175.70355,-0.257938)">
</g><g
     id="g267"
     transform="matrix(0.56279899,0,0,0.56279899,-175.70355,-0.257938)">
</g><g
     id="g269"
     transform="matrix(0.56279899,0,0,0.56279899,-175.70355,-0.257938)">
</g><g
     id="g271"
     transform="matrix(0.56279899,0,0,0.56279899,-175.70355,-0.257938)">
</g><g
     id="g273"
     transform="matrix(0.56279899,0,0,0.56279899,-175.70355,-0.257938)">
</g><g
     id="g275"
     transform="matrix(0.56279899,0,0,0.56279899,-175.70355,-0.257938)">
</g><rect
     style="fill:#1e1e1e;fill-opacity:1;stroke-width:1.91045"
     id="rect303"
     width="30"
     height="30"
     x="1"
     y="1"
     rx="5"
     ry="5" /><path
     style="fill:#cccccc;stroke-width:1.5"
     d="M 16,4 C 11.799998,4 8.2859115,6.004584 8.5000065,10.999995 v 3.500006 h -1.250007 c -0.9695,0 -1.750001,0.700285 -1.750001,1.65 V 26.285714 C 5.4999985,27.235429 6.2804995,28 7.2499995,28 H 24.75 c 0.9695,0 1.750001,-0.764571 1.750001,-1.714286 V 16.150001 c 0,-0.949715 -0.766589,-1.65 -1.750001,-1.65 H 23.499993 V 10.999995 C 23.499993,6.000006 20.2,4 16,4 Z m 0,3 c 2.1,0 4.500002,0.721115 4.500002,3.999995 v 3.500006 H 11.499997 V 10.999995 C 11.499997,7.753566 13.899999,7 16,7 Z"
     id="path4" /></svg>
