<?xml version="1.0" encoding="UTF-8" standalone="no"?>
<svg
   width="32"
   height="32"
   version="1.1"
   id="svg8"
   sodipodi:docname="emblem-added.svg"
   xml:space="preserve"
   inkscape:version="1.2.1 (9c6d41e410, 2022-07-14)"
   xmlns:inkscape="http://www.inkscape.org/namespaces/inkscape"
   xmlns:sodipodi="http://sodipodi.sourceforge.net/DTD/sodipodi-0.dtd"
   xmlns="http://www.w3.org/2000/svg"
   xmlns:svg="http://www.w3.org/2000/svg"><defs
     id="defs12" /><sodipodi:namedview
     id="namedview10"
     pagecolor="#505050"
     bordercolor="#ffffff"
     borderopacity="1"
     inkscape:showpageshadow="0"
     inkscape:pageopacity="0"
     inkscape:pagecheckerboard="1"
     inkscape:deskcolor="#505050"
     showgrid="false"
     inkscape:zoom="23.931145"
     inkscape:cx="4.6592004"
     inkscape:cy="16.254968"
     inkscape:window-width="2560"
     inkscape:window-height="1358"
     inkscape:window-x="0"
     inkscape:window-y="0"
     inkscape:window-maximized="1"
     inkscape:current-layer="svg8" /><circle
     style="fill:#252a35"
     cx="16"
     cy="16"
     r="14"
     id="circle2" /><rect
     style="fill:#1e1e1e;fill-opacity:1;stroke-width:1.91045"
     id="rect303"
     width="30"
     height="30"
     x="1"
     y="1"
     rx="5"
     ry="5" /><path
     d="m 28.000016,14.361255 v 3.275906 c 0,0.890508 -0.747446,1.637954 -1.637953,1.637954 l -7.084657,0.0015 v 7.083197 c 0,0.890509 -0.747445,1.637954 -1.637953,1.637954 l -3.277366,0.0015 c -0.890508,0 -1.637953,-0.747445 -1.637953,-1.637953 l -0.0015,-7.084656 H 5.639437 c -0.890508,0 -1.637953,-0.747446 -1.637953,-1.637954 l -0.0015,-3.277366 c 0,-0.890507 0.747446,-1.637952 1.637953,-1.637952 l 7.084657,-0.0015 V 5.6386874 c 0,-0.8905081 0.747445,-1.6379532 1.637953,-1.6379532 l 3.275907,-2e-7 c 0.890508,0 1.637953,0.7474452 1.637953,1.6379533 l 0.0029,7.0831977 h 7.083198 c 0.891967,0.0015 1.637953,0.747445 1.639412,1.639412 z"
     id="path362"
     style="fill:#cccccc;stroke-width:0.0206454" /></svg>
