<?xml version="1.0" encoding="UTF-8" standalone="no"?>
<svg
   width="32"
   height="32"
   version="1.1"
   id="svg482"
   sodipodi:docname="emblem-encrypted-unlocked.svg"
   xml:space="preserve"
   inkscape:version="1.2.1 (9c6d41e410, 2022-07-14)"
   xmlns:inkscape="http://www.inkscape.org/namespaces/inkscape"
   xmlns:sodipodi="http://sodipodi.sourceforge.net/DTD/sodipodi-0.dtd"
   xmlns="http://www.w3.org/2000/svg"
   xmlns:svg="http://www.w3.org/2000/svg"><defs
     id="defs486"><style
       type="text/css"
       id="current-color-scheme">
      .ColorScheme-Text {
        color:#122036;
      }
      </style><style
       type="text/css"
       id="current-color-scheme-3">
      .ColorScheme-Text {
        color:#122036;
      }
      </style><style
       type="text/css"
       id="current-color-scheme-7">
      .ColorScheme-Text {
        color:#122036;
      }
      </style></defs><sodipodi:namedview
     id="namedview484"
     pagecolor="#505050"
     bordercolor="#ffffff"
     borderopacity="1"
     inkscape:showpageshadow="0"
     inkscape:pageopacity="0"
     inkscape:pagecheckerboard="1"
     inkscape:deskcolor="#505050"
     showgrid="false"
     inkscape:zoom="8.4609374"
     inkscape:cx="-21.215143"
     inkscape:cy="1.1819021"
     inkscape:window-width="2560"
     inkscape:window-height="1358"
     inkscape:window-x="0"
     inkscape:window-y="0"
     inkscape:window-maximized="1"
     inkscape:current-layer="svg482" /><rect
     style="fill:#1e1e1e;fill-opacity:1;stroke-width:1.91045"
     id="rect303"
     width="30"
     height="30"
     x="1"
     y="1"
     rx="5"
     ry="5" /><path
     d="m 20.786351,5.9827839 c -2.643712,-2.643712 -6.928991,-2.6437123 -9.572703,-8e-7 -2.6437107,2.6437122 -2.6437107,6.9289909 1e-6,9.5727029 0.800226,0.79273 1.787403,1.376076 2.871811,1.690179 v 1.181632 l -1.914542,1.91454 1.914541,1.91454 -1.914541,1.914541 L 16,28 18.871811,25.128189 V 16.87921 c 0.710473,-0.32906 1.357379,-0.774042 1.914541,-1.323724 2.643711,-2.643712 2.64371,-6.9289907 -1e-6,-9.5727021 z M 16.95727,7.8973233 c 0.527247,0.527247 0.527247,1.387295 0,1.914541 -0.527246,0.5272467 -1.387294,0.5272467 -1.91454,0 -0.527247,-0.527246 -0.527247,-1.387294 -1e-6,-1.91454 0.527247,-0.527247 1.387295,-0.527247 1.914541,-1e-6 z m 0,0"
     id="path2"
     style="fill:#ff2a2a;fill-opacity:1;stroke-width:1.35379" /></svg>
