<?xml version="1.0" encoding="UTF-8" standalone="no"?>
<svg
   width="32"
   height="32"
   version="1"
   id="svg10"
   xml:space="preserve"
   xmlns="http://www.w3.org/2000/svg"
   xmlns:svg="http://www.w3.org/2000/svg"><defs
     id="defs14">
	
</defs><g
     id="g247"
     transform="matrix(0.56279899,0,0,0.56279899,-39.369632,12.387138)">
</g><g
     id="g249"
     transform="matrix(0.56279899,0,0,0.56279899,-39.369632,12.387138)">
</g><g
     id="g251"
     transform="matrix(0.56279899,0,0,0.56279899,-39.369632,12.387138)">
</g><g
     id="g253"
     transform="matrix(0.56279899,0,0,0.56279899,-39.369632,12.387138)">
</g><g
     id="g255"
     transform="matrix(0.56279899,0,0,0.56279899,-39.369632,12.387138)">
</g><g
     id="g257"
     transform="matrix(0.56279899,0,0,0.56279899,-39.369632,12.387138)">
</g><g
     id="g259"
     transform="matrix(0.56279899,0,0,0.56279899,-39.369632,12.387138)">
</g><g
     id="g261"
     transform="matrix(0.56279899,0,0,0.56279899,-39.369632,12.387138)">
</g><g
     id="g263"
     transform="matrix(0.56279899,0,0,0.56279899,-39.369632,12.387138)">
</g><g
     id="g265"
     transform="matrix(0.56279899,0,0,0.56279899,-39.369632,12.387138)">
</g><g
     id="g267"
     transform="matrix(0.56279899,0,0,0.56279899,-39.369632,12.387138)">
</g><g
     id="g269"
     transform="matrix(0.56279899,0,0,0.56279899,-39.369632,12.387138)">
</g><g
     id="g271"
     transform="matrix(0.56279899,0,0,0.56279899,-39.369632,12.387138)">
</g><g
     id="g273"
     transform="matrix(0.56279899,0,0,0.56279899,-39.369632,12.387138)">
</g><g
     id="g275"
     transform="matrix(0.56279899,0,0,0.56279899,-39.369632,12.387138)">
</g><rect
     style="fill:#1e1e1e;fill-opacity:1;stroke-width:1.91045"
     id="rect303"
     width="30"
     height="30"
     x="1"
     y="1"
     rx="5"
     ry="5" /><g
     id="g479"
     transform="translate(-0.33135415,-1.8603669)"><path
       style="fill:#cccccc;stroke-width:0.768285"
       d="m 4.3313544,9.045166 c 0,-1.48268 1.575025,-2.6847993 3.5176429,-2.6847993 H 24.81371 c 1.942619,0 3.517644,1.2021193 3.517644,2.6847993 0,1.482681 -1.575025,2.684799 -3.517644,2.684799 H 7.8489973 c -1.9426179,0 -3.5176429,-1.202118 -3.5176429,-2.684799 z"
       id="path383" /><path
       style="fill:#cccccc;stroke-width:0.768285"
       d="m 28.331354,17.860368 c 0,1.482678 -1.575025,2.684797 -3.517644,2.684797 H 7.8489973 c -1.942618,0 -3.517643,-1.202119 -3.517643,-2.684797 0,-1.48268 1.575025,-2.6848 3.517643,-2.6848 H 24.81371 c 1.942619,0 3.517644,1.20212 3.517644,2.6848 z"
       id="path379" /><path
       style="fill:#cccccc;stroke-width:0.768285"
       d="m 28.331354,26.675567 c 0,1.48268 -1.575025,2.6848 -3.517644,2.6848 H 7.8489973 c -1.942618,0 -3.517643,-1.20212 -3.517643,-2.6848 0,-1.48268 1.575025,-2.684799 3.517643,-2.684799 H 24.81371 c 1.942619,0 3.517644,1.202119 3.517644,2.684799 z"
       id="path375" /></g></svg>
