<?xml version="1.0" encoding="UTF-8" standalone="no"?>
<svg
   width="32"
   height="32"
   version="1.1"
   id="svg6"
   xml:space="preserve"
   xmlns="http://www.w3.org/2000/svg"
   xmlns:svg="http://www.w3.org/2000/svg"><defs
     id="defs10" /><g
     id="g247"
     transform="matrix(0.56279899,0,0,0.56279899,-82.52534,10.423502)">
</g><g
     id="g249"
     transform="matrix(0.56279899,0,0,0.56279899,-82.52534,10.423502)">
</g><g
     id="g251"
     transform="matrix(0.56279899,0,0,0.56279899,-82.52534,10.423502)">
</g><g
     id="g253"
     transform="matrix(0.56279899,0,0,0.56279899,-82.52534,10.423502)">
</g><g
     id="g255"
     transform="matrix(0.56279899,0,0,0.56279899,-82.52534,10.423502)">
</g><g
     id="g257"
     transform="matrix(0.56279899,0,0,0.56279899,-82.52534,10.423502)">
</g><g
     id="g259"
     transform="matrix(0.56279899,0,0,0.56279899,-82.52534,10.423502)">
</g><g
     id="g261"
     transform="matrix(0.56279899,0,0,0.56279899,-82.52534,10.423502)">
</g><g
     id="g263"
     transform="matrix(0.56279899,0,0,0.56279899,-82.52534,10.423502)">
</g><g
     id="g265"
     transform="matrix(0.56279899,0,0,0.56279899,-82.52534,10.423502)">
</g><g
     id="g267"
     transform="matrix(0.56279899,0,0,0.56279899,-82.52534,10.423502)">
</g><g
     id="g269"
     transform="matrix(0.56279899,0,0,0.56279899,-82.52534,10.423502)">
</g><g
     id="g271"
     transform="matrix(0.56279899,0,0,0.56279899,-82.52534,10.423502)">
</g><g
     id="g273"
     transform="matrix(0.56279899,0,0,0.56279899,-82.52534,10.423502)">
</g><g
     id="g275"
     transform="matrix(0.56279899,0,0,0.56279899,-82.52534,10.423502)">
</g><g
     id="g364"
     transform="translate(43.155708,1.9636363)"><rect
       style="fill:#1e1e1e;fill-opacity:1;stroke-width:1.91045"
       id="rect303"
       width="30"
       height="30"
       x="-42.155708"
       y="-0.96363628"
       rx="5"
       ry="5" /><path
       style="fill:#cccccc;stroke-width:0.768285"
       d="m -15.155708,14.036365 c 0,1.482678 -1.575025,2.684797 -3.517644,2.684797 h -16.964713 c -1.942618,0 -3.517643,-1.202119 -3.517643,-2.684797 0,-1.48268 1.575025,-2.6848 3.517643,-2.6848 h 16.964713 c 1.942619,0 3.517644,1.20212 3.517644,2.6848 z"
       id="path379" /></g></svg>
