<?xml version="1.0" encoding="UTF-8" standalone="no"?>
<svg
   width="32"
   height="32"
   version="1.1"
   id="svg8"
   sodipodi:docname="vcs-update-required.svg"
   xml:space="preserve"
   inkscape:version="1.2.1 (9c6d41e410, 2022-07-14)"
   xmlns:inkscape="http://www.inkscape.org/namespaces/inkscape"
   xmlns:sodipodi="http://sodipodi.sourceforge.net/DTD/sodipodi-0.dtd"
   xmlns="http://www.w3.org/2000/svg"
   xmlns:svg="http://www.w3.org/2000/svg"><defs
     id="defs12" /><sodipodi:namedview
     id="namedview10"
     pagecolor="#505050"
     bordercolor="#ffffff"
     borderopacity="1"
     inkscape:showpageshadow="0"
     inkscape:pageopacity="0"
     inkscape:pagecheckerboard="1"
     inkscape:deskcolor="#505050"
     showgrid="false"
     inkscape:zoom="4.2304688"
     inkscape:cx="-70.323176"
     inkscape:cy="-19.855956"
     inkscape:window-width="2560"
     inkscape:window-height="1358"
     inkscape:window-x="0"
     inkscape:window-y="0"
     inkscape:window-maximized="1"
     inkscape:current-layer="svg8" /><rect
     style="fill:#4c76af;fill-opacity:1;stroke-width:1.91045"
     id="rect303"
     width="30"
     height="30"
     x="1"
     y="1"
     rx="5"
     ry="5" /><path
     style="fill:#ffffff;stroke-width:3"
     d="M 16,3.9999985 A 12,12 0 0 0 4,16.000002 a 12,12 0 0 0 12,12 12,12 0 0 0 10.359375,-6 H 16 a 6,6 0 0 1 -6,-6 6,6 0 0 1 6,-6.0000035 6,6 0 0 1 4.242186,1.7578145 L 16,16.000001 H 28 V 3.9999985 l -3.515625,3.515625 A 12,12 0 0 0 16,3.9999985 Z"
     id="path325" /></svg>
