<?xml version="1.0" encoding="UTF-8" standalone="no"?>
<svg
   width="32"
   height="32"
   version="1.1"
   id="svg8"
   sodipodi:docname="vcs-removed.svg"
   xml:space="preserve"
   inkscape:version="1.2.1 (9c6d41e410, 2022-07-14)"
   xmlns:inkscape="http://www.inkscape.org/namespaces/inkscape"
   xmlns:sodipodi="http://sodipodi.sourceforge.net/DTD/sodipodi-0.dtd"
   xmlns="http://www.w3.org/2000/svg"
   xmlns:svg="http://www.w3.org/2000/svg"><defs
     id="defs12" /><sodipodi:namedview
     id="namedview10"
     pagecolor="#505050"
     bordercolor="#ffffff"
     borderopacity="1"
     inkscape:showpageshadow="0"
     inkscape:pageopacity="0"
     inkscape:pagecheckerboard="1"
     inkscape:deskcolor="#505050"
     showgrid="false"
     inkscape:zoom="11.965573"
     inkscape:cx="-32.301003"
     inkscape:cy="20.308263"
     inkscape:window-width="2560"
     inkscape:window-height="1358"
     inkscape:window-x="0"
     inkscape:window-y="0"
     inkscape:window-maximized="1"
     inkscape:current-layer="svg8" /><g
     id="g247"
     transform="matrix(0.56279899,0,0,0.56279899,-169.64605,11.973853)">
</g><g
     id="g249"
     transform="matrix(0.56279899,0,0,0.56279899,-169.64605,11.973853)">
</g><g
     id="g251"
     transform="matrix(0.56279899,0,0,0.56279899,-169.64605,11.973853)">
</g><g
     id="g253"
     transform="matrix(0.56279899,0,0,0.56279899,-169.64605,11.973853)">
</g><g
     id="g255"
     transform="matrix(0.56279899,0,0,0.56279899,-169.64605,11.973853)">
</g><g
     id="g257"
     transform="matrix(0.56279899,0,0,0.56279899,-169.64605,11.973853)">
</g><g
     id="g259"
     transform="matrix(0.56279899,0,0,0.56279899,-169.64605,11.973853)">
</g><g
     id="g261"
     transform="matrix(0.56279899,0,0,0.56279899,-169.64605,11.973853)">
</g><g
     id="g263"
     transform="matrix(0.56279899,0,0,0.56279899,-169.64605,11.973853)">
</g><g
     id="g265"
     transform="matrix(0.56279899,0,0,0.56279899,-169.64605,11.973853)">
</g><g
     id="g267"
     transform="matrix(0.56279899,0,0,0.56279899,-169.64605,11.973853)">
</g><g
     id="g269"
     transform="matrix(0.56279899,0,0,0.56279899,-169.64605,11.973853)">
</g><g
     id="g271"
     transform="matrix(0.56279899,0,0,0.56279899,-169.64605,11.973853)">
</g><g
     id="g273"
     transform="matrix(0.56279899,0,0,0.56279899,-169.64605,11.973853)">
</g><g
     id="g275"
     transform="matrix(0.56279899,0,0,0.56279899,-169.64605,11.973853)">
</g><rect
     style="fill:#4caf99;fill-opacity:1;stroke-width:1.91045"
     id="rect303"
     width="30"
     height="30"
     x="1"
     y="1"
     rx="5"
     ry="5" /><path
     style="fill:#ffffff;stroke-width:0.768285"
     d="m 28,16.000001 c 0,1.482678 -1.575025,2.684797 -3.517644,2.684797 H 7.517643 C 5.575025,18.684798 4,17.482679 4,16.000001 4,14.517322 5.575025,13.315202 7.517643,13.315202 h 16.964713 c 1.942619,0 3.517644,1.20212 3.517644,2.684799 z"
     id="path379" /></svg>
