<?xml version="1.0" encoding="UTF-8" standalone="no"?>
<svg
   width="16"
   height="16"
   version="1.1"
   id="svg9"
   sodipodi:docname="network-wired-acquiring.svg"
   xml:space="preserve"
   inkscape:version="1.2.2 (b0a8486541, 2022-12-01)"
   xmlns:inkscape="http://www.inkscape.org/namespaces/inkscape"
   xmlns:sodipodi="http://sodipodi.sourceforge.net/DTD/sodipodi-0.dtd"
   xmlns="http://www.w3.org/2000/svg"
   xmlns:svg="http://www.w3.org/2000/svg"><sodipodi:namedview
     id="namedview11"
     pagecolor="#ffffff"
     bordercolor="#000000"
     borderopacity="0.25"
     inkscape:showpageshadow="2"
     inkscape:pageopacity="0.0"
     inkscape:pagecheckerboard="0"
     inkscape:deskcolor="#d1d1d1"
     showgrid="false"
     inkscape:zoom="16.453125"
     inkscape:cx="-23.673314"
     inkscape:cy="11.45679"
     inkscape:current-layer="svg9"
     inkscape:window-width="2560"
     inkscape:window-height="1359"
     inkscape:window-x="0"
     inkscape:window-y="0"
     inkscape:window-maximized="1" /><defs
     id="defs3"><style
       id="current-color-scheme"
       type="text/css">
   .ColorScheme-Text { color:#dfdfdf; } .ColorScheme-Highlight { color:#4285f4; } .ColorScheme-NeutralText { color:#ff9800; } .ColorScheme-PositiveText { color:#4caf50; } .ColorScheme-NegativeText { color:#f44336; }
  </style></defs><g
     id="g1297"
     transform="translate(57.899335,2.2260207)"><g
       id="g1290"
       style="fill:#dfdfdf;fill-opacity:1"><path
         style="fill:#dfdfdf;fill-opacity:1;stroke-width:1.06664"
         d="m -53.099264,5.7739791 a 2.1332858,2.1332858 0 0 1 -2.133285,2.1332858 2.1332858,2.1332858 0 0 1 -2.133286,-2.1332858 2.1332858,2.1332858 0 0 1 2.133286,-2.1332858 2.1332858,2.1332858 0 0 1 2.133285,2.1332858 z"
         id="path421" /><path
         style="fill:#dfdfdf;fill-opacity:1;stroke-width:1.06664"
         d="m -47.766049,5.7739791 a 2.1332858,2.1332858 0 0 1 -2.133286,2.1332858 2.1332858,2.1332858 0 0 1 -2.133286,-2.1332858 2.1332858,2.1332858 0 0 1 2.133286,-2.1332858 2.1332858,2.1332858 0 0 1 2.133286,2.1332858 z"
         id="path423" /><path
         style="fill:#dfdfdf;fill-opacity:1;stroke-width:1.06664"
         d="m -42.432835,5.7739791 a 2.1332858,2.1332858 0 0 1 -2.133285,2.1332858 2.1332858,2.1332858 0 0 1 -2.133286,-2.1332858 2.1332858,2.1332858 0 0 1 2.133286,-2.1332858 2.1332858,2.1332858 0 0 1 2.133285,2.1332858 z"
         id="path425" /></g><path
       style="opacity:0.3;fill:#dfdfdf;fill-opacity:1;stroke-width:1.06664"
       d="m -56.299192,-0.6258783 c 0,0 -1.066643,0 -1.066643,1.0666429 v 2.1332858 h 2.133286 V 1.5074075 h 10.666429 v 1.0666429 h 2.133285 V 0.4407646 c 0,-1.0666429 -1.066642,-1.0666429 -1.066642,-1.0666429 z m -1.066643,9.5997861 v 1.0666432 c 0,1.066643 1.066643,1.066643 1.066643,1.066643 h 2.133286 l 1.066642,1.066643 h 6.399858 l 1.066643,-1.066643 h 2.133286 c 0,0 1.066642,0.138663 1.066642,-1.066643 V 8.9739078 h -4.266571 l -1.066643,1.0666432 h -4.266572 l -1.066643,-1.0666432 z"
       id="path427" /></g></svg>
