<?xml version="1.0" encoding="UTF-8" standalone="no"?>
<svg
   width="16"
   height="16"
   version="1.1"
   id="svg6"
   sodipodi:docname="document-open-recent.svg"
   xml:space="preserve"
   inkscape:version="1.2.1 (9c6d41e410, 2022-07-14, custom)"
   xmlns:inkscape="http://www.inkscape.org/namespaces/inkscape"
   xmlns:sodipodi="http://sodipodi.sourceforge.net/DTD/sodipodi-0.dtd"
   xmlns="http://www.w3.org/2000/svg"
   xmlns:svg="http://www.w3.org/2000/svg"><defs
     id="defs10"><style
       id="current-color-scheme"
       type="text/css">
   .ColorScheme-Text { color:#dfdfdf; } .ColorScheme-Highlight { color:#4285f4; }
  </style></defs><sodipodi:namedview
     id="namedview8"
     pagecolor="#ffffff"
     bordercolor="#000000"
     borderopacity="0.25"
     inkscape:showpageshadow="2"
     inkscape:pageopacity="0.0"
     inkscape:pagecheckerboard="0"
     inkscape:deskcolor="#d1d1d1"
     showgrid="false"
     inkscape:zoom="16.046875"
     inkscape:cx="-38.948393"
     inkscape:cy="3.7702045"
     inkscape:current-layer="svg6"
     inkscape:window-width="2560"
     inkscape:window-height="1357"
     inkscape:window-x="0"
     inkscape:window-y="0"
     inkscape:window-maximized="1" /><g
     id="g295"
     transform="matrix(0.43478261,0,0,0.43478261,0.49999998,0.49999998)"
     style="fill:#dfdfdf;fill-opacity:1"><g
       id="g241"
       style="fill:#dfdfdf;fill-opacity:1">
	<path
   d="M 17.25,0 C 7.738,0 0,7.738 0,17.25 0,26.762 7.738,34.5 17.25,34.5 26.762,34.5 34.5,26.762 34.5,17.25 34.5,7.738 26.762,0 17.25,0 Z m 11.37575,18.132214 c 0,1.381 -1.119,2.500189 -2.5,2.5 L 17.25,20.631 c -1.381,-1.89e-4 -2.5,-1.119 -2.5,-2.5 V 8.9730715 c 0,-1.381 1.119,-2.5 2.5,-2.5 1.381,0 2.5,1.119 2.5,2.5 V 15.631 l 6.37575,0.0012 c 1.381,2.6e-4 2.5,1.119 2.5,2.5 z"
   id="path239"
   style="fill:#dfdfdf;fill-opacity:1"
   sodipodi:nodetypes="sssssssssssscsss" />
</g><g
       id="g243"
       style="fill:#dfdfdf;fill-opacity:1">
</g><g
       id="g245"
       style="fill:#dfdfdf;fill-opacity:1">
</g><g
       id="g247"
       style="fill:#dfdfdf;fill-opacity:1">
</g><g
       id="g249"
       style="fill:#dfdfdf;fill-opacity:1">
</g><g
       id="g251"
       style="fill:#dfdfdf;fill-opacity:1">
</g><g
       id="g253"
       style="fill:#dfdfdf;fill-opacity:1">
</g><g
       id="g255"
       style="fill:#dfdfdf;fill-opacity:1">
</g><g
       id="g257"
       style="fill:#dfdfdf;fill-opacity:1">
</g><g
       id="g259"
       style="fill:#dfdfdf;fill-opacity:1">
</g><g
       id="g261"
       style="fill:#dfdfdf;fill-opacity:1">
</g><g
       id="g263"
       style="fill:#dfdfdf;fill-opacity:1">
</g><g
       id="g265"
       style="fill:#dfdfdf;fill-opacity:1">
</g><g
       id="g267"
       style="fill:#dfdfdf;fill-opacity:1">
</g><g
       id="g269"
       style="fill:#dfdfdf;fill-opacity:1">
</g><g
       id="g271"
       style="fill:#dfdfdf;fill-opacity:1">
</g></g></svg>
