<?xml version="1.0" encoding="UTF-8" standalone="no"?>
<svg
   width="32"
   height="32"
   version="1.1"
   id="svg313"
   sodipodi:docname="emblem-pause.svg"
   xml:space="preserve"
   inkscape:version="1.2.1 (9c6d41e410, 2022-07-14)"
   xmlns:inkscape="http://www.inkscape.org/namespaces/inkscape"
   xmlns:sodipodi="http://sodipodi.sourceforge.net/DTD/sodipodi-0.dtd"
   xmlns="http://www.w3.org/2000/svg"
   xmlns:svg="http://www.w3.org/2000/svg"><defs
     id="defs317" /><sodipodi:namedview
     id="namedview315"
     pagecolor="#505050"
     bordercolor="#ffffff"
     borderopacity="1"
     inkscape:showpageshadow="0"
     inkscape:pageopacity="0"
     inkscape:pagecheckerboard="1"
     inkscape:deskcolor="#505050"
     showgrid="false"
     inkscape:zoom="8.4609375"
     inkscape:cx="-20.742382"
     inkscape:cy="16.310249"
     inkscape:window-width="2560"
     inkscape:window-height="1358"
     inkscape:window-x="0"
     inkscape:window-y="0"
     inkscape:window-maximized="1"
     inkscape:current-layer="svg313" /><rect
     style="fill:#ffffff;fill-opacity:1.0;stroke-width:1.91045"
     id="rect303"
     width="30"
     height="30"
     x="1"
     y="1"
     rx="5"
     ry="5" /><g
     fill="#2e3436"
     id="g6"
     style="fill:#333333;fill-opacity:1.0"
     transform="matrix(1.7142857,0,0,1.7142857,2.2857144,2.2857144)"><path
       d="m 3,1 h 3 c 0.550781,0 1,0.449219 1,1 v 12 c 0,0.550781 -0.449219,1 -1,1 H 3 C 2.449219,15 2,14.550781 2,14 V 2 C 2,1.449219 2.449219,1 3,1 Z m 0,0"
       id="path2"
       style="fill:#333333;fill-opacity:1.0" /><path
       d="m 10,1 h 3 c 0.550781,0 1,0.449219 1,1 v 12 c 0,0.550781 -0.449219,1 -1,1 H 10 C 9.449219,15 9,14.550781 9,14 V 2 C 9,1.449219 9.449219,1 10,1 Z m 0,0"
       id="path4"
       style="fill:#333333;fill-opacity:1.0" /></g></svg>
