<?xml version="1.0" encoding="UTF-8" standalone="no"?>
<svg
   width="32"
   height="32"
   version="1.1"
   id="svg6"
   xml:space="preserve"
   sodipodi:docname="emblem-remove.svg"
   inkscape:version="1.2.1 (9c6d41e410, 2022-07-14)"
   xmlns:inkscape="http://www.inkscape.org/namespaces/inkscape"
   xmlns:sodipodi="http://sodipodi.sourceforge.net/DTD/sodipodi-0.dtd"
   xmlns="http://www.w3.org/2000/svg"
   xmlns:svg="http://www.w3.org/2000/svg"><sodipodi:namedview
     id="namedview22"
     pagecolor="#505050"
     bordercolor="#ffffff"
     borderopacity="1"
     inkscape:showpageshadow="0"
     inkscape:pageopacity="0"
     inkscape:pagecheckerboard="1"
     inkscape:deskcolor="#505050"
     showgrid="false"
     inkscape:zoom="33.84375"
     inkscape:cx="16.029548"
     inkscape:cy="16.014774"
     inkscape:window-width="2560"
     inkscape:window-height="1358"
     inkscape:window-x="0"
     inkscape:window-y="0"
     inkscape:window-maximized="1"
     inkscape:current-layer="svg6" /><defs
     id="defs10" /><g
     id="g247"
     transform="matrix(0.56279899,0,0,0.56279899,-82.52534,10.423502)">
</g><g
     id="g249"
     transform="matrix(0.56279899,0,0,0.56279899,-82.52534,10.423502)">
</g><g
     id="g251"
     transform="matrix(0.56279899,0,0,0.56279899,-82.52534,10.423502)">
</g><g
     id="g253"
     transform="matrix(0.56279899,0,0,0.56279899,-82.52534,10.423502)">
</g><g
     id="g255"
     transform="matrix(0.56279899,0,0,0.56279899,-82.52534,10.423502)">
</g><g
     id="g257"
     transform="matrix(0.56279899,0,0,0.56279899,-82.52534,10.423502)">
</g><g
     id="g259"
     transform="matrix(0.56279899,0,0,0.56279899,-82.52534,10.423502)">
</g><g
     id="g261"
     transform="matrix(0.56279899,0,0,0.56279899,-82.52534,10.423502)">
</g><g
     id="g263"
     transform="matrix(0.56279899,0,0,0.56279899,-82.52534,10.423502)">
</g><g
     id="g265"
     transform="matrix(0.56279899,0,0,0.56279899,-82.52534,10.423502)">
</g><g
     id="g267"
     transform="matrix(0.56279899,0,0,0.56279899,-82.52534,10.423502)">
</g><g
     id="g269"
     transform="matrix(0.56279899,0,0,0.56279899,-82.52534,10.423502)">
</g><g
     id="g271"
     transform="matrix(0.56279899,0,0,0.56279899,-82.52534,10.423502)">
</g><g
     id="g273"
     transform="matrix(0.56279899,0,0,0.56279899,-82.52534,10.423502)">
</g><g
     id="g275"
     transform="matrix(0.56279899,0,0,0.56279899,-82.52534,10.423502)">
</g><rect
     style="fill:#ffffff;fill-opacity:1.0;stroke-width:1.91045"
     id="rect303"
     width="30"
     height="30"
     x="0.9999997"
     y="1"
     rx="5"
     ry="5" /><path
     style="fill:#333333;stroke-width:0.768285;fill-opacity:1.0"
     d="m 28,16.000001 c 0,1.482678 -1.575025,2.684797 -3.517644,2.684797 H 7.517643 C 5.575025,18.684798 4,17.482679 4,16.000001 c 0,-1.48268 1.575025,-2.6848 3.517643,-2.6848 h 16.964713 c 1.942619,0 3.517644,1.20212 3.517644,2.6848 z"
     id="path379" /></svg>
