<?xml version="1.0" encoding="UTF-8" standalone="no"?>
<svg
   width="16"
   height="16"
   version="1.1"
   id="svg4"
   xmlns="http://www.w3.org/2000/svg"
   xmlns:svg="http://www.w3.org/2000/svg">
  <defs
     id="defs8" />
  <path
     style="fill:#444444;stroke-width:1.14286"
     d="M 8,0 C 3.5885714,0 0,3.5851429 0,8 c 0,4.414857 3.5885714,8 8,8 4.411429,0 8,-3.585143 8,-8 C 16,3.5851429 12.411429,0 8,0 Z m 0,2.2857143 c 1.165714,0 2.24,0.328 3.142857,0.928 L 3.2114286,11.142857 C 2.6171429,10.238857 2.2857143,9.164571 2.2857143,8 c 0,-3.1542857 2.56,-5.7142857 5.7142857,-5.7142857 z m 4.788571,2.5714286 c 0.594286,0.904 0.925715,1.9771428 0.925715,3.1428571 0,3.153143 -2.56,5.714286 -5.714286,5.714286 -1.1657143,0 -2.24,-0.329143 -3.1428571,-0.929143 z"
     id="path2" />
</svg>
