<?xml version="1.0" encoding="UTF-8" standalone="no"?>
<svg
   width="16"
   height="16"
   version="1.1"
   id="svg4"
   sodipodi:docname="view-list-images-symbolic.svg"
   xml:space="preserve"
   inkscape:version="1.2.1 (9c6d41e410, 2022-07-14)"
   xmlns:inkscape="http://www.inkscape.org/namespaces/inkscape"
   xmlns:sodipodi="http://sodipodi.sourceforge.net/DTD/sodipodi-0.dtd"
   xmlns="http://www.w3.org/2000/svg"
   xmlns:svg="http://www.w3.org/2000/svg"><defs
     id="defs8" /><sodipodi:namedview
     id="namedview6"
     pagecolor="#505050"
     bordercolor="#ffffff"
     borderopacity="1"
     inkscape:showpageshadow="0"
     inkscape:pageopacity="0"
     inkscape:pagecheckerboard="1"
     inkscape:deskcolor="#505050"
     showgrid="false"
     inkscape:zoom="23.931145"
     inkscape:cx="-11.93006"
     inkscape:cy="7.8558715"
     inkscape:window-width="2560"
     inkscape:window-height="1358"
     inkscape:window-x="0"
     inkscape:window-y="0"
     inkscape:window-maximized="1"
     inkscape:current-layer="svg4" /><path
     id="path237"
     style="fill:#444444;fill-opacity:1;stroke-width:0.7"
     d="m 6.685547,1.5253911 c -0.547498,0 -1.055322,0.2854037 -1.3417969,0.7519532 L 4.730469,3.273438 H 3.275391 c -1.25645,0 -2.2753909,1.0189479 -2.2753909,2.2753906 v 6.6503904 c 0,1.256428 1.018941,2.27539 2.2753909,2.27539 h 9.449218 C 13.981038,14.474609 15,13.455647 15,12.199219 V 5.5488286 C 15,4.2923859 13.981038,3.273438 12.724609,3.273438 H 11.27539 L 10.705078,2.3027349 C 10.422279,1.8212054 9.9061151,1.5253911 9.3476561,1.5253911 Z M 8.0000001,6.1289066 A 2.7598283,2.7598283 0 0 1 10.759765,8.8886722 2.7598283,2.7598283 0 0 1 8.0000001,11.650391 2.7598283,2.7598283 0 0 1 5.240234,8.8886722 2.7598283,2.7598283 0 0 1 8.0000001,6.1289066 Z" /></svg>
