<?xml version="1.0" encoding="UTF-8" standalone="no"?>
<svg
   version="1.1"
   width="24px"
   height="24px"
   id="svg35"
   sodipodi:docname="network-disconnect.svg"
   xml:space="preserve"
   xmlns:sodipodi="http://sodipodi.sourceforge.net/DTD/sodipodi-0.dtd"
   xmlns="http://www.w3.org/2000/svg"
   xmlns:svg="http://www.w3.org/2000/svg"><sodipodi:namedview
     id="namedview329" /><defs
     id="defs37"><style
       id="current-color-scheme-7"
       type="text/css">
   .ColorScheme-Text { color:#444444; } .ColorScheme-Highlight { color:#4285f4; }
  </style><style
       id="current-color-scheme-3"
       type="text/css">
   .ColorScheme-Text { color:#444444; } .ColorScheme-Highlight { color:#4285f4; }
  </style></defs><path
     style="fill:#f44336;fill-opacity:1"
     class="ColorScheme-Text"
     d="m 12,4.9999999 c -3.8660002,0 -7.0000002,3.1339999 -7.0000002,7.0000001 0,3.866 3.134,7 7.0000002,7 3.866,0 7,-3.134 7,-7 0,-3.8660002 -3.134,-7.0000001 -7,-7.0000001 z m -0.5,1.9375 c 0.0669,-0.007 0.15125,0.004 0.21875,0 0.008,0.032 -0.0487,0.14587 -0.125,0.3125 -0.48586,1.0613999 -0.51342,2.3043502 -0.0625,2.9687501 0.0816,0.12046 0.15625,0.2351 0.15625,0.25 0,0.0149 -0.088,0.03125 -0.1875,0.03125 -0.23358,0 -0.45462,-0.14237 -0.90625,-0.5 -0.20063,-0.1588699 -0.46145,-0.2922999 -0.5625,-0.3124999 -0.1586798,-0.0317 -0.2009698,-0.0178 -0.4062498,0.1875 -0.19099,0.1909599 -0.25,0.2939299 -0.25,0.4687499 0,0.66294 0.7870798,1.1899 2.2499998,1.5 1.9867,0.42107 2.47645,0.79907 2.53125,1.84375 0.0688,1.31 -0.62865,2.2978 -2.15625,3.0625 -0.18233,0.0913 -0.2985,0.12675 -0.375,0.15625 -0.0339,-0.003 -0.05995,0.003 -0.09375,0 -0.013,-0.0405 -0.03125,-0.13446 -0.03125,-0.3125 0,-0.69578 -0.27425,-1.412 -0.6875,-1.8125 -0.11093,-0.10752 -0.42152,-0.33535 -0.6875,-0.5 -0.2659698,-0.16464 -0.5339498,-0.3559 -0.5937498,-0.4375 -0.0991,-0.13541 -0.10739,-0.2186 -0.03125,-0.46875 0.13876,-0.45687 0.30392,-0.71133 0.6249998,-1 0.16833,-0.15134 0.33771,-0.27825 0.375,-0.28125 0.0373,-0.003 -0.21515,-0.0788 -0.5937498,-0.15625 -0.37858,-0.0776 -0.9324204,-0.24012 -1.2187504,-0.34375 -0.52358,-0.18945 -1.2305,-0.58716 -1.5,-0.875 -0.0114,-0.0122 -0.02135,-0.02045 -0.03125,-0.03125 C 7.5423798,9.1493999 8.6259998,7.88875 10.0625,7.28125 10.36307,7.1541199 10.67292,7.0669 11,7 c 0.16292,-0.0333 0.33178,-0.0454 0.5,-0.0625 z m 4.6875,2.34375 c 0.11745,0.0726 0.56091,1.0320001 0.6875,1.5000001 0.16344,0.60419 0.15161,1.6498 0,2.25 -0.0577,0.22844 -0.13165,0.44215 -0.15625,0.46875 -0.0246,0.0266 -0.11381,-0.12653 -0.21875,-0.3125 -0.10495,-0.18594 -0.44016,-0.58105 -0.71875,-0.875 -0.80414,-0.84853 -0.93059,-1.29155 -0.59375,-1.96875 0.16987,-0.34149 0.9091,-1.1186001 1,-1.0625001 z"
     id="path160" /></svg>
