<?xml version="1.0" encoding="UTF-8" standalone="no"?>
<svg
   version="1.1"
   width="24px"
   height="24px"
   id="svg11"
   sodipodi:docname="semi-starred.svg"
   xml:space="preserve"
   inkscape:version="1.2.1 (9c6d41e410, 2022-07-14, custom)"
   xmlns:inkscape="http://www.inkscape.org/namespaces/inkscape"
   xmlns:sodipodi="http://sodipodi.sourceforge.net/DTD/sodipodi-0.dtd"
   xmlns="http://www.w3.org/2000/svg"
   xmlns:svg="http://www.w3.org/2000/svg"><defs
     id="defs15"><style
       id="current-color-scheme-3"
       type="text/css">
   .ColorScheme-Text { color:#6e6e6e; } .ColorScheme-Highlight { color:#4285f4; }
  </style></defs><sodipodi:namedview
     id="namedview13"
     pagecolor="#505050"
     bordercolor="#ffffff"
     borderopacity="1"
     inkscape:showpageshadow="0"
     inkscape:pageopacity="0"
     inkscape:pagecheckerboard="1"
     inkscape:deskcolor="#505050"
     showgrid="false"
     inkscape:zoom="15.954097"
     inkscape:cx="-44.126597"
     inkscape:cy="19.336726"
     inkscape:window-width="2560"
     inkscape:window-height="1357"
     inkscape:window-x="0"
     inkscape:window-y="0"
     inkscape:window-maximized="1"
     inkscape:current-layer="svg11" /><g
     id="g253"
     transform="translate(4.0000005,3.9997612)"><path
       id="path5-6"
       style="fill:#444444;fill-opacity:1"
       class="ColorScheme-Text"
       d="m 8,0 v 13.556641 l 3.082031,2.167968 c 0.01115,0.0079 0.0236,0.0142 0.03516,0.02149 0.608115,0.385783 1.363859,0.327408 1.902343,-0.138672 0.0033,-0.0029 0.0085,-0.0048 0.01172,-0.0078 0.448108,-0.401568 0.615648,-0.988802 0.4375,-1.558593 -0.0012,-0.0039 -0.0026,-0.0097 -0.0039,-0.01367 L 12.298828,10.042969 15.302734,7.9042969 C 16.098889,7.3817117 16.232435,6.2788399 15.605469,5.578125 15.315568,5.2344883 14.903593,5.0280735 14.447266,5.0136719 c -0.0083,-1.302e-4 -0.01709,-1.302e-4 -0.02539,0 H 10.601562 L 9.4765625,1.1328125 C 9.2351857,0.43260153 8.7211854,0.01003609 8,0 Z" /><path
       id="path5-3"
       style="color:#6e6e6e;opacity:0.35;fill:#444444;fill-opacity:1"
       class="ColorScheme-Text"
       d="M 8,0 C 7.2788157,0.01003599 6.7648093,0.43264353 6.5234375,1.1328125 l -1.125,3.8808594 H 1.578125 c -0.0083,-1.301e-4 -0.017061,-1.301e-4 -0.025391,0 -0.4563296,0.0144 -0.86830244,0.2208166 -1.15820315,0.5644531 -0.62696737,0.7007149 -0.49342083,1.8035866 0.30273437,2.3261719 L 3.7011719,10.042969 2.5351562,14.027344 c -0.0013,0.0039 -0.00271,0.0078 -0.00391,0.01172 -0.1781478,0.569792 -0.010604,1.158989 0.4375,1.560547 0.0032,0.003 0.0084,0.0049 0.011719,0.0078 0.5384844,0.46608 1.2942283,0.524455 1.9023437,0.138672 0.01157,-0.0073 0.024006,-0.01359 0.035156,-0.02149 L 8,13.556641 Z" /></g></svg>
