<?xml version="1.0" encoding="UTF-8" standalone="no"?>
<svg
   width="16"
   height="16"
   version="1.1"
   id="svg4"
   sodipodi:docname="camera-photo.svg"
   xml:space="preserve"
   inkscape:version="1.2.1 (9c6d41e410, 2022-07-14)"
   xmlns:inkscape="http://www.inkscape.org/namespaces/inkscape"
   xmlns:sodipodi="http://sodipodi.sourceforge.net/DTD/sodipodi-0.dtd"
   xmlns="http://www.w3.org/2000/svg"
   xmlns:svg="http://www.w3.org/2000/svg"><defs
     id="defs8" /><sodipodi:namedview
     id="namedview6"
     pagecolor="#ffffff"
     bordercolor="#000000"
     borderopacity="0.25"
     inkscape:showpageshadow="2"
     inkscape:pageopacity="0.0"
     inkscape:pagecheckerboard="0"
     inkscape:deskcolor="#d1d1d1"
     showgrid="false"
     inkscape:zoom="45.387416"
     inkscape:cx="2.5888233"
     inkscape:cy="8.4384624"
     inkscape:current-layer="svg4"
     inkscape:window-width="2560"
     inkscape:window-height="1358"
     inkscape:window-x="0"
     inkscape:window-y="0"
     inkscape:window-maximized="1" /><path
     id="path237-3"
     style="fill:#dfdfdf;fill-opacity:1;stroke-width:0.7"
     d="m 6.6855471,1.5253913 c -0.5474976,0 -1.0553222,0.2854037 -1.3417972,0.7519532 l -0.613281,0.9960937 h -1.455078 c -1.25645,0 -2.275391,1.0189479 -2.275391,2.2753906 v 6.6503902 c 0,1.256428 1.018941,2.27539 2.275391,2.27539 H 12.724609 C 13.981038,14.474609 15,13.455647 15,12.199219 V 5.5488288 C 15,4.2923861 13.981038,3.2734382 12.724609,3.2734382 H 11.27539 L 10.705078,2.3027351 C 10.422279,1.8212056 9.9061155,1.5253913 9.3476562,1.5253913 Z m 1.314453,4.6035156 A 2.7598283,2.7598283 0 0 1 10.759765,8.8886722 2.7598283,2.7598283 0 0 1 8.0000001,11.650391 2.7598283,2.7598283 0 0 1 5.2402349,8.8886722 2.7598283,2.7598283 0 0 1 8.0000001,6.1289069 Z" /></svg>
