<?xml version="1.0" encoding="UTF-8" standalone="no"?>
<svg
   width="16"
   height="16"
   version="1.1"
   id="svg4"
   sodipodi:docname="phone-old.svg"
   inkscape:version="1.2.1 (9c6d41e410, 2022-07-14, custom)"
   xmlns:inkscape="http://www.inkscape.org/namespaces/inkscape"
   xmlns:sodipodi="http://sodipodi.sourceforge.net/DTD/sodipodi-0.dtd"
   xmlns="http://www.w3.org/2000/svg"
   xmlns:svg="http://www.w3.org/2000/svg">
  <defs
     id="defs8" />
  <sodipodi:namedview
     id="namedview6"
     pagecolor="#505050"
     bordercolor="#ffffff"
     borderopacity="1"
     inkscape:showpageshadow="0"
     inkscape:pageopacity="0"
     inkscape:pagecheckerboard="1"
     inkscape:deskcolor="#505050"
     showgrid="false"
     inkscape:zoom="67.6875"
     inkscape:cx="8.0295476"
     inkscape:cy="8.0443213"
     inkscape:window-width="2560"
     inkscape:window-height="1357"
     inkscape:window-x="0"
     inkscape:window-y="0"
     inkscape:window-maximized="1"
     inkscape:current-layer="svg4" />
  <path
     d="M4.001 0c-1.01.005-1 1-1 1v12l.002.016v.136c0 1.024.857 1.848 1.92 1.848h5.158c1.063 0 1.92-.824 1.92-1.848V5c0-1.023-.937-2-2-2h-5V1s-.009-.994-1-1zm1.754 5H9.25a.75.75 0 01.752.752v1.496A.75.75 0 019.251 8H5.755a.75.75 0 01-.752-.752V5.752A.75.75 0 015.755 5zm-.252 5h1.143a.499.499 0 110 1H5.503a.499.499 0 110-1zm2.857 0h1.143a.499.499 0 110 1H8.36a.499.499 0 110-1zm-2.857 2h1.143a.499.499 0 110 1H5.503a.499.499 0 110-1zm2.857 0h1.143a.499.499 0 110 1H8.36a.499.499 0 110-1z"
     style="marker:none;fill:#dfdfdf;fill-opacity:1.0"
     color="#000"
     overflow="visible"
     id="path2" />
</svg>
