<?xml version="1.0" encoding="UTF-8" standalone="no"?>
<svg
   width="16"
   height="16"
   version="1.1"
   id="svg9"
   sodipodi:docname="network-wired-acquiring.svg"
   xml:space="preserve"
   inkscape:version="1.2.2 (b0a8486541, 2022-12-01)"
   xmlns:inkscape="http://www.inkscape.org/namespaces/inkscape"
   xmlns:sodipodi="http://sodipodi.sourceforge.net/DTD/sodipodi-0.dtd"
   xmlns="http://www.w3.org/2000/svg"
   xmlns:svg="http://www.w3.org/2000/svg"><sodipodi:namedview
     id="namedview11"
     pagecolor="#ffffff"
     bordercolor="#000000"
     borderopacity="0.25"
     inkscape:showpageshadow="2"
     inkscape:pageopacity="0.0"
     inkscape:pagecheckerboard="0"
     inkscape:deskcolor="#d1d1d1"
     showgrid="false"
     inkscape:zoom="16.453125"
     inkscape:cx="-23.673314"
     inkscape:cy="11.517569"
     inkscape:current-layer="svg9"
     inkscape:window-width="2560"
     inkscape:window-height="1359"
     inkscape:window-x="0"
     inkscape:window-y="0"
     inkscape:window-maximized="1" /><defs
     id="defs3"><style
       id="current-color-scheme"
       type="text/css">
   .ColorScheme-Text { color:#dfdfdf; } .ColorScheme-Highlight { color:#4285f4; } .ColorScheme-NeutralText { color:#ff9800; } .ColorScheme-PositiveText { color:#4caf50; } .ColorScheme-NegativeText { color:#f44336; }
  </style></defs><g
     id="g803"
     transform="translate(0.5335,1.0671425)"><g
       id="g1290"
       style="fill:#444444;fill-opacity:1"
       transform="translate(57.365835,1.1588783)"><path
         style="fill:#444444;fill-opacity:1;stroke-width:1.06664"
         d="m -53.099264,5.7739791 a 2.1332858,2.1332858 0 0 1 -2.133285,2.1332858 2.1332858,2.1332858 0 0 1 -2.133286,-2.1332858 2.1332858,2.1332858 0 0 1 2.133286,-2.1332858 2.1332858,2.1332858 0 0 1 2.133285,2.1332858 z"
         id="path421" /><path
         style="fill:#444444;fill-opacity:1;stroke-width:1.06664"
         d="m -47.766049,5.7739791 a 2.1332858,2.1332858 0 0 1 -2.133286,2.1332858 2.1332858,2.1332858 0 0 1 -2.133286,-2.1332858 2.1332858,2.1332858 0 0 1 2.133286,-2.1332858 2.1332858,2.1332858 0 0 1 2.133286,2.1332858 z"
         id="path423" /><path
         style="fill:#444444;fill-opacity:1;stroke-width:1.06664"
         d="m -42.432835,5.7739791 a 2.1332858,2.1332858 0 0 1 -2.133285,2.1332858 2.1332858,2.1332858 0 0 1 -2.133286,-2.1332858 2.1332858,2.1332858 0 0 1 2.133286,-2.1332858 2.1332858,2.1332858 0 0 1 2.133285,2.1332858 z"
         id="path425" /></g><path
       style="opacity:0.3;fill:#444444;fill-opacity:1;stroke-width:1.06664"
       d="M 1.066643,0.533 C 1.066643,0.533 0,0.533 0,1.5996429 V 3.7329287 H 2.133286 V 2.6662858 H 12.799715 V 3.7329287 H 14.933 V 1.5996429 C 14.933,0.533 13.866358,0.533 13.866358,0.533 Z M 0,10.132786 v 1.066643 c 0,1.066643 1.066643,1.066643 1.066643,1.066643 h 2.133286 l 1.066642,1.066643 h 6.399858 l 1.066643,-1.066643 h 2.133286 c 0,0 1.066642,0.138663 1.066642,-1.066643 V 10.132786 H 10.666429 L 9.599786,11.199429 H 5.333214 L 4.266571,10.132786 Z"
       id="path427" /></g></svg>
