<?xml version="1.0" encoding="UTF-8" standalone="no"?>
<svg
   height="32"
   version="1"
   viewBox="0 0 32 32"
   width="32"
   id="svg97"
   sodipodi:docname="application-x-deb2.svg"
   inkscape:version="1.2.2 (b0a8486541, 2022-12-01)"
   xmlns:inkscape="http://www.inkscape.org/namespaces/inkscape"
   xmlns:sodipodi="http://sodipodi.sourceforge.net/DTD/sodipodi-0.dtd"
   xmlns:xlink="http://www.w3.org/1999/xlink"
   xmlns="http://www.w3.org/2000/svg"
   xmlns:svg="http://www.w3.org/2000/svg"
   xmlns:rdf="http://www.w3.org/1999/02/22-rdf-syntax-ns#"
   xmlns:cc="http://creativecommons.org/ns#"
   xmlns:dc="http://purl.org/dc/elements/1.1/">
  <metadata
     id="metadata101">
    <rdf:RDF>
      <cc:Work
         rdf:about="">
        <dc:format>image/svg+xml</dc:format>
        <dc:type
           rdf:resource="http://purl.org/dc/dcmitype/StillImage" />
        <dc:title>
        elementary Icon Template
    </dc:title>
      </cc:Work>
    </rdf:RDF>
  </metadata>
  <sodipodi:namedview
     pagecolor="#ffffff"
     bordercolor="#666666"
     borderopacity="1"
     objecttolerance="10"
     gridtolerance="10"
     guidetolerance="10"
     inkscape:pageopacity="0"
     inkscape:pageshadow="2"
     inkscape:window-width="2560"
     inkscape:window-height="1359"
     id="namedview99"
     showgrid="false"
     inkscape:zoom="13.906434"
     inkscape:cx="-13.626786"
     inkscape:cy="18.660428"
     inkscape:window-x="0"
     inkscape:window-y="0"
     inkscape:window-maximized="1"
     inkscape:current-layer="g95"
     inkscape:showpageshadow="2"
     inkscape:pagecheckerboard="0"
     inkscape:deskcolor="#d1d1d1" />
  <title
     id="title2">
        elementary Icon Template
    </title>
  <defs
     id="defs75">
    <linearGradient
       id="linearGradient4728">
      <stop
         id="stop4720"
         stop-color="#f75e95"
         offset="0"
         style="stop-color:#f24a83;stop-opacity:1;" />
      <stop
         id="stop4722"
         stop-color="#f75e95"
         offset="0.23060136"
         style="stop-color:#f24a83;stop-opacity:1;" />
      <stop
         id="stop4724"
         stop-color="#f75e95"
         offset="0.23060136"
         style="stop-color:#f75f95;stop-opacity:1;" />
      <stop
         id="stop4726"
         stop-color="#f75e95"
         offset="1"
         style="stop-color:#f75e95;stop-opacity:1;" />
    </linearGradient>
    <linearGradient
       id="f">
      <stop
         offset="0"
         stop-color="#f75e95"
         id="stop4" />
      <stop
         offset=".239"
         stop-color="#f75e95"
         id="stop6" />
      <stop
         offset=".276"
         stop-color="#f75e95"
         id="stop8" />
      <stop
         offset="1"
         stop-color="#f75e95"
         id="stop10" />
    </linearGradient>
    <linearGradient
       id="g">
      <stop
         offset="0"
         id="stop13" />
      <stop
         offset="1"
         stop-opacity="0"
         id="stop15" />
    </linearGradient>
    <linearGradient
       id="a">
      <stop
         offset="0"
         stop-color="#fff"
         id="stop18" />
      <stop
         offset=".084"
         stop-color="#fff"
         stop-opacity=".235"
         id="stop20" />
      <stop
         offset=".951"
         stop-color="#fff"
         stop-opacity=".157"
         id="stop22" />
      <stop
         offset="1"
         stop-color="#fff"
         stop-opacity=".392"
         id="stop24" />
    </linearGradient>
    <linearGradient
       id="b">
      <stop
         offset="0"
         stop-color="#fff"
         id="stop27" />
      <stop
         offset=".036"
         stop-color="#fff"
         stop-opacity=".235"
         id="stop29" />
      <stop
         offset=".951"
         stop-color="#fff"
         stop-opacity=".157"
         id="stop31" />
      <stop
         offset="1"
         stop-color="#fff"
         stop-opacity=".392"
         id="stop33" />
    </linearGradient>
    <linearGradient
       id="c">
      <stop
         offset="0"
         stop-color="#fff"
         id="stop36" />
      <stop
         offset="0.34400001"
         stop-color="#fff"
         id="stop38" />
      <stop
         offset="0.45110649"
         stop-color="#fff"
         stop-opacity=".643"
         id="stop40" />
      <stop
         offset="1"
         stop-color="#fff"
         stop-opacity=".391"
         id="stop42" />
    </linearGradient>
    <linearGradient
       id="e">
      <stop
         offset="0"
         stop-color="#f75e95"
         id="stop45" />
      <stop
         offset="0.23060136"
         stop-color="#f75e95"
         id="stop47" />
      <stop
         offset="0.23060136"
         stop-color="#f75e95"
         id="stop49" />
      <stop
         offset="1"
         stop-color="#f75e95"
         id="stop51" />
    </linearGradient>
    <linearGradient
       id="h">
      <stop
         offset="0"
         stop-opacity="0"
         id="stop54" />
      <stop
         offset=".5"
         id="stop56" />
      <stop
         offset="1"
         stop-opacity="0"
         id="stop58" />
    </linearGradient>
    <linearGradient
       id="d">
      <stop
         offset="0"
         stop-color="#fff"
         stop-opacity="0"
         id="stop61" />
      <stop
         offset="1"
         stop-color="#fff"
         stop-opacity="0"
         id="stop63" />
    </linearGradient>
    <linearGradient
       gradientTransform="matrix(1.05405,0,0,0.21622,126.703,171.31)"
       gradientUnits="userSpaceOnUse"
       xlink:href="#a"
       id="p"
       x1="24"
       x2="24"
       y1="7.3470001"
       y2="43" />
    <linearGradient
       gradientTransform="matrix(1.05405,0,0,0.7027,126.703,176.635)"
       gradientUnits="userSpaceOnUse"
       xlink:href="#b"
       id="o"
       x1="24"
       x2="24"
       y1="5.5640001"
       y2="43" />
    <linearGradient
       gradientTransform="matrix(0.69999995,0,0,0.8245227,127.2,175.41605)"
       gradientUnits="userSpaceOnUse"
       xlink:href="#c"
       id="n"
       x1="26"
       x2="26"
       y1="22"
       y2="8" />
    <linearGradient
       gradientTransform="matrix(1.28223,0,0,1.17469,121.93,157.697)"
       gradientUnits="userSpaceOnUse"
       xlink:href="#d"
       id="m"
       x1="23.452"
       x2="43.007"
       y1="30.555"
       y2="45.933998" />
    <linearGradient
       gradientTransform="matrix(0.87553362,0,0,1.1237434,123.46757,164.85245)"
       gradientUnits="userSpaceOnUse"
       xlink:href="#linearGradient4728"
       id="l"
       x1="23.359486"
       x2="23.370872"
       y1="15.933548"
       y2="38.453457" />
    <linearGradient
       gradientTransform="translate(128,163)"
       gradientUnits="userSpaceOnUse"
       xlink:href="#f"
       id="q"
       x1="15.464"
       x2="15.464"
       y1="7.9759998"
       y2="45.042" />
    <radialGradient
       cx="5"
       cy="41.5"
       fx="5"
       fy="41.5"
       gradientTransform="matrix(0.4012,0,0,1.2,169.994,-254.8)"
       gradientUnits="userSpaceOnUse"
       xlink:href="#g"
       id="k"
       r="5" />
    <linearGradient
       gradientTransform="matrix(1.74414,0,0,1.0909,111.07,160.818)"
       gradientUnits="userSpaceOnUse"
       xlink:href="#h"
       id="j"
       x1="17.554001"
       x2="17.554001"
       y1="46"
       y2="35" />
    <radialGradient
       cx="5"
       cy="41.5"
       fx="5"
       fy="41.5"
       gradientTransform="matrix(0.4012,0,0,1.2,-134.006,-254.8)"
       gradientUnits="userSpaceOnUse"
       xlink:href="#g"
       id="i"
       r="5" />
    <linearGradient
       gradientTransform="matrix(1.2507624,0,0,1.555952,75.583213,130.05387)"
       gradientUnits="userSpaceOnUse"
       xlink:href="#e"
       id="l-7"
       x1="23.359486"
       x2="23.370872"
       y1="15.933548"
       y2="38.453457" />
  </defs>
  <g
     transform="translate(-128,-179)"
     id="g95">
    <path
       d="m 133.76452,183.0197 h 20.14185 c 1.17582,0 1.705,-0.2071 2.043,0.72162 l 2.04983,5.77292 V 208.041 c 0,1.12067 0.0703,0.94965 -1.10617,0.94965 H 131.1063 c -1.17582,0 -1.10549,0.17102 -1.10549,-0.94965 v -18.52676 l 2.04983,-5.77292 c 0.32775,-0.90924 0.53874,-0.72162 1.71388,-0.72162 z"
       display="block"
       overflow="visible"
       style="display:block;overflow:visible;opacity:0.2;fill:#000000;fill-opacity:1;stroke-width:0.70195;marker:none"
       id="path83-5"
       inkscape:connector-curvature="0" />
    <path
       d="m 133.76452,182.01971 h 20.14185 c 1.17582,0 1.70501,-0.20711 2.043,0.72161 l 2.04983,5.77292 v 18.52677 c 0,1.12066 0.0703,0.94964 -1.10617,0.94964 h -25.78674 c -1.17581,0 -1.10548,0.17102 -1.10548,-0.94964 v -18.52677 l 2.04983,-5.77292 c 0.32775,-0.90924 0.53874,-0.72161 1.71388,-0.72161 z"
       display="block"
       overflow="visible"
       style="display:block;overflow:visible;fill:url(#l);stroke-width:0.70195049;marker:none"
       id="path83"
       inkscape:connector-curvature="0" />
    <path
       d="m 148.00785,200.36716 c 0.0536,-0.165 0.0631,-0.26405 0.0836,-0.3601 -0.14758,0.1901 -0.068,0.23062 -0.0836,0.3601 m 0.27276,-1.14703 c 0.0266,0.24763 -0.18496,0.34419 0.0468,0.18061 0.12445,-0.28217 -0.0484,-0.078 -0.0468,-0.18061 m 4.05007,-2.16859 c 0.11538,-0.0424 0.28328,-0.0234 0.40617,-0.0512 -0.15979,0.0134 -0.31862,0.0215 -0.47544,0.0416 l 0.0693,0.01 m 3.70643,4.62583 -0.025,0.0635 c -0.046,0.32868 -0.14565,0.65385 -0.29777,0.95551 0.1683,-0.31816 0.27673,-0.66627 0.32284,-1.01895 m -4.69089,1.02704 c -0.0596,-0.0662 -0.0943,-0.14574 -0.13383,-0.2252 0.0377,0.13924 0.11481,0.25897 0.18642,0.38088 l -0.0526,-0.15559 m -0.26499,0.0104 -0.0242,0.1204 c 0.11223,0.1535 0.20131,0.31976 0.34437,0.43931 -0.103,-0.20218 -0.17939,-0.28573 -0.32026,-0.55963 m 1.39698,-5.53005 -0.0642,0.0134 0.0597,-0.006 0.004,-0.008 m -0.18158,-0.0508 c 0.0911,0.0163 0.19684,0.029 0.18165,0.0509 0.10015,-0.0222 0.1224,-0.0422 -0.18157,-0.0509 m 1.90017,4.22919 c 0.0208,-0.30945 -0.0605,-0.21148 -0.0877,-0.0936 0.0317,0.0168 0.0571,0.21827 0.0877,0.0936 m -0.33786,0.88597 c 0.10195,-0.14132 0.17639,-0.2959 0.20229,-0.45574 -0.0235,0.11381 -0.0841,0.2122 -0.14242,0.31609 -0.31864,0.20228 -0.03,-0.12006 0,-0.24271 -0.34275,0.43498 -0.047,0.26081 -0.0599,0.38236 m -0.91538,0.22963 c -0.17058,0.002 0.0321,0.0883 0.25483,0.12294 0.0617,-0.0485 0.11726,-0.0973 0.16704,-0.1449 -0.13849,0.0341 -0.2796,0.0349 -0.42186,0.0221 m -4.93538,-2.1115 c 0.0535,-0.16526 0.0631,-0.26439 0.0836,-0.3602 -0.14767,0.19019 -0.068,0.2308 -0.0836,0.3602 m 0.27259,-1.14703 c 0.0266,0.24771 -0.18488,0.34402 0.0468,0.18043 0.12444,-0.28215 -0.0484,-0.0778 -0.0468,-0.18043 m 4.04977,-2.16909 c 0.1152,-0.0424 0.28337,-0.0234 0.406,-0.0513 -0.15961,0.0134 -0.31842,0.0215 -0.47518,0.0416 l 0.0692,0.01 m 3.70657,4.62624 -0.025,0.0635 c -0.046,0.32876 -0.14565,0.65393 -0.29777,0.9556 0.16831,-0.31817 0.27673,-0.66628 0.32285,-1.01896 m -4.69065,1.02688 c -0.0594,-0.0662 -0.0943,-0.14582 -0.13384,-0.22496 0.0377,0.13933 0.1149,0.25897 0.18651,0.38088 l -0.0527,-0.15592 m -0.26499,0.0104 -0.0241,0.1204 c 0.11223,0.15358 0.20132,0.31984 0.34437,0.4394 -0.103,-0.20228 -0.17938,-0.28582 -0.32025,-0.5598 m 1.39681,-5.53014 -0.064,0.0134 0.0598,-0.006 0.004,-0.008 m 2.54393,4.30723 c 0.009,0.25982 -0.0737,0.38609 -0.14887,0.60936 l -0.13517,0.0692 c -0.11049,0.22089 0.0109,0.14024 -0.0682,0.31586 -0.1727,0.15777 -0.52334,0.49353 -0.63557,0.52427 -0.0821,-0.002 0.0555,-0.0996 0.0735,-0.13777 -0.23141,0.16309 -0.18529,0.2448 -0.53864,0.34411 l -0.0102,-0.0237 c -0.87079,0.42156 -2.08054,-0.41371 -2.06468,-1.55324 -0.009,0.0723 -0.0265,0.0541 -0.0457,0.0832 -0.0448,-0.58623 0.2633,-1.17504 0.78302,-1.41575 0.50837,-0.25882 1.10439,-0.15276 1.4685,0.19668 -0.20018,-0.26956 -0.59836,-0.5553 -1.06992,-0.52887 -0.46219,0.008 -0.89467,0.30984 -1.03886,0.63793 -0.23667,0.15325 -0.26427,0.59116 -0.36735,0.67128 -0.13893,1.04965 0.26103,1.5029 0.93771,2.0365 0.10621,0.0738 0.0299,0.0851 0.0441,0.14122 -0.22477,-0.10823 -0.43045,-0.27173 -0.5998,-0.47184 0.0899,0.13516 0.18682,0.26656 0.31216,0.36987 -0.21208,-0.0737 -0.49527,-0.52837 -0.57773,-0.54688 0.36533,0.67295 1.48211,1.17997 2.06719,0.92816 -0.27074,0.0109 -0.61454,0.006 -0.91853,-0.10955 -0.12809,-0.0676 -0.30149,-0.20762 -0.27041,-0.23371 0.79828,0.30661 1.62264,0.23208 2.31317,-0.33737 0.17582,-0.14088 0.36776,-0.38038 0.42327,-0.38361 -0.0835,0.12926 0.0143,0.0621 -0.0499,0.17626 0.17479,-0.29046 -0.0762,-0.1183 0.18084,-0.5016 l 0.0949,0.13444 c -0.0356,-0.24134 0.29112,-0.53402 0.2579,-0.91541 0.075,-0.11658 0.0835,0.12561 0.004,0.39383 0.11029,-0.29758 0.0292,-0.34545 0.0574,-0.59111 0.0304,0.0826 0.0709,0.17024 0.0915,0.25747 -0.0719,-0.28768 0.0735,-0.48429 0.10966,-0.65153 -0.0357,-0.0162 -0.11093,0.12712 -0.12826,-0.21251 0.003,-0.14755 0.0401,-0.0773 0.0543,-0.11367 -0.0281,-0.0166 -0.10192,-0.1298 -0.14678,-0.34671 0.0323,-0.0511 0.087,0.13216 0.1313,0.13959 -0.0286,-0.1724 -0.0776,-0.30392 -0.0796,-0.43631 -0.12963,-0.27854 -0.046,0.0372 -0.15085,-0.11958 -0.13799,-0.44244 0.11438,-0.10269 0.13151,-0.30359 0.20887,0.31134 0.32794,0.79425 0.38282,0.99411 -0.0418,-0.2438 -0.10925,-0.48007 -0.19173,-0.70861 0.0637,0.0276 -0.10234,-0.5015 0.0827,-0.1511 -0.19826,-0.74682 -0.84514,-1.4447 -1.4405,-1.77211 0.0728,0.0685 0.16488,0.15453 0.132,0.16808 -0.29614,-0.18127 -0.24435,-0.19561 -0.28724,-0.27215 -0.24112,-0.10097 -0.2565,0.008 -0.4167,2.6e-4 -0.45434,-0.24831 -0.54189,-0.22187 -0.96012,-0.37721 l 0.0191,0.0916 c -0.30115,-0.10331 -0.35091,0.0389 -0.67643,1.7e-4 -0.0198,-0.0157 0.10438,-0.0576 0.20657,-0.0728 -0.29121,0.0396 -0.27761,-0.0591 -0.56259,0.0109 0.0702,-0.0506 0.14459,-0.0843 0.21944,-0.12731 -0.2374,0.0148 -0.56704,0.14214 -0.46534,0.0263 -0.38733,0.17785 -1.07526,0.42748 -1.4613,0.79993 l -0.0121,-0.0835 c -0.17688,0.21837 -0.77143,0.65235 -0.81876,0.93558 l -0.0475,0.0113 c -0.0918,0.16034 -0.15156,0.34202 -0.22454,0.50686 -0.12032,0.21112 -0.17647,0.0813 -0.15932,0.11439 -0.23675,0.49385 -0.35456,0.90883 -0.4561,1.24927 0.0723,0.1113 0.002,0.67027 0.0291,1.11751 -0.11878,2.20936 1.50718,4.35468 3.28454,4.8491 0.26047,0.0967 0.64779,0.0934 0.97736,0.10257 -0.38871,-0.11423 -0.43887,-0.0609 -0.81772,-0.19678 -0.27316,-0.13256 -0.33296,-0.28347 -0.5265,-0.45608 l 0.0766,0.13928 c -0.37942,-0.13841 -0.22066,-0.17092 -0.52952,-0.27182 l 0.0819,-0.10922 c -0.12241,-0.01 -0.32518,-0.21345 -0.38085,-0.32684 l -0.13465,0.006 c -0.16158,-0.20511 -0.24783,-0.35269 -0.24145,-0.46775 l -0.0436,0.08 c -0.0492,-0.0875 -0.59488,-0.77041 -0.31184,-0.61115 -0.0526,-0.0492 -0.1225,-0.08 -0.19831,-0.22179 l 0.0576,-0.0677 c -0.13601,-0.18093 -0.25067,-0.41188 -0.24185,-0.48859 0.0727,0.10088 0.12299,0.11923 0.17299,0.13674 -0.34405,-0.87797 -0.36338,-0.0484 -0.62376,-0.89365 l 0.055,-0.004 c -0.0421,-0.0657 -0.068,-0.13657 -0.10187,-0.20635 l 0.024,-0.2458 c -0.24752,-0.29458 -0.0691,-1.25259 -0.0332,-1.77788 0.0245,-0.21362 0.20665,-0.44123 0.34469,-0.79792 l -0.0842,-0.0148 c 0.16119,-0.28916 0.92015,-1.16146 1.27181,-1.11669 0.17024,-0.22003 -0.0339,-6.3e-4 -0.0672,-0.0561 0.37414,-0.39822 0.49179,-0.28131 0.74425,-0.35302 0.2721,-0.16617 -0.23369,0.065 -0.1047,-0.0634 0.47075,-0.12357 0.33353,-0.28115 0.9475,-0.34384 0.0648,0.0379 -0.15026,0.0586 -0.20423,0.10764 0.39203,-0.19744 1.24082,-0.15234 1.79241,0.10948 0.63954,0.30774 1.35805,1.21681 1.38718,2.0721 l 0.0323,0.009 c -0.0163,0.34006 0.0506,0.73333 -0.0655,1.09442 l 0.0785,-0.17109 m -2.7259,-4.35793 c 0.0911,0.0163 0.19682,0.029 0.18164,0.0509 0.10001,-0.0222 0.12249,-0.0422 -0.18164,-0.0509 m 1.90074,4.22952 c 0.0208,-0.30946 -0.0605,-0.21148 -0.0877,-0.0936 0.0317,0.0168 0.057,0.21826 0.0877,0.0936 m -0.33822,0.88598 c 0.10196,-0.14133 0.17639,-0.29591 0.20228,-0.45575 -0.0235,0.11381 -0.0841,0.21211 -0.1424,0.31609 -0.31865,0.20227 -0.03,-0.12007 0,-0.24272 -0.34276,0.43498 -0.047,0.26081 -0.0599,0.38238 m -0.91522,0.22988 c -0.17057,0.002 0.032,0.0883 0.2548,0.12289 0.0617,-0.0485 0.11724,-0.0973 0.16701,-0.14491 -0.13844,0.0341 -0.27957,0.035 -0.42181,0.022"
       style="opacity:0.5;fill:#ffffff;fill-opacity:1;stroke-width:0.821369"
       id="path4815" />
    <path
       d="m 142.6,182.01224 h 2.8 v 11.54331 c -0.2758,0 -0.5509,-0.63571 -0.8267,-0.63571 -0.2821,0 -0.5642,0.63571 -0.847,0.63571 -0.2268,0 -0.4543,-0.55655 -0.6811,-0.55655 -0.1484,0 -0.2968,0.55655 -0.4452,0.55655 z"
       overflow="visible"
       style="overflow:visible;opacity:0.3;fill:url(#n);stroke-width:0.75971431;marker:none"
       id="path87"
       inkscape:connector-curvature="0" />
  </g>
</svg>
