<?xml version="1.0" encoding="UTF-8" standalone="no"?>
<svg
   inkscape:version="1.2.2 (b0a8486541, 2022-12-01)"
   sodipodi:docname="inode-chardevice.svg"
   version="1.1"
   id="svg2"
   height="32"
   width="32"
   xml:space="preserve"
   xmlns:inkscape="http://www.inkscape.org/namespaces/inkscape"
   xmlns:sodipodi="http://sodipodi.sourceforge.net/DTD/sodipodi-0.dtd"
   xmlns:xlink="http://www.w3.org/1999/xlink"
   xmlns="http://www.w3.org/2000/svg"
   xmlns:svg="http://www.w3.org/2000/svg"
   xmlns:rdf="http://www.w3.org/1999/02/22-rdf-syntax-ns#"
   xmlns:cc="http://creativecommons.org/ns#"
   xmlns:dc="http://purl.org/dc/elements/1.1/"><sodipodi:namedview
     inkscape:document-rotation="0"
     inkscape:current-layer="svg2"
     inkscape:window-maximized="1"
     inkscape:window-y="0"
     inkscape:window-x="0"
     inkscape:cy="7.3347348"
     inkscape:cx="-16.059713"
     inkscape:zoom="10.429825"
     showgrid="false"
     id="namedview47"
     inkscape:window-height="1359"
     inkscape:window-width="2560"
     inkscape:pageshadow="2"
     inkscape:pageopacity="0"
     guidetolerance="10"
     gridtolerance="10"
     objecttolerance="10"
     borderopacity="1"
     bordercolor="#666666"
     pagecolor="#ffffff"
     inkscape:showpageshadow="2"
     inkscape:pagecheckerboard="0"
     inkscape:deskcolor="#d1d1d1" /><defs
     id="defs4"><inkscape:path-effect
   effect="fillet_chamfer"
   id="path-effect870"
   is_visible="true"
   lpeversion="1"
   satellites_param="F,0,0,1,0,2,0,10 @ F,0,0,1,0,2,0,10 @ F,0,0,1,0,2,0,10 @ F,0,0,1,0,2,0,10"
   unit="px"
   method="auto"
   mode="F"
   radius="2"
   chamfer_steps="10"
   flexible="false"
   use_knot_distance="true"
   apply_no_radius="true"
   apply_with_radius="true"
   only_selected="false"
   hide_knots="false"
   nodesatellites_param="F,0,0,1,0,2,0,10 @ F,0,0,1,0,2,0,10 @ F,0,0,1,0,2,0,10 @ F,0,0,1,0,2,0,10" /><inkscape:path-effect
   effect="fillet_chamfer"
   id="path-effect868"
   is_visible="true"
   lpeversion="1"
   satellites_param="F,0,0,1,0,2,0,10 @ F,0,0,1,0,2,0,10 @ F,0,0,1,0,2,0,10 @ F,0,0,1,0,2,0,10"
   unit="px"
   method="auto"
   mode="F"
   radius="2"
   chamfer_steps="10"
   flexible="false"
   use_knot_distance="true"
   apply_no_radius="true"
   apply_with_radius="true"
   only_selected="false"
   hide_knots="false"
   nodesatellites_param="F,0,0,1,0,2,0,10 @ F,0,0,1,0,2,0,10 @ F,0,0,1,0,2,0,10 @ F,0,0,1,0,2,0,10" /><linearGradient
   id="linearGradient902"><stop
     style="stop-color:#770087;stop-opacity:1;"
     offset="0"
     id="stop898" /><stop
     style="stop-color:#452981;stop-opacity:1"
     offset="1"
     id="stop900" /></linearGradient><linearGradient
   id="linearGradient899"><stop
     offset="0"
     style="stop-color:#f282f1;stop-opacity:1"
     id="stop895" /><stop
     offset="1"
     style="stop-color:#a56de2;stop-opacity:1"
     id="stop897" /></linearGradient><linearGradient
   id="linearGradient916"><stop
     offset="0"
     style="stop-color:#ffffff;stop-opacity:1"
     id="stop912" /><stop
     offset="1"
     style="stop-color:#fafafa;stop-opacity:1"
     id="stop914" /></linearGradient><linearGradient
   id="linearGradient3688-166-749-654"><stop
     offset="0"
     style="stop-color:#181818;stop-opacity:1"
     id="stop3088" /><stop
     offset="1"
     style="stop-color:#181818;stop-opacity:0"
     id="stop3090" /></linearGradient><linearGradient
   id="linearGradient3688-464-309-604"><stop
     offset="0"
     style="stop-color:#181818;stop-opacity:1"
     id="stop3094" /><stop
     offset="1"
     style="stop-color:#181818;stop-opacity:0"
     id="stop3096" /></linearGradient><linearGradient
   id="linearGradient3702-501-757-795"><stop
     offset="0"
     style="stop-color:#181818;stop-opacity:0"
     id="stop3100" /><stop
     offset="0.5"
     style="stop-color:#181818;stop-opacity:1"
     id="stop3102" /><stop
     offset="1"
     style="stop-color:#181818;stop-opacity:0"
     id="stop3104" /></linearGradient><radialGradient
   r="2.5"
   fy="43.5"
   fx="4.9964824"
   cy="43.5"
   cx="4.9964824"
   gradientTransform="matrix(3.2060542,2.6349059e-7,-8.2185947e-8,1.0000077,36.981009,15.99962)"
   gradientUnits="userSpaceOnUse"
   id="radialGradient4730"
   xlink:href="#linearGradient3688-166-749-654" /><radialGradient
   r="2.5"
   fy="43.5"
   fx="4.9929786"
   cy="43.5"
   cx="4.9929786"
   gradientTransform="matrix(3.163875,0,0,0.99999995,-29.702994,-103.00012)"
   gradientUnits="userSpaceOnUse"
   id="radialGradient4732"
   xlink:href="#linearGradient3688-464-309-604" /><linearGradient
   y2="39.999443"
   x2="25.058096"
   y1="47.027729"
   x1="25.058096"
   gradientTransform="matrix(1.3928572,0,0,0.71428561,-0.0214163,28.42862)"
   gradientUnits="userSpaceOnUse"
   id="linearGradient4734"
   xlink:href="#linearGradient3702-501-757-795" /><linearGradient
   x1="38.660378"
   y1="5.8481169"
   x2="38.660378"
   y2="46.230125"
   id="linearGradient3381-5-4"
   xlink:href="#linearGradient3924-2-2-5-8"
   gradientUnits="userSpaceOnUse"
   gradientTransform="matrix(1.4324324,0,0,1.4362832,-7.3783796,-7.3995521)" /><linearGradient
   id="linearGradient3924-2-2-5-8"><stop
     id="stop3926-9-4-9-6"
     style="stop-color:#ffffff;stop-opacity:1"
     offset="0" /><stop
     id="stop3928-9-8-6-5"
     style="stop-color:#ffffff;stop-opacity:0.23529412"
     offset="0.06316455" /><stop
     id="stop3930-3-5-1-7"
     style="stop-color:#ffffff;stop-opacity:0.15686275"
     offset="0.95056331" /><stop
     id="stop3932-8-0-4-8"
     style="stop-color:#ffffff;stop-opacity:0.39215687"
     offset="1" /></linearGradient><linearGradient
   x1="161.97743"
   y1="10.027002"
   x2="161.97743"
   y2="55.027"
   id="linearGradient5809"
   xlink:href="#linearGradient916"
   gradientUnits="userSpaceOnUse"
   gradientTransform="matrix(0.47054764,0,0,0.47457626,-60.688645,-0.1484071)" /><linearGradient
   xlink:href="#linearGradient899"
   id="linearGradient910"
   gradientUnits="userSpaceOnUse"
   gradientTransform="matrix(0.4705882,0,0,0.47457626,-60.695255,-0.1484071)"
   x1="161.97743"
   y1="5.1520023"
   x2="161.97743"
   y2="63.027" /><linearGradient
   xlink:href="#linearGradient902"
   id="linearGradient904"
   x1="32"
   y1="0"
   x2="32"
   y2="60"
   gradientUnits="userSpaceOnUse" /><linearGradient
   xlink:href="#linearGradient899"
   id="linearGradient910-3"
   gradientUnits="userSpaceOnUse"
   gradientTransform="matrix(0.94117646,0,0,0.94915254,-73.044014,10.801587)"
   x1="161.97743"
   y1="5.1520023"
   x2="161.97743"
   y2="63.027" /><linearGradient
   xlink:href="#linearGradient899"
   id="linearGradient910-5"
   gradientUnits="userSpaceOnUse"
   gradientTransform="matrix(0.47054764,0,0,0.47457626,-76.305129,-44.360347)"
   x1="161.97743"
   y1="5.1520023"
   x2="161.97743"
   y2="63.027" /><filter
   height="1.0008914"
   y="-0.00044569657"
   width="1.00104"
   x="-0.00052002417"
   id="filter1218"
   style="color-interpolation-filters:sRGB"
   inkscape:collect="always"><feGaussianBlur
     id="feGaussianBlur1220"
     stdDeviation="0.0051997931"
     inkscape:collect="always" /></filter><inkscape:path-effect
   effect="fillet_chamfer"
   id="path-effect50"
   is_visible="true"
   lpeversion="1"
   satellites_param="F,0,0,1,0,2,0,10 @ F,0,0,1,0,2,0,10 @ F,0,0,1,0,2,0,10 @ F,0,0,1,0,2,0,10"
   unit="px"
   method="auto"
   mode="F"
   radius="2"
   chamfer_steps="10"
   flexible="false"
   use_knot_distance="true"
   apply_no_radius="true"
   apply_with_radius="true"
   only_selected="false"
   hide_knots="false"
   nodesatellites_param="F,0,0,1,0,2,0,10 @ F,0,0,1,0,2,0,10 @ F,0,0,1,0,2,0,10 @ F,0,0,1,0,2,0,10" /><inkscape:path-effect
   effect="fillet_chamfer"
   id="path-effect48"
   is_visible="true"
   lpeversion="1"
   satellites_param="F,0,0,1,0,2,0,10 @ F,0,0,1,0,2,0,10 @ F,0,0,1,0,2,0,10 @ F,0,0,1,0,2,0,10"
   unit="px"
   method="auto"
   mode="F"
   radius="2"
   chamfer_steps="10"
   flexible="false"
   use_knot_distance="true"
   apply_no_radius="true"
   apply_with_radius="true"
   only_selected="false"
   hide_knots="false"
   nodesatellites_param="F,0,0,1,0,2,0,10 @ F,0,0,1,0,2,0,10 @ F,0,0,1,0,2,0,10 @ F,0,0,1,0,2,0,10" /><radialGradient
   xlink:href="#linearGradient3688-166-749-654"
   id="radialGradient4730-0"
   gradientUnits="userSpaceOnUse"
   gradientTransform="matrix(3.2060542,2.6349059e-7,-8.2185947e-8,1.0000077,36.981009,15.99962)"
   cx="4.9964824"
   cy="43.5"
   fx="4.9964824"
   fy="43.5"
   r="2.5" /><radialGradient
   xlink:href="#linearGradient3688-166-749-654"
   id="radialGradient4732-62"
   gradientUnits="userSpaceOnUse"
   gradientTransform="matrix(3.163875,0,0,0.99999995,-29.702994,-103.00012)"
   cx="4.9929786"
   cy="43.5"
   fx="4.9929786"
   fy="43.5"
   r="2.5" /><inkscape:path-effect
   effect="fillet_chamfer"
   id="path-effect50-5"
   is_visible="true"
   lpeversion="1"
   satellites_param="F,0,0,1,0,2,0,10 @ F,0,0,1,0,2,0,10 @ F,0,0,1,0,2,0,10 @ F,0,0,1,0,2,0,10"
   unit="px"
   method="auto"
   mode="F"
   radius="2"
   chamfer_steps="10"
   flexible="false"
   use_knot_distance="true"
   apply_no_radius="true"
   apply_with_radius="true"
   only_selected="false"
   hide_knots="false"
   nodesatellites_param="F,0,0,1,0,2,0,10 @ F,0,0,1,0,2,0,10 @ F,0,0,1,0,2,0,10 @ F,0,0,1,0,2,0,10" /><inkscape:path-effect
   effect="fillet_chamfer"
   id="path-effect48-3"
   is_visible="true"
   lpeversion="1"
   satellites_param="F,0,0,1,0,2,0,10 @ F,0,0,1,0,2,0,10 @ F,0,0,1,0,2,0,10 @ F,0,0,1,0,2,0,10"
   unit="px"
   method="auto"
   mode="F"
   radius="2"
   chamfer_steps="10"
   flexible="false"
   use_knot_distance="true"
   apply_no_radius="true"
   apply_with_radius="true"
   only_selected="false"
   hide_knots="false"
   nodesatellites_param="F,0,0,1,0,2,0,10 @ F,0,0,1,0,2,0,10 @ F,0,0,1,0,2,0,10 @ F,0,0,1,0,2,0,10" /><radialGradient
   r="2.5"
   fy="43.5"
   fx="4.9964824"
   cy="43.5"
   cx="4.9964824"
   gradientTransform="matrix(3.2060542,2.6349059e-7,-8.2185947e-8,1.0000077,36.981009,15.99962)"
   gradientUnits="userSpaceOnUse"
   id="radialGradient4730-2"
   xlink:href="#linearGradient3688-166-749-654" /><radialGradient
   r="2.5"
   fy="43.5"
   fx="4.9929786"
   cy="43.5"
   cx="4.9929786"
   gradientTransform="matrix(3.163875,0,0,0.99999995,-29.702994,-103.00012)"
   gradientUnits="userSpaceOnUse"
   id="radialGradient4732-6"
   xlink:href="#linearGradient3688-166-749-654" />
	

		
		
		
		
	</defs><metadata
     id="metadata7"><rdf:RDF><cc:Work
         rdf:about=""><dc:format>image/svg+xml</dc:format><dc:type
           rdf:resource="http://purl.org/dc/dcmitype/StillImage" /></cc:Work></rdf:RDF></metadata><path
     style="opacity:0.2;vector-effect:none;fill:#000000;fill-opacity:1;stroke:none;stroke-width:0.472558;stroke-linecap:butt;stroke-linejoin:miter;stroke-miterlimit:4;stroke-dasharray:none;stroke-dashoffset:0;stroke-opacity:1;filter:url(#filter1218)"
     id="rect4897-1"
     y="2.7520487"
     x="4.0010357"
     ry="0"
     rx="0"
     height="28"
     width="23.997931"
     inkscape:path-effect="#path-effect870"
     d="M 6.0010357,2.7520487 H 25.998966 a 2,2 45 0 1 2,2 V 28.752049 a 2,2 135 0 1 -2,2 H 6.0010357 a 2,2 45 0 1 -2,-2 V 4.7520487 a 2,2 135 0 1 2,-2 z"
     sodipodi:type="rect" /><path
     style="opacity:1;vector-effect:none;fill:#eeeeee;fill-opacity:1;stroke:none;stroke-width:0.472578;stroke-linecap:butt;stroke-linejoin:miter;stroke-miterlimit:4;stroke-dasharray:none;stroke-dashoffset:0;stroke-opacity:1"
     id="rect4897"
     y="2"
     x="4"
     ry="0"
     rx="0"
     height="28"
     width="24"
     sodipodi:type="rect"
     d="m 6,2 h 20 a 2,2 45 0 1 2,2 v 24 a 2,2 135 0 1 -2,2 H 6 A 2,2 45 0 1 4,28 V 4 A 2,2 135 0 1 6,2 Z"
     inkscape:path-effect="#path-effect868" /><path
     d="M 9.7743389,8 C 8.8007719,8 7.9999998,8.805929 7.9999998,9.779497 V 22.225661 C 7.9999998,23.199228 8.8007718,24 9.7743389,24 H 22.220503 C 23.19407,24 24,23.199228 24,22.225661 V 9.779497 C 24,8.805929 23.19407,8 22.220503,8 Z m 0.2836881,1.41844 h 11.883946 l -1.733076,1.733075 H 11.791103 Z M 22.58156,10.058027 V 21.941973 L 21.080593,20.441006 V 20.399746 11.60542 11.559 Z m -13.1631202,0.0052 1.7330752,1.727918 v 8.417794 l -1.7330752,1.727918 z m 2.6357192,1.996132 h 8.123791 v 7.886524 h -8.123791 z m 4.585428,2.016763 0.892328,0.964539 h 0.567376 l -0.443585,-0.964539 z m 0.974855,1.304964 c -0.444875,4e-6 -0.780143,0.08339 -1.005802,0.242425 -0.225662,0.15904 -0.38212,0.401464 -0.474533,0.73243 l 0.820116,0.149581 c 0.05588,-0.159034 0.126369,-0.267781 0.216635,-0.330109 0.09026,-0.06447 0.220501,-0.098 0.381689,-0.098 0.238553,3e-6 0.39888,0.03826 0.484848,0.113476 0.08596,0.07307 0.128947,0.197294 0.128949,0.371373 v 0.08769 c -0.163337,0.06878 -0.45863,0.142276 -0.882011,0.221793 -0.313778,0.06018 -0.554482,0.12981 -0.722115,0.211476 -0.165485,0.07952 -0.294434,0.198154 -0.386847,0.350742 -0.09241,0.150441 -0.139265,0.322373 -0.139265,0.515796 0,0.292285 0.102299,0.535999 0.30432,0.727273 0.204168,0.191274 0.483128,0.283688 0.835589,0.283688 0.19987,0 0.385986,-0.03825 0.562218,-0.113476 0.176229,-0.07522 0.345582,-0.184826 0.500323,-0.335267 0.0064,0.01719 0.0159,0.04943 0.03095,0.103159 0.03438,0.118204 0.06404,0.208038 0.08768,0.268214 h 0.897485 c -0.07952,-0.163335 -0.13497,-0.317214 -0.165054,-0.459059 -0.02794,-0.143992 -0.04127,-0.364495 -0.04126,-0.665377 l 0.0052,-1.057382 c -3e-6,-0.393292 -0.03697,-0.663655 -0.118633,-0.8098 -0.07952,-0.148288 -0.220076,-0.266492 -0.417795,-0.361058 -0.197725,-0.09671 -0.498606,-0.149577 -0.902644,-0.149581 z m 0.551902,1.856867 v 0.180529 c -2e-6,0.217065 -0.01247,0.366216 -0.0361,0.443585 -0.03439,0.118204 -0.10703,0.217494 -0.216635,0.299161 -0.148293,0.107458 -0.300883,0.159898 -0.464217,0.159897 -0.146143,1e-6 -0.266496,-0.04169 -0.361057,-0.134107 -0.09456,-0.09241 -0.144424,-0.203309 -0.144423,-0.330109 -1e-6,-0.128948 0.05717,-0.235976 0.175371,-0.319794 0.07737,-0.05158 0.243712,-0.106167 0.495164,-0.159897 0.251449,-0.05373 0.435846,-0.100579 0.551902,-0.139265 z m -6.375241,3.610574 h 8.417794 l 1.727918,1.733075 h -11.87363 z"
     id="path64"
     style="fill:#646464;fill-opacity:1;stroke-width:0.165055" /></svg>
