<?xml version="1.0" encoding="UTF-8" standalone="no"?>
<svg
   width="16"
   height="16"
   version="1.1"
   id="svg4"
   sodipodi:docname="camera-photo-symbolic.svg"
   xml:space="preserve"
   inkscape:version="1.2.1 (9c6d41e410, 2022-07-14)"
   xmlns:inkscape="http://www.inkscape.org/namespaces/inkscape"
   xmlns:sodipodi="http://sodipodi.sourceforge.net/DTD/sodipodi-0.dtd"
   xmlns="http://www.w3.org/2000/svg"
   xmlns:svg="http://www.w3.org/2000/svg"><defs
     id="defs8" /><sodipodi:namedview
     id="namedview6"
     pagecolor="#ffffff"
     bordercolor="#000000"
     borderopacity="0.25"
     inkscape:showpageshadow="2"
     inkscape:pageopacity="0.0"
     inkscape:pagecheckerboard="0"
     inkscape:deskcolor="#d1d1d1"
     showgrid="false"
     inkscape:zoom="16.046875"
     inkscape:cx="-26.827654"
     inkscape:cy="19.006816"
     inkscape:current-layer="svg4"
     inkscape:window-width="2560"
     inkscape:window-height="1358"
     inkscape:window-x="0"
     inkscape:window-y="0"
     inkscape:window-maximized="1" /><path
     id="path237-3"
     style="fill:#dfdfdf;fill-opacity:1;stroke-width:0.7"
     d="m 6.685547,1.5253905 c -0.547498,0 -1.055323,0.2854037 -1.341797,0.7519532 L 4.730468,3.2734374 H 3.27539 C 2.01894,3.2734374 1,4.2923853 1,5.5488284 v 6.6503906 c 0,1.256428 1.01894,2.27539 2.27539,2.27539 h 9.449219 C 13.981038,14.474609 15,13.455647 15,12.199219 V 5.5488284 C 15,4.2923853 13.981038,3.2734374 12.724609,3.2734374 H 11.27539 L 10.705078,2.3027343 C 10.422279,1.8212048 9.906115,1.5253905 9.347656,1.5253905 Z M 8,6.1289064 A 2.7598283,2.7598283 0 0 1 10.759765,8.8886714 2.7598283,2.7598283 0 0 1 8,11.650391 2.7598283,2.7598283 0 0 1 5.240234,8.8886714 2.7598283,2.7598283 0 0 1 8,6.1289064 Z" /></svg>
