<?xml version="1.0" encoding="UTF-8" standalone="no"?>
<svg
   width="16"
   height="16"
   viewBox="0 0 16 16"
   version="1.1"
   id="svg7"
   sodipodi:docname="network-connect.svg"
   xml:space="preserve"
   inkscape:version="1.2.1 (9c6d41e410, 2022-07-14, custom)"
   xmlns:inkscape="http://www.inkscape.org/namespaces/inkscape"
   xmlns:sodipodi="http://sodipodi.sourceforge.net/DTD/sodipodi-0.dtd"
   xmlns="http://www.w3.org/2000/svg"
   xmlns:svg="http://www.w3.org/2000/svg"><sodipodi:namedview
     id="namedview9"
     pagecolor="#ffffff"
     bordercolor="#000000"
     borderopacity="0.25"
     inkscape:showpageshadow="2"
     inkscape:pageopacity="0.0"
     inkscape:pagecheckerboard="0"
     inkscape:deskcolor="#d1d1d1"
     showgrid="false"
     inkscape:zoom="16.046875"
     inkscape:cx="-21.000974"
     inkscape:cy="2.8977605"
     inkscape:current-layer="svg7"
     inkscape:window-width="2560"
     inkscape:window-height="1357"
     inkscape:window-x="0"
     inkscape:window-y="0"
     inkscape:window-maximized="1" /><defs
     id="defs3"><style
       id="current-color-scheme"
       type="text/css">
   .ColorScheme-Text { color:#444444; } .ColorScheme-Highlight { color:#4285f4; }
  </style><style
       id="current-color-scheme-5"
       type="text/css">
   .ColorScheme-Text { color:#444444; } .ColorScheme-Highlight { color:#4285f4; }
  </style><style
       id="current-color-scheme-3"
       type="text/css">
   .ColorScheme-Text { color:#444444; } .ColorScheme-Highlight { color:#4285f4; }
  </style></defs><path
     style="fill:#dfdfdf;fill-opacity:1"
     class="ColorScheme-Text"
     d="M 8.0000001,0.9999996 C 4.1340001,0.9999996 1,4.1339996 1,7.9999994 1,11.866 4.1340001,15 8.0000001,15 11.866,15 15,11.866 15,7.9999994 15,4.1339996 11.866,0.9999996 8.0000001,0.9999996 Z m -0.5,1.9375001 c 0.0669,-0.007 0.15125,0.004 0.21875,0 0.008,0.032 -0.0487,0.14587 -0.125,0.3125 -0.48586,1.0613999 -0.51342,2.3043499 -0.0625,2.96875 0.0816,0.12046 0.15625,0.2350999 0.15625,0.25 0,0.0149 -0.088,0.03125 -0.1875,0.03125 -0.23358,0 -0.45462,-0.1423699 -0.90625,-0.5 -0.20063,-0.15887 -0.46145,-0.2923 -0.5625,-0.3125 -0.15868,-0.0317 -0.20097,-0.0178 -0.40625,0.1875 -0.19099,0.1909599 -0.25,0.2939299 -0.25,0.46875 0,0.6629399 0.78708,1.1899 2.25,1.4999997 1.9867,0.42107 2.4764499,0.79907 2.5312499,1.84375 C 10.22505,10.9975 9.5276001,11.9853 8.0000001,12.75 c -0.18233,0.0913 -0.2985,0.12675 -0.375,0.15625 -0.0339,-0.003 -0.05995,0.003 -0.09375,0 -0.013,-0.0405 -0.03125,-0.13446 -0.03125,-0.3125 0,-0.69578 -0.27425,-1.412 -0.6875,-1.8125 -0.11093,-0.10752 -0.42152,-0.33535 -0.6875,-0.5 -0.26597,-0.16464 -0.53395,-0.3559006 -0.59375,-0.4375006 -0.0991,-0.13541 -0.10739,-0.2186 -0.03125,-0.46875 0.13876,-0.45687 0.30392,-0.71133 0.625,-1 0.16833,-0.15134 0.33771,-0.27825 0.375,-0.28125 0.0373,-0.003 -0.21515,-0.0788 -0.59375,-0.15625 -0.37858,-0.0776 -0.93242,-0.2401197 -1.21875,-0.3437497 -0.52358,-0.18945 -1.2305,-0.5871601 -1.5,-0.875 -0.0114,-0.0122 -0.02135,-0.02045 -0.03125,-0.03125 0.38613,-1.5381 1.46975,-2.79875 2.90625,-3.40625 0.30057,-0.12713 0.61042,-0.21435 0.9375,-0.28125 0.16292,-0.0333 0.33178,-0.0454 0.5,-0.0625 z m 4.6874999,2.34375 c 0.11745,0.0726 0.56091,1.032 0.6875,1.5 0.16344,0.6041899 0.15161,1.6497997 0,2.2499997 -0.0577,0.22844 -0.13165,0.44215 -0.15625,0.46875 -0.0246,0.0266 -0.11381,-0.12653 -0.21875,-0.3125 -0.10495,-0.18594 -0.44016,-0.58105 -0.71875,-0.875 -0.80414,-0.8485297 -0.93059,-1.2915498 -0.59375,-1.9687497 0.16987,-0.34149 0.9091,-1.1186 1,-1.0625 z"
     id="path160" /></svg>
