<?xml version="1.0" encoding="UTF-8" standalone="no"?>
<svg
   width="16"
   height="16"
   version="1.1"
   viewBox="0 0 16 16"
   id="svg9"
   sodipodi:docname="task-past-due.svg"
   xml:space="preserve"
   inkscape:version="1.2.1 (9c6d41e410, 2022-07-14, custom)"
   xmlns:inkscape="http://www.inkscape.org/namespaces/inkscape"
   xmlns:sodipodi="http://sodipodi.sourceforge.net/DTD/sodipodi-0.dtd"
   xmlns="http://www.w3.org/2000/svg"
   xmlns:svg="http://www.w3.org/2000/svg"><sodipodi:namedview
     id="namedview11"
     pagecolor="#ffffff"
     bordercolor="#000000"
     borderopacity="0.25"
     inkscape:showpageshadow="2"
     inkscape:pageopacity="0.0"
     inkscape:pagecheckerboard="0"
     inkscape:deskcolor="#d1d1d1"
     showgrid="false"
     inkscape:zoom="46.4375"
     inkscape:cx="8"
     inkscape:cy="7.9892328"
     inkscape:window-width="1920"
     inkscape:window-height="1007"
     inkscape:window-x="0"
     inkscape:window-y="0"
     inkscape:window-maximized="1"
     inkscape:current-layer="svg9" /><defs
     id="defs3"><style
       id="current-color-scheme"
       type="text/css">
   .ColorScheme-Text { color:#444444; } .ColorScheme-Highlight { color:#4285f4; }
  </style><style
       id="current-color-scheme-6"
       type="text/css">
   .ColorScheme-Text { color:#444444; } .ColorScheme-Highlight { color:#4285f4; }
  </style><style
       id="current-color-scheme-5"
       type="text/css">
   .ColorScheme-Text { color:#444444; } .ColorScheme-Highlight { color:#4285f4; }
  </style></defs><path
     style="opacity:0.3;fill:#dfdfdf;fill-opacity:1"
     class="ColorScheme-Text"
     d="M 7,0 A 2,2 0 0 0 5,2 H 1 C 0.446,2 0,2.45 0,3 v 11 c 0,0.55 0.446,1 1,1 H 9 V 12 H 3 v -1 h 6 v -1 h 5 V 3 C 14,2.45 13.554,2 13,2 H 9 A 2,2 0 0 0 7,0 Z M 7,1 A 1,1 0 0 1 8,2 1,1 0 0 1 7,3 1,1 0 0 1 6,2 1,1 0 0 1 7,1 Z M 3,5 h 8 V 6 H 3 Z m 0,3 h 8 V 9 H 3 Z"
     id="path5" /><path
     style="fill:#dfdfdf;fill-opacity:1"
     class="ColorScheme-Text"
     d="m 10,11 v 1 c 0,0.28 0.1,0.54 0.28,0.72 l 0.78,0.78 -0.78,0.78 C 10.1,14.46 10,14.72 10,15 v 1 h 1 c 0.28,0 0.54,-0.1 0.72,-0.28 l 0.78,-0.78 0.78,0.78 C 13.46,15.9 13.72,16 14,16 h 1 v -1 c 0,-0.28 -0.1,-0.54 -0.28,-0.72 L 13.94,13.5 14.72,12.72 C 14.9,12.54 15,12.28 15,12 v -1 h -1 c -0.28,0 -0.54,0.1 -0.72,0.28 L 12.5,12.06 11.72,11.28 C 11.54,11.1 11.28,11 11,11 Z"
     id="path7" /></svg>
