<?xml version="1.0" encoding="UTF-8" standalone="no"?>
<svg
   width="16"
   height="16"
   viewBox="0 0 16 16"
   version="1.1"
   id="svg7"
   sodipodi:docname="network-disconnect.svg"
   xml:space="preserve"
   inkscape:version="1.2.1 (9c6d41e410, 2022-07-14, custom)"
   xmlns:inkscape="http://www.inkscape.org/namespaces/inkscape"
   xmlns:sodipodi="http://sodipodi.sourceforge.net/DTD/sodipodi-0.dtd"
   xmlns="http://www.w3.org/2000/svg"
   xmlns:svg="http://www.w3.org/2000/svg"><sodipodi:namedview
     id="namedview9"
     pagecolor="#ffffff"
     bordercolor="#000000"
     borderopacity="0.25"
     inkscape:showpageshadow="2"
     inkscape:pageopacity="0.0"
     inkscape:pagecheckerboard="0"
     inkscape:deskcolor="#d1d1d1"
     showgrid="false"
     inkscape:zoom="16.046875"
     inkscape:cx="-21.000974"
     inkscape:cy="2.8977605"
     inkscape:current-layer="svg7"
     inkscape:window-width="2560"
     inkscape:window-height="1357"
     inkscape:window-x="0"
     inkscape:window-y="0"
     inkscape:window-maximized="1" /><defs
     id="defs3"><style
       id="current-color-scheme"
       type="text/css">
   .ColorScheme-Text { color:#444444; } .ColorScheme-Highlight { color:#4285f4; }
  </style><style
       id="current-color-scheme-3"
       type="text/css">
   .ColorScheme-Text { color:#444444; } .ColorScheme-Highlight { color:#4285f4; }
  </style></defs><path
     style="fill:#f44336;fill-opacity:1"
     class="ColorScheme-Text"
     d="m 8,0.99999985 c -3.8660001,0 -7.00000008,3.13399985 -7.00000008,6.99999995 C 0.99999992,11.866 4.1339999,15 8,15 11.866,15 15,11.866 15,7.9999998 15,4.1339997 11.866,0.99999985 8,0.99999985 Z M 7.4999999,2.9374998 c 0.0669,-0.007 0.15125,0.004 0.2187501,0 0.008,0.032 -0.0487,0.14587 -0.1250001,0.3125 -0.48586,1.0613999 -0.51342,2.3043499 -0.0625,2.96875 0.0816,0.12046 0.1562501,0.2350999 0.1562501,0.25 0,0.0149 -0.088,0.03125 -0.1875001,0.03125 -0.23358,0 -0.45462,-0.1423699 -0.90625,-0.5 -0.20063,-0.15887 -0.46145,-0.2923 -0.5625,-0.3125 -0.15868,-0.0317 -0.20097,-0.0178 -0.40625,0.1875 -0.19099,0.1909599 -0.25,0.2939299 -0.25,0.46875 0,0.6629399 0.78708,1.1899 2.25,1.5 C 9.6117,8.2648198 10.10145,8.6428199 10.15625,9.6875002 10.22505,10.9975 9.5276,11.9853 8,12.75 c -0.18233,0.0913 -0.2985,0.12675 -0.3750001,0.15625 -0.0339,-0.003 -0.05995,0.003 -0.09375,0 -0.013,-0.0405 -0.03125,-0.13446 -0.03125,-0.3125 0,-0.69578 -0.27425,-1.412 -0.6875,-1.8125 -0.11093,-0.10752 -0.42152,-0.33535 -0.6875,-0.5 -0.26597,-0.16464 -0.53395,-0.3558998 -0.59375,-0.4374998 -0.0991,-0.13541 -0.10739,-0.2186 -0.03125,-0.4687503 0.13876,-0.4568701 0.30392,-0.7113301 0.625,-1 0.16833,-0.1513401 0.33771,-0.2782501 0.375,-0.28125 0.0373,-0.003 -0.21515,-0.0788 -0.59375,-0.1562501 -0.37858,-0.0776 -0.93242,-0.2401199 -1.21875,-0.34375 -0.52358,-0.18945 -1.2305,-0.5871601 -1.5,-0.875 -0.0114,-0.0122 -0.02135,-0.02045 -0.03125,-0.03125 0.38613,-1.5381 1.46975,-2.7987499 2.90625,-3.4062499 0.30057,-0.1271301 0.61042,-0.21435 0.9375,-0.28125 0.16292,-0.0333 0.33178,-0.0454 0.5,-0.0625 z m 4.6875001,2.34375 c 0.11745,0.0726 0.56091,1.032 0.6875,1.5 0.16344,0.6041899 0.15161,1.6498 0,2.2500001 -0.0577,0.22844 -0.13165,0.4421499 -0.15625,0.46875 -0.0246,0.0266 -0.11381,-0.1265301 -0.21875,-0.3125 -0.10495,-0.18594 -0.44016,-0.5810501 -0.71875,-0.875 -0.80414,-0.8485301 -0.93059,-1.2915502 -0.59375,-1.9687501 0.16987,-0.34149 0.9091,-1.1186 1,-1.0625 z"
     id="path160" /></svg>
