<?xml version="1.0" encoding="UTF-8" standalone="no"?>
<svg
   width="16"
   height="16"
   viewBox="0 0 16 16"
   version="1.1"
   id="svg7"
   sodipodi:docname="rabbitvcs-asynchronous.svg"
   xml:space="preserve"
   inkscape:version="1.2.1 (9c6d41e410, 2022-07-14, custom)"
   xmlns:inkscape="http://www.inkscape.org/namespaces/inkscape"
   xmlns:sodipodi="http://sodipodi.sourceforge.net/DTD/sodipodi-0.dtd"
   xmlns="http://www.w3.org/2000/svg"
   xmlns:svg="http://www.w3.org/2000/svg"><sodipodi:namedview
     id="namedview9"
     pagecolor="#ffffff"
     bordercolor="#000000"
     borderopacity="0.25"
     inkscape:showpageshadow="2"
     inkscape:pageopacity="0.0"
     inkscape:pagecheckerboard="0"
     inkscape:deskcolor="#d1d1d1"
     showgrid="false"
     inkscape:zoom="45.387416"
     inkscape:cx="2.5337419"
     inkscape:cy="6.7639893"
     inkscape:current-layer="g389"
     inkscape:window-width="1920"
     inkscape:window-height="1007"
     inkscape:window-x="0"
     inkscape:window-y="0"
     inkscape:window-maximized="1" /><defs
     id="defs3"><style
       id="current-color-scheme"
       type="text/css">
   .ColorScheme-Text { color:#444444; } .ColorScheme-Highlight { color:#4285f4; }
  </style></defs><g
     id="g389"
     transform="scale(0.33333333)"><g
       id="g852"><path
         style="color:#000000;fill:#444444;fill-opacity:1;stroke-linecap:round;stroke-linejoin:round;-inkscape-stroke:none"
         d="m 34,32 a 2,2 0 0 0 -2,2 2,2 0 0 0 2,2 h 3.298828 C 34.008013,39.648279 29.314939,42 24,42 a 2,2 0 0 0 -2,2 2,2 0 0 0 2,2 c 5.962959,0 11.356271,-2.413973 15.324219,-6.279297 v 1.603516 a 2,2 0 0 0 2,2 2,2 0 0 0 2,-2 V 34 a 2,2 0 0 0 -0.05078,-0.259766 2,2 0 0 0 -0.07617,-0.373047 2,2 0 0 0 -0.02539,-0.132812 2,2 0 0 0 -0.144531,-0.216797 2,2 0 0 0 -0.216797,-0.322266 2,2 0 0 0 -0.28711,-0.253906 2,2 0 0 0 -0.197265,-0.171875 2,2 0 0 0 -0.04297,0.01172 A 2,2 0 0 0 41.324219,32 Z"
         id="path3894" /><path
         style="color:#000000;fill:#444444;fill-opacity:1;stroke-linecap:round;stroke-linejoin:round;-inkscape-stroke:none"
         d="m 4,22 a 2,2 0 0 0 -2,2 c 0,5.962957 2.4139717,11.35627 6.2792969,15.324219 H 6.6757812 a 2,2 0 0 0 -2,2 2,2 0 0 0 2,2 H 14 a 2,2 0 0 0 1.414063,-0.585938 2,2 0 0 0 0.152343,-0.36914 2,2 0 0 0 0.164063,-0.04297 2,2 0 0 0 0.240234,-0.929688 A 2,2 0 0 0 16,41.324219 V 34 a 2,2 0 0 0 -2,-2 2,2 0 0 0 -2,2 v 3.298828 C 8.3517188,34.008014 6,29.314941 6,24 A 2,2 0 0 0 4,22 Z"
         id="path3891" /><path
         style="color:#000000;fill:#444444;fill-opacity:1;stroke-linecap:round;stroke-linejoin:round;-inkscape-stroke:none"
         d="M 24,2 C 18.037043,2 12.643715,4.4139767 8.6757813,8.2792969 V 6.6757812 a 2,2 0 0 0 -2.0000001,-2 2,2 0 0 0 -2,2 V 14 a 2,2 0 0 0 0.1035157,0.25 2,2 0 0 0 0.28125,0.679688 2,2 0 0 0 0.4492187,0.58789 2,2 0 0 0 0.1640625,0.212891 2,2 0 0 0 0.5175781,0.06836 A 2,2 0 0 0 6.6757812,16 H 14 a 2,2 0 0 0 2,-2 2,2 0 0 0 -2,-2 H 10.701172 C 13.991984,8.3517107 18.685059,6 24,6 A 2,2 0 0 0 26,4 2,2 0 0 0 24,2 Z"
         id="path3888" /><path
         style="color:#000000;fill:#444444;fill-opacity:1;stroke:none;stroke-width:0.999;stroke-linecap:round;stroke-linejoin:round;stroke-dasharray:none"
         d="m 34,4.6757812 a 2,2 0 0 0 -0.25,0.1035157 2,2 0 0 0 -0.679688,0.28125 2,2 0 0 0 -0.58789,0.4492187 2,2 0 0 0 -0.212891,0.1640625 2,2 0 0 0 -0.06836,0.5175781 A 2,2 0 0 0 32,6.6757812 V 14 a 2,2 0 0 0 2,2 2,2 0 0 0 2,-2 V 10.701172 C 39.648285,13.991974 42,18.685061 42,24 a 2,2 0 0 0 2,2 2,2 0 0 0 2,-2 C 46,18.037041 43.586023,12.643707 39.720703,8.6757813 h 1.603516 a 2,2 0 0 0 2,-2.0000001 2,2 0 0 0 -2,-2 z"
         id="path3885" /></g></g></svg>
