<?xml version="1.0" encoding="UTF-8" standalone="no"?>
<svg
   width="16"
   height="16"
   version="1.1"
   id="svg4"
   sodipodi:docname="bluetooth-disabled-symbolic.svg"
   xml:space="preserve"
   inkscape:version="1.2.1 (9c6d41e410, 2022-07-14)"
   xmlns:inkscape="http://www.inkscape.org/namespaces/inkscape"
   xmlns:sodipodi="http://sodipodi.sourceforge.net/DTD/sodipodi-0.dtd"
   xmlns="http://www.w3.org/2000/svg"
   xmlns:svg="http://www.w3.org/2000/svg"><defs
     id="defs8" /><sodipodi:namedview
     id="namedview6"
     pagecolor="#505050"
     bordercolor="#ffffff"
     borderopacity="1"
     inkscape:showpageshadow="0"
     inkscape:pageopacity="0"
     inkscape:pagecheckerboard="1"
     inkscape:deskcolor="#505050"
     showgrid="false"
     inkscape:zoom="23.931145"
     inkscape:cx="-9.6735864"
     inkscape:cy="3.0504182"
     inkscape:window-width="2560"
     inkscape:window-height="1358"
     inkscape:window-x="0"
     inkscape:window-y="0"
     inkscape:window-maximized="1"
     inkscape:current-layer="svg4" /><g
     id="g1203"
     transform="translate(18.210772,0.27683347)"><path
       id="path2-53"
       style="fill:#dfdfdf;fill-opacity:1"
       d="m -11.426797,-0.2736847 a 1.0001,1.0001 0 0 0 -0.359375,0.0957031 1.0001,1.0001 0 0 0 -0.566406,0.90039063 V 4.7888153 l -2.386719,-1.8554687 a 1,1 0 0 0 -1.160156,-0.033203 l 1.515625,1.5156249 3.113281,3.1113281 2.855469,2.8574214 0.447266,0.347657 -0.05469,0.04492 0.75,0.75 0.673828,0.673828 0.871096,-0.697264 A 1.0001,1.0001 0 0 0 -5.739298,9.9333471 L -8.5810936,7.722409 -5.739297,5.5114715 a 1.0001,1.0001 0 0 0 0.011719,-1.5703124 l -5,-4.00000005 a 1.0001,1.0001 0 0 0 -0.699219,-0.21484375 z m 1.074219,3.0781249 2.384766,1.9082032 L -10.21,6.456784 -10.352578,6.3454559 Z m -2.197266,5.4707033 -3.416015,2.6582035 a 1,1 0 0 0 -0.175781,1.402343 1,1 0 0 0 1.402343,0.175781 l 2.386719,-1.855468 v 4.066406 a 1.0001,1.0001 0 0 0 1.625,0.78125 l 3.003906,-2.402344 -1.4238279,-1.423828 -1.2050781,0.962891 v -2.167969 z" /><path
       id="path2-5"
       style="fill:#dfdfdf;fill-opacity:1"
       d="M -17.741735,1.0602794 -3.741851,15.060166 -2.679809,13.998124 -3.211521,13.466413 -6.2112,10.466734 -7.211093,9.4668404 l -2.999678,-2.99968 -3.112928,-3.1129269 -3.355995,-3.35599508 z" /></g></svg>
