<?xml version="1.0" encoding="UTF-8" standalone="no"?>
<svg
   width="16"
   height="16"
   version="1.1"
   id="svg4"
   sodipodi:docname="network-wired-no-route-symbolic.svg"
   xml:space="preserve"
   inkscape:version="1.2.2 (b0a8486541, 2022-12-01)"
   xmlns:inkscape="http://www.inkscape.org/namespaces/inkscape"
   xmlns:sodipodi="http://sodipodi.sourceforge.net/DTD/sodipodi-0.dtd"
   xmlns="http://www.w3.org/2000/svg"
   xmlns:svg="http://www.w3.org/2000/svg"><defs
     id="defs8" /><sodipodi:namedview
     id="namedview6"
     pagecolor="#ffffff"
     bordercolor="#000000"
     borderopacity="0.25"
     inkscape:showpageshadow="2"
     inkscape:pageopacity="0.0"
     inkscape:pagecheckerboard="0"
     inkscape:deskcolor="#d1d1d1"
     showgrid="false"
     inkscape:zoom="22.627417"
     inkscape:cx="-10.00998"
     inkscape:cy="12.794213"
     inkscape:current-layer="svg4"
     inkscape:window-width="2560"
     inkscape:window-height="1359"
     inkscape:window-x="0"
     inkscape:window-y="0"
     inkscape:window-maximized="1" /><path
     id="path2"
     style="opacity:0.3;fill:#dfdfdf;stroke-width:1.06665"
     d="m 1.5996092,1.6005861 c 0,0 -1.0664062,-2.345e-4 -1.0664062,1.0664062 v 9.5996097 c 0,1.066642 1.0664062,1.066406 1.0664062,1.066406 h 2.1328126 l 1.0664062,1.066406 h 6.400391 l 1.066406,-1.066406 h 2.134766 c 0,0 1.066406,0.138899 1.066406,-1.066406 V 2.6669923 c 0,-1.0666407 -1.066407,-1.0664062 -1.066406,-1.0664062 z m 6.3691407,0.6621093 a 4.1199951,4.1199951 0 0 1 3.1542971,1.4707031 h 2.208984 v 7.4667965 h -2.132812 l -1.066407,1.066407 H 9.5761718 A 1.6109924,1.6109924 0 0 1 7.970703,13.791992 1.6109924,1.6109924 0 0 1 6.3652342,12.266602 H 5.8671874 L 4.798828,11.200195 H 2.6660155 V 3.7333985 H 4.8183592 A 4.1199951,4.1199951 0 0 1 7.9687499,2.2626954 Z" /><path
     style="fill:#999999;fill-opacity:1"
     d="M 8,8"
     id="path499" /><g
     id="g533"
     style="fill:#dfdfdf;fill-opacity:1"
     transform="translate(0.56405814,0.88394686)"><path
       style="fill:#dfdfdf;fill-opacity:1"
       d="m 7.4368775,10.114333 c -0.550781,0 -1,0.449219 -1,1 0,0.550781 0.449219,1 1,1 0.550781,0 1,-0.449219 1,-1 0,-0.550781 -0.449219,-1 -1,-1 z"
       id="path497" /><path
       style="fill:#dfdfdf;fill-opacity:1"
       d="m 7.5892215,2.122145 c -0.4375,-0.023437 -0.882813,0.046876 -1.300782,0.222657 -1.117187,0.460937 -1.851562,1.558593 -1.851562,2.769531 h 2 c 0,-0.40625 0.242188,-0.769531 0.617188,-0.921875 0.375,-0.15625 0.800781,-0.074219 1.089843,0.214844 0.289063,0.289062 0.371094,0.714843 0.21875,1.089843 -0.15625,0.375 -0.519531,0.617188 -0.925781,0.617188 -0.550781,0 -1,0.449219 -1,1.0000002 v 2 h 2 v -1.179688 c 0.785156,-0.28125 1.441406,-0.875 1.7695305,-1.6718742 C 10.671252,5.145583 10.413439,3.848708 9.5579715,2.993239 9.0228155,2.458083 8.3157835,2.157302 7.5892215,2.122145 Z"
       id="path4" /></g></svg>
