<?xml version="1.0" encoding="UTF-8" standalone="no"?>
<svg
   height="16px"
   viewBox="0 0 16 16"
   width="16px"
   version="1.1"
   id="svg4"
   sodipodi:docname="software-update-available-symbolic.svg"
   inkscape:version="1.2.1 (9c6d41e410, 2022-07-14, custom)"
   xmlns:inkscape="http://www.inkscape.org/namespaces/inkscape"
   xmlns:sodipodi="http://sodipodi.sourceforge.net/DTD/sodipodi-0.dtd"
   xmlns="http://www.w3.org/2000/svg"
   xmlns:svg="http://www.w3.org/2000/svg">
  <defs
     id="defs8" />
  <sodipodi:namedview
     id="namedview6"
     pagecolor="#505050"
     bordercolor="#ffffff"
     borderopacity="1"
     inkscape:showpageshadow="0"
     inkscape:pageopacity="0"
     inkscape:pagecheckerboard="1"
     inkscape:deskcolor="#505050"
     showgrid="false"
     inkscape:zoom="67.6875"
     inkscape:cx="8.0443213"
     inkscape:cy="8.0443213"
     inkscape:window-width="2560"
     inkscape:window-height="1357"
     inkscape:window-x="0"
     inkscape:window-y="0"
     inkscape:window-maximized="1"
     inkscape:current-layer="svg4" />
  <path
     d="m 8 0 c -0.257812 0 -0.511719 0.0976562 -0.707031 0.292969 l -1.707031 1.707031 h -2.585938 c -0.550781 0 -1 0.449219 -1 1 v 2.585938 l -1.707031 1.707031 c -0.3906252 0.390625 -0.3906252 1.023437 0 1.414062 l 1.707031 1.707031 v 2.585938 c 0 0.550781 0.449219 1 1 1 h 2.585938 l 1.707031 1.707031 c 0.390625 0.390625 1.023437 0.390625 1.414062 0 l 1.707031 -1.707031 h 2.585938 c 0.550781 0 1 -0.449219 1 -1 v -2.585938 l 1.707031 -1.707031 c 0.390625 -0.390625 0.390625 -1.023437 0 -1.414062 l -1.707031 -1.707031 v -2.585938 c 0 -0.550781 -0.449219 -1 -1 -1 h -2.585938 l -1.707031 -1.707031 c -0.195312 -0.1953128 -0.449219 -0.292969 -0.707031 -0.292969 z m 0 5 c 0.257812 0 0.511719 0.097656 0.707031 0.292969 l 2 2 c 0.183594 0.1875 0.289063 0.441406 0.285157 0.707031 h 0.007812 v 1 h -2 v 2 h -2 v -2 h -2 v -1 h 0.007812 c -0.003906 -0.265625 0.101563 -0.519531 0.285157 -0.707031 l 2 -2 c 0.195312 -0.195313 0.449219 -0.292969 0.707031 -0.292969 z m 0 0"
     id="path2"
     style="fill:#dfdfdf;fill-opacity:1.0" />
</svg>
