<?xml version="1.0" encoding="UTF-8" standalone="no"?>
<svg
   width="16"
   height="16"
   version="1.1"
   id="svg6"
   sodipodi:docname="touchpad-disabled-symbolic.svg"
   xml:space="preserve"
   inkscape:version="1.2.1 (9c6d41e410, 2022-07-14)"
   xmlns:inkscape="http://www.inkscape.org/namespaces/inkscape"
   xmlns:sodipodi="http://sodipodi.sourceforge.net/DTD/sodipodi-0.dtd"
   xmlns="http://www.w3.org/2000/svg"
   xmlns:svg="http://www.w3.org/2000/svg"><defs
     id="defs10" /><sodipodi:namedview
     id="namedview8"
     pagecolor="#ffffff"
     bordercolor="#000000"
     borderopacity="0.25"
     inkscape:showpageshadow="2"
     inkscape:pageopacity="0.0"
     inkscape:pagecheckerboard="0"
     inkscape:deskcolor="#d1d1d1"
     showgrid="false"
     inkscape:zoom="22.693708"
     inkscape:cx="-3.5913038"
     inkscape:cy="3.7014665"
     inkscape:current-layer="svg6"
     inkscape:window-width="2560"
     inkscape:window-height="1358"
     inkscape:window-x="0"
     inkscape:window-y="0"
     inkscape:window-maximized="1" /><g
     id="g1419"
     transform="translate(23.127773,-0.43829035)"><path
       id="path234"
       style="fill:#dfdfdf;fill-opacity:1"
       d="m -21.903139,1.9442797 -0.08594,0.085937 1.914062,1.9140625 h 10.947266 v 6 h -4.947266 l 1,1.0000008 h 3.947266 v 2 h -1.947266 l 2,2 h 0.947266 c 0,0 1,-10e-7 1,-1 V 2.9442797 c 0,-0.999998 -1,-1 -1,-1 z m -1.222656,0.9746094 c -6.6e-5,0.00315 -0.002,0.025391 -0.002,0.025391 V 13.94428 c 0,0 2e-6,1 1,1 h 11.027344 l -2,-2 h -1.027344 v -1.027344 l -1.972656,-1.9726563 h -5.027344 V 4.9169359 Z m 1.998047,8.0253909 h 5 v 2 h -5 z" /><path
       id="path2-5"
       style="fill:#dfdfdf;fill-opacity:1"
       d="m -22.052748,2.0693207 13.799979,13.7999803 1.062042,-1.062042 -0.331807,-0.331805 -2.999679,-2.999679 -0.999893,-0.999893 -2.999678,-2.9996803 -3.112928,-3.112927 -3.355995,-3.355995 z" /></g></svg>
