<?xml version="1.0" encoding="UTF-8" standalone="no"?>
<svg
   width="16"
   height="16"
   version="1.1"
   id="svg4"
   sodipodi:docname="touch-disabled-symbolic.svg"
   xml:space="preserve"
   inkscape:version="1.2.1 (9c6d41e410, 2022-07-14)"
   xmlns:inkscape="http://www.inkscape.org/namespaces/inkscape"
   xmlns:sodipodi="http://sodipodi.sourceforge.net/DTD/sodipodi-0.dtd"
   xmlns="http://www.w3.org/2000/svg"
   xmlns:svg="http://www.w3.org/2000/svg"><defs
     id="defs8" /><sodipodi:namedview
     id="namedview6"
     pagecolor="#505050"
     bordercolor="#ffffff"
     borderopacity="1"
     inkscape:showpageshadow="0"
     inkscape:pageopacity="0"
     inkscape:pagecheckerboard="1"
     inkscape:deskcolor="#505050"
     showgrid="false"
     inkscape:zoom="5.9827863"
     inkscape:cx="-50.060287"
     inkscape:cy="0.5014386"
     inkscape:window-width="2560"
     inkscape:window-height="1358"
     inkscape:window-x="0"
     inkscape:window-y="0"
     inkscape:window-maximized="1"
     inkscape:current-layer="svg4" /><g
     id="g1548"
     transform="translate(23.753926,0.02219587)"><path
       id="path287"
       style="fill:#dfdfdf;fill-opacity:1;stroke-width:0.0712021"
       d="m -15.498908,0.49210955 a 7.6710131,7.6710131 0 0 0 -2.564453,0.4375 0.8546395,0.8546395 0 1 0 0.570312,1.61132815 5.9856849,5.9856849 0 0 1 7.97461,5.640625 19.767059,19.767059 0 0 1 -0.486328,4.3671873 0.85439897,0.85439897 0 1 0 1.666015,0.378907 21.474616,21.474616 0 0 0 0.529297,-4.7460943 7.698496,7.698496 0 0 0 -7.689453,-7.68945315 z m -4.414063,1.75195315 a 0.85441251,0.85441251 0 0 0 -0.71289,0.2070312 7.7014253,7.7014253 0 0 0 -0.509766,0.5253907 l 1.210938,1.2109374 a 5.990768,5.990768 0 0 1 0.4375,-0.4648437 0.85441251,0.85441251 0 0 0 -0.425782,-1.4785156 z m 4.572266,1.6679687 a 4.2721988,4.2721988 0 0 0 -3.373047,1.4863282 l 1.214844,1.2148437 a 2.5661653,2.5661653 0 0 1 2,-0.9941406 2.5674869,2.5674869 0 0 1 1.910156,0.8535156 0.85445791,0.85445791 0 1 0 1.273438,-1.1386719 4.2721988,4.2721988 0 0 0 -3.025391,-1.421875 z m -6.681641,0.2050782 a 7.7014253,7.7014253 0 0 0 -1.166015,4.0644531 5.9315094,5.9315094 0 0 1 -0.542969,2.4921873 0.85441011,0.85441011 0 1 0 1.552734,0.712891 7.6283919,7.6283919 0 0 0 0.699219,-3.2050783 5.990768,5.990768 0 0 1 0.710938,-2.8105469 z m 2.544922,2.5449218 a 4.2721988,4.2721988 0 0 0 -0.294922,1.5195313 9.404946,9.404946 0 0 1 -1.171875,4.5507813 0.85439958,0.85439958 0 1 0 1.494141,0.828125 11.117271,11.117271 0 0 0 1.386719,-5.3789063 2.5661653,2.5661653 0 0 1 0.01172,-0.09375 z m 3.976563,0.6660156 a 0.85446711,0.85446711 0 0 0 -0.775391,0.5078126 l 1.578125,1.578125 a 14.575021,14.575021 0 0 0 0.05273,-1.2324219 0.85446638,0.85446638 0 0 0 -0.855468,-0.8535157 z m 3.228515,0.023438 a 0.85442438,0.85442438 0 0 0 -0.664062,0.8300781 16.143321,16.143321 0 0 1 -0.232422,2.7617189 l 0.884766,0.884765 0.560547,0.560547 a 17.84347,17.84347 0 0 0 0.496093,-4.2070313 0.85442438,0.85442438 0 0 0 -1.044922,-0.8300777 z m -4.169921,2.3457027 a 12.865296,12.865296 0 0 1 -0.316407,1.6894533 0.85505171,0.85505171 0 1 0 1.65625,0.425781 14.575021,14.575021 0 0 0 0.146485,-0.628906 z m 2.898437,2.8984373 a 16.143321,16.143321 0 0 1 -0.605469,1.753907 0.85525324,0.85525324 0 1 0 1.582032,0.65039 17.84347,17.84347 0 0 0 0.388671,-1.039062 z m -3.164062,0.427735 a 0.85441084,0.85441084 0 0 0 -0.808594,0.498047 c -0.134197,0.292317 -0.280909,0.58286 -0.4375,0.865234 a 0.85461774,0.85461774 0 1 0 1.49414,0.830078 c 0.177451,-0.320061 0.34389,-0.650889 0.496094,-0.982422 a 0.85443218,0.85443218 0 0 0 -0.419922,-1.132812 0.85441084,0.85441084 0 0 0 -0.324218,-0.07813 z" /><path
       id="path2-5"
       style="fill:#dfdfdf;fill-opacity:1"
       d="m -22.754252,1.3607181 13.999884,13.9998869 1.062042,-1.062042 -0.531712,-0.531711 -2.999679,-2.999679 -0.999893,-0.9998939 -2.999679,-2.99968 -3.112927,-3.112927 -3.355995,-3.35599502 z" /></g></svg>
