<?xml version="1.0" encoding="UTF-8" standalone="no"?>
<svg
   height="16px"
   viewBox="0 0 16 16"
   width="16px"
   version="1.1"
   id="svg121"
   sodipodi:docname="preferences-desktop-appearance-symbolic.svg"
   inkscape:version="1.2.1 (9c6d41e410, 2022-07-14)"
   xmlns:inkscape="http://www.inkscape.org/namespaces/inkscape"
   xmlns:sodipodi="http://sodipodi.sourceforge.net/DTD/sodipodi-0.dtd"
   xmlns:xlink="http://www.w3.org/1999/xlink"
   xmlns="http://www.w3.org/2000/svg"
   xmlns:svg="http://www.w3.org/2000/svg">
  <defs
     id="defs125" />
  <sodipodi:namedview
     id="namedview123"
     pagecolor="#ffffff"
     bordercolor="#000000"
     borderopacity="0.25"
     inkscape:showpageshadow="2"
     inkscape:pageopacity="0.0"
     inkscape:pagecheckerboard="0"
     inkscape:deskcolor="#d1d1d1"
     showgrid="false"
     inkscape:zoom="64.1875"
     inkscape:cx="7.9922103"
     inkscape:cy="8.0155794"
     inkscape:current-layer="svg121" />
  <path
     d="m 3 1 c -1.644531 0 -3 1.355469 -3 3 v 6 c 0 1.644531 1.355469 3 3 3 h 10 c 1.644531 0 3 -1.355469 3 -3 v -6 c 0 -0.570312 -0.167969 -1.101562 -0.449219 -1.558594 l -1.550781 1.554688 v 6.003906 c 0 0.570312 -0.429688 1 -1 1 h -10 c -0.570312 0 -1 -0.429688 -1 -1 v -6 c 0 -0.570312 0.429688 -1 1 -1 h 5.96875 l 2.007812 -2 z m 0 0"
     id="path77"
     style="fill:#dfdfdf;fill-opacity:1" />
  <path
     d="m 11 7 c 0 1.65625 -1.339844 3.007812 -3 3 h -3 v -3 c 0 -1.660156 1.34375 -3 3 -3 c 1.660156 0 3 1.339844 3 3 z m 0 0"
     id="path111"
     style="fill:#dfdfdf;fill-opacity:1" />
  <path
     d="m 13.398438 0 l -3.46875 3.457031 c 0.683593 0.355469 1.234374 0.910157 1.589843 1.589844 l 0.171875 -0.171875 l 0.007813 0.007812 l 4.300781 -4.300781 v -0.582031 z m 0 0"
     id="path113"
     style="fill:#dfdfdf;fill-opacity:1" />
  <path
     d="m 5 14 c -1.105469 0 -2 0.894531 -2 2 h 10 c 0 -1.105469 -0.894531 -2 -2 -2 z m 0 0"
     id="path119"
     style="fill:#dfdfdf;fill-opacity:1" />
</svg>
