<?xml version="1.0" encoding="UTF-8" standalone="no"?>
<svg
   width="32"
   height="32"
   version="1"
   id="svg315"
   sodipodi:docname="emblem-question.svg"
   xml:space="preserve"
   inkscape:version="1.2.1 (9c6d41e410, 2022-07-14)"
   xmlns:inkscape="http://www.inkscape.org/namespaces/inkscape"
   xmlns:sodipodi="http://sodipodi.sourceforge.net/DTD/sodipodi-0.dtd"
   xmlns="http://www.w3.org/2000/svg"
   xmlns:svg="http://www.w3.org/2000/svg"><defs
     id="defs319" /><sodipodi:namedview
     id="namedview317"
     pagecolor="#505050"
     bordercolor="#ffffff"
     borderopacity="1"
     inkscape:showpageshadow="0"
     inkscape:pageopacity="0"
     inkscape:pagecheckerboard="1"
     inkscape:deskcolor="#505050"
     showgrid="false"
     inkscape:zoom="11.965573"
     inkscape:cx="-23.275108"
     inkscape:cy="12.786684"
     inkscape:window-width="2560"
     inkscape:window-height="1358"
     inkscape:window-x="0"
     inkscape:window-y="0"
     inkscape:window-maximized="1"
     inkscape:current-layer="svg315" /><rect
     style="fill:#ffffff;fill-opacity:1.0;stroke-width:1.91045"
     id="rect303"
     width="30"
     height="30"
     x="1"
     y="1"
     rx="5"
     ry="5" /><g
     id="g468"
     transform="translate(76.47347,2.461949)"
     style="fill:#333333;fill-opacity:1.0"><path
       style="fill:#333333;fill-opacity:1.0;stroke-width:2.40083"
       d="m -60.472632,20.736399 c 1.322329,0 2.400826,1.078497 2.400826,2.400826 0,1.32233 -1.078497,2.400826 -2.400826,2.400826 -1.322329,0 -2.400826,-1.078496 -2.400826,-2.400826 0,-1.322329 1.078497,-2.400826 2.400826,-2.400826 z"
       id="path291" /><path
       style="fill:#333333;fill-opacity:1.0;stroke-width:2.40083"
       d="m -60.106881,1.5485468 c 1.744349,0.08441 3.44181,0.806529 4.726626,2.091345 2.05383,2.053832 2.672794,5.167403 1.566165,7.8495772 -0.797151,1.913156 -2.372693,3.338647 -4.257716,4.013879 v 2.832225 h -4.801652 v -4.801651 c 0,-1.32233 1.078497,-2.400826 2.400826,-2.400826 0.975335,0 1.84751,-0.581452 2.222639,-1.4817612 0.365751,-0.90031 0.168802,-1.922536 -0.525181,-2.616524 -0.693987,-0.69399 -1.716213,-0.890932 -2.616523,-0.52518 -0.90031,0.375129 -1.481761,1.247303 -1.481761,2.222639 h -4.801652 c 0,-2.907252 1.763107,-5.542533 4.445278,-6.649162 1.003471,-0.42202 2.07259,-0.590829 3.122951,-0.534561 z"
       id="path289" /></g></svg>
