<?xml version="1.0" encoding="UTF-8" standalone="no"?>
<svg
   width="32"
   height="32"
   version="1.1"
   id="svg297"
   sodipodi:docname="emblem-encrypted-locked.svg"
   xml:space="preserve"
   inkscape:version="1.2.1 (9c6d41e410, 2022-07-14)"
   xmlns:inkscape="http://www.inkscape.org/namespaces/inkscape"
   xmlns:sodipodi="http://sodipodi.sourceforge.net/DTD/sodipodi-0.dtd"
   xmlns="http://www.w3.org/2000/svg"
   xmlns:svg="http://www.w3.org/2000/svg"><defs
     id="defs301"><style
       type="text/css"
       id="current-color-scheme">
      .ColorScheme-Text {
        color:#122036;
      }
      </style><style
       type="text/css"
       id="current-color-scheme-3">
      .ColorScheme-Text {
        color:#122036;
      }
      </style><style
       type="text/css"
       id="current-color-scheme-7">
      .ColorScheme-Text {
        color:#122036;
      }
      </style></defs><sodipodi:namedview
     id="namedview299"
     pagecolor="#505050"
     bordercolor="#ffffff"
     borderopacity="1"
     inkscape:showpageshadow="0"
     inkscape:pageopacity="0"
     inkscape:pagecheckerboard="1"
     inkscape:deskcolor="#505050"
     showgrid="false"
     inkscape:zoom="11.965573"
     inkscape:cx="-5.8083303"
     inkscape:cy="15.293877"
     inkscape:window-width="2560"
     inkscape:window-height="1358"
     inkscape:window-x="0"
     inkscape:window-y="0"
     inkscape:window-maximized="1"
     inkscape:current-layer="svg297" /><rect
     style="fill:#ffffff;fill-opacity:1.0;stroke-width:1.91045"
     id="rect303"
     width="30"
     height="30"
     x="1"
     y="1"
     rx="5"
     ry="5" /><path
     d="m 5.982784,11.213649 c -2.6437118,2.643712 -2.643712,6.928991 -6e-7,9.572703 2.6437118,2.643711 6.9289906,2.643711 9.5727026,0 0.792737,-0.800219 1.376076,-1.787403 1.690179,-2.871811 h 1.181632 l 1.91454,1.914541 1.91454,-1.914541 1.914541,1.914541 L 28,16.000001 25.128189,13.12819 H 16.87921 c -0.32906,-0.710474 -0.774042,-1.35738 -1.323724,-1.914541 -2.643712,-2.6437117 -6.9289908,-2.6437116 -9.572702,0 z m 1.9145401,3.829082 c 0.5272463,-0.527247 1.3872946,-0.527247 1.914541,0 0.5272469,0.527246 0.5272459,1.387293 -6e-7,1.91454 -0.5272462,0.527246 -1.387294,0.527247 -1.9145402,0 -0.5272465,-0.527246 -0.5272465,-1.387294 -2e-7,-1.91454 z m 0,0"
     fill="#2e3436"
     id="path2"
     style="fill:#55d400;fill-opacity:1;stroke-width:1.35379" /></svg>
