<?xml version="1.0" encoding="UTF-8" standalone="no"?>
<svg
   width="32"
   height="32"
   version="1.1"
   id="svg6"
   sodipodi:docname="emblem-urgent.svg"
   xml:space="preserve"
   inkscape:version="1.2.1 (9c6d41e410, 2022-07-14)"
   xmlns:inkscape="http://www.inkscape.org/namespaces/inkscape"
   xmlns:sodipodi="http://sodipodi.sourceforge.net/DTD/sodipodi-0.dtd"
   xmlns="http://www.w3.org/2000/svg"
   xmlns:svg="http://www.w3.org/2000/svg"><defs
     id="defs10" /><sodipodi:namedview
     id="namedview8"
     pagecolor="#505050"
     bordercolor="#ffffff"
     borderopacity="1"
     inkscape:showpageshadow="0"
     inkscape:pageopacity="0"
     inkscape:pagecheckerboard="1"
     inkscape:deskcolor="#505050"
     showgrid="false"
     inkscape:zoom="11.965573"
     inkscape:cx="-14.750652"
     inkscape:cy="13.455269"
     inkscape:window-width="2560"
     inkscape:window-height="1358"
     inkscape:window-x="0"
     inkscape:window-y="0"
     inkscape:window-maximized="1"
     inkscape:current-layer="svg6" /><rect
     style="fill:#ffffff;fill-opacity:1.0;stroke-width:1.91045"
     id="rect303"
     width="30"
     height="30"
     x="1"
     y="1"
     rx="5"
     ry="5" /><g
     id="g295"
     transform="matrix(0.69565217,0,0,0.69565217,4.0000001,4.0000001)"
     style="fill:#333333;fill-opacity:1.0"><g
       id="g241"
       style="fill:#333333;fill-opacity:1.0">
	<path
   d="M 17.25,0 C 7.738,0 0,7.738 0,17.25 0,26.762 7.738,34.5 17.25,34.5 26.762,34.5 34.5,26.762 34.5,17.25 34.5,7.738 26.762,0 17.25,0 Z m 0,29.5 C 10.495,29.5 5,24.005 5,17.25 5,10.495 10.495,5 17.25,5 24.005,5 29.5,10.495 29.5,17.25 29.5,24.005 24.005,29.5 17.25,29.5 Z m 8.664,-11.369 c 0,1.381 -1.119,2.5 -2.5,2.5 H 17.25 c -1.381,0 -2.5,-1.119 -2.5,-2.5 v -7.926 c 0,-1.381 1.119,-2.5 2.5,-2.5 1.381,0 2.5,1.119 2.5,2.5 v 5.426 h 3.664 c 1.381,0 2.5,1.119 2.5,2.5 z"
   id="path239"
   style="fill:#333333;fill-opacity:1.0" />
</g><g
       id="g243"
       style="fill:#333333;fill-opacity:1.0">
</g><g
       id="g245"
       style="fill:#333333;fill-opacity:1.0">
</g><g
       id="g247"
       style="fill:#333333;fill-opacity:1.0">
</g><g
       id="g249"
       style="fill:#333333;fill-opacity:1.0">
</g><g
       id="g251"
       style="fill:#333333;fill-opacity:1.0">
</g><g
       id="g253"
       style="fill:#333333;fill-opacity:1.0">
</g><g
       id="g255"
       style="fill:#333333;fill-opacity:1.0">
</g><g
       id="g257"
       style="fill:#333333;fill-opacity:1.0">
</g><g
       id="g259"
       style="fill:#333333;fill-opacity:1.0">
</g><g
       id="g261"
       style="fill:#333333;fill-opacity:1.0">
</g><g
       id="g263"
       style="fill:#333333;fill-opacity:1.0">
</g><g
       id="g265"
       style="fill:#333333;fill-opacity:1.0">
</g><g
       id="g267"
       style="fill:#333333;fill-opacity:1.0">
</g><g
       id="g269"
       style="fill:#333333;fill-opacity:1.0">
</g><g
       id="g271"
       style="fill:#333333;fill-opacity:1.0">
</g></g></svg>
