<?xml version="1.0" encoding="UTF-8" standalone="no"?>
<svg
   width="32"
   height="32"
   version="1.1"
   id="svg8"
   sodipodi:docname="vcs-added.svg"
   xml:space="preserve"
   inkscape:version="1.2.1 (9c6d41e410, 2022-07-14)"
   xmlns:inkscape="http://www.inkscape.org/namespaces/inkscape"
   xmlns:sodipodi="http://sodipodi.sourceforge.net/DTD/sodipodi-0.dtd"
   xmlns="http://www.w3.org/2000/svg"
   xmlns:svg="http://www.w3.org/2000/svg"><defs
     id="defs12" /><sodipodi:namedview
     id="namedview10"
     pagecolor="#505050"
     bordercolor="#ffffff"
     borderopacity="1"
     inkscape:showpageshadow="0"
     inkscape:pageopacity="0"
     inkscape:pagecheckerboard="1"
     inkscape:deskcolor="#505050"
     showgrid="false"
     inkscape:zoom="8.4609375"
     inkscape:cx="-51.235457"
     inkscape:cy="19.146814"
     inkscape:window-width="2560"
     inkscape:window-height="1358"
     inkscape:window-x="0"
     inkscape:window-y="0"
     inkscape:window-maximized="1"
     inkscape:current-layer="svg8" /><rect
     style="fill:#af7f4c;fill-opacity:1;stroke-width:1.91045"
     id="rect303"
     width="30"
     height="30"
     x="1"
     y="1"
     rx="5"
     ry="5" /><path
     d="m 27.999017,14.361255 v 3.275906 c 0,0.890508 -0.747446,1.637954 -1.637953,1.637954 l -7.084653,0.0015 v 7.083197 c 0,0.890509 -0.74745,1.637954 -1.63796,1.637954 l -3.27736,0.0015 c -0.89051,0 -1.63796,-0.747445 -1.63796,-1.637953 l -0.001,-7.084656 H 5.6389418 c -0.89051,0 -1.63796,-0.747446 -1.63796,-1.637954 l -10e-4,-3.277366 c 0,-0.890507 0.74745,-1.637952 1.63796,-1.637952 l 7.0846492,-0.0015 V 5.6386874 c 0,-0.8905081 0.74745,-1.6379532 1.63796,-1.6379532 l 3.2759,-2e-7 c 0.89051,0 1.63796,0.7474452 1.63796,1.6379533 l 0.003,7.0831977 h 7.083195 c 0.891967,0.0015 1.637953,0.747445 1.639412,1.639412 z"
     id="path362"
     style="fill:#ffffff;stroke-width:0.0206454" /></svg>
